<svg width="33" height="33" viewBox="0 0 33 33" fill="none" xmlns="http://www.w3.org/2000/svg">
<rect x="0.291748" y="0.446777" width="32.3288" height="32.3288" rx="16.1644" fill="#67CE67"/>
<mask id="mask0_526_801" style="mask-type:alpha" maskUnits="userSpaceOnUse" x="4" y="5" width="24" height="23">
<rect x="4.92017" y="5.0752" width="22.2166" height="22.2166" fill="#D9D9D9"/>
</mask>
<g mask="url(#mask0_526_801)">
<path d="M11.2616 20.8621V11.5001C11.2616 11.2142 11.3595 10.9746 11.5555 10.7813C11.7513 10.588 11.9914 10.4913 12.2759 10.4913C12.5602 10.4913 12.7994 10.588 12.9935 10.7813C13.1875 10.9746 13.2844 11.2142 13.2844 11.5001V20.8676C13.2844 21.1535 13.1878 21.3931 12.9945 21.5864C12.8011 21.7797 12.5616 21.8764 12.2759 21.8764C11.9914 21.8764 11.7513 21.7784 11.5555 21.5825C11.3595 21.3867 11.2616 21.1466 11.2616 20.8621ZM15.0196 24.6202V7.74754C15.0196 7.46166 15.1163 7.22206 15.3096 7.02874C15.5031 6.83543 15.7427 6.73877 16.0284 6.73877C16.3142 6.73877 16.5538 6.83543 16.7472 7.02874C16.9405 7.22206 17.0372 7.46166 17.0372 7.74754V24.6202C17.0372 24.906 16.9405 25.1456 16.7472 25.339C16.5538 25.5323 16.3142 25.6289 16.0284 25.6289C15.7427 25.6289 15.5031 25.5323 15.3096 25.339C15.1163 25.1456 15.0196 24.906 15.0196 24.6202ZM7.50903 17.104V15.2582C7.50903 14.9724 7.607 14.7328 7.80294 14.5394C7.99873 14.346 8.23887 14.2494 8.52336 14.2494C8.8077 14.2494 9.04692 14.3474 9.24101 14.5433C9.43494 14.7391 9.53191 14.9792 9.53191 15.2637V17.1095C9.53191 17.3953 9.43525 17.6349 9.24193 17.8283C9.04862 18.0217 8.80909 18.1183 8.52336 18.1183C8.23887 18.1183 7.99873 18.0204 7.80294 17.8244C7.607 17.6286 7.50903 17.3885 7.50903 17.104ZM18.7669 20.8621V11.5001C18.7669 11.2142 18.8647 10.9746 19.0605 10.7813C19.2565 10.588 19.4966 10.4913 19.781 10.4913C20.0655 10.4913 20.3047 10.588 20.4986 10.7813C20.6927 10.9746 20.7897 11.2142 20.7897 11.5001V20.8676C20.7897 21.1535 20.6931 21.3931 20.4998 21.5864C20.3064 21.7797 20.0668 21.8764 19.781 21.8764C19.4966 21.8764 19.2565 21.7784 19.0605 21.5825C18.8647 21.3867 18.7669 21.1466 18.7669 20.8621ZM22.5249 17.104V15.2582C22.5249 14.9724 22.6228 14.7328 22.8186 14.5394C23.0146 14.346 23.2547 14.2494 23.539 14.2494C23.8235 14.2494 24.0627 14.3474 24.2567 14.5433C24.4508 14.7391 24.5478 14.9792 24.5478 15.2637V17.1095C24.5478 17.3953 24.4512 17.6349 24.2578 17.8283C24.0645 18.0217 23.8249 18.1183 23.539 18.1183C23.2547 18.1183 23.0146 18.0204 22.8186 17.8244C22.6228 17.6286 22.5249 17.3885 22.5249 17.104Z" fill="#F9F9F9" fill-opacity="0.976471"/>
</g>
</svg>
