<svg width="58" height="59" viewBox="0 0 58 59" fill="none" xmlns="http://www.w3.org/2000/svg">
<rect y="0.015625" width="58" height="58" rx="5.91837" fill="#F80759" fill-opacity="0.1"/>
<mask id="mask0_595_5403" style="mask-type:alpha" maskUnits="userSpaceOnUse" x="10" y="9" width="40" height="41">
<rect x="10" y="9.01562" width="40" height="40" fill="#D9D9D9"/>
</mask>
<g mask="url(#mask0_595_5403)">
<path d="M43.0759 34.7985L41.1655 32.8881C42.3557 31.7492 43.2901 30.4159 43.9684 28.8881C44.647 27.3601 44.9863 25.7366 44.9863 24.0177C44.9863 22.2988 44.647 20.6835 43.9684 19.1719C43.2901 17.6602 42.3557 16.3349 41.1655 15.196L43.0759 13.2344C44.5039 14.606 45.6387 16.2235 46.4801 18.0869C47.3217 19.9502 47.7426 21.9277 47.7426 24.0194C47.7426 26.111 47.3216 28.0865 46.4796 29.9456C45.6377 31.8048 44.5031 33.4224 43.0759 34.7985ZM37.6463 29.369L35.6851 27.4073C36.1528 26.9565 36.5262 26.4459 36.8051 25.8756C37.0839 25.3051 37.2234 24.6853 37.2234 24.0165C37.2234 23.3262 37.0839 22.7012 36.8051 22.1415C36.5262 21.5817 36.1528 21.0765 35.6851 20.6256L37.6463 18.664C38.3857 19.352 38.968 20.1506 39.393 21.0598C39.8182 21.969 40.0309 22.9545 40.0309 24.0165C40.0309 25.057 39.8182 26.0373 39.393 26.9573C38.968 27.877 38.3857 28.6809 37.6463 29.369ZM24.7617 29.8498C23.1576 29.8498 21.7844 29.2785 20.6421 28.136C19.4996 26.9938 18.9284 25.6206 18.9284 24.0165C18.9284 22.4123 19.4996 21.0391 20.6421 19.8969C21.7844 18.7544 23.1576 18.1831 24.7617 18.1831C26.3659 18.1831 27.7391 18.7544 28.8813 19.8969C30.0238 21.0391 30.5951 22.4123 30.5951 24.0165C30.5951 25.6206 30.0238 26.9938 28.8813 28.136C27.7391 29.2785 26.3659 29.8498 24.7617 29.8498ZM12.2617 42.5419V38.8369C12.2617 37.9949 12.4764 37.2327 12.9059 36.5502C13.3353 35.8674 13.9348 35.3391 14.7042 34.9652C16.0887 34.2749 17.6378 33.6985 19.3517 33.236C21.0653 32.7735 22.8687 32.5423 24.7617 32.5423C26.6548 32.5423 28.4582 32.7735 30.1721 33.236C31.8857 33.6985 33.4348 34.2749 34.8192 34.9652C35.5887 35.3391 36.1881 35.8674 36.6176 36.5502C37.047 37.2327 37.2617 37.9949 37.2617 38.8369V42.5419H12.2617ZM14.7617 40.0419H34.7617V38.8369C34.7617 38.4566 34.6587 38.1308 34.4526 37.8594C34.2462 37.588 33.986 37.3669 33.6721 37.196C32.6507 36.6747 31.3553 36.1853 29.7859 35.7281C28.2164 35.2706 26.5417 35.0419 24.7617 35.0419C22.9817 35.0419 21.307 35.2706 19.7376 35.7281C18.1681 36.1853 16.8727 36.6747 15.8513 37.196C15.5374 37.3669 15.2773 37.588 15.0709 37.8594C14.8648 38.1308 14.7617 38.4566 14.7617 38.8369V40.0419ZM24.7617 27.3498C25.6784 27.3498 26.4631 27.0234 27.1159 26.3706C27.7687 25.7178 28.0951 24.9331 28.0951 24.0165C28.0951 23.0998 27.7687 22.3151 27.1159 21.6623C26.4631 21.0095 25.6784 20.6831 24.7617 20.6831C23.8451 20.6831 23.0603 21.0095 22.4076 21.6623C21.7548 22.3151 21.4284 23.0998 21.4284 24.0165C21.4284 24.9331 21.7548 25.7178 22.4076 26.3706C23.0603 27.0234 23.8451 27.3498 24.7617 27.3498Z" fill="#F80759"/>
</g>
</svg>
