<svg width="156" height="157" viewBox="0 0 156 157" fill="none" xmlns="http://www.w3.org/2000/svg">
<path opacity="0.0416667" d="M30.8992 65.5564L110.265 37.4485C112.123 36.7905 113.975 38.4435 113.532 40.364L93.1776 128.527C92.7342 130.447 90.3449 131.121 88.9635 129.715L29.9517 69.6603C28.6716 68.3575 29.1775 66.1662 30.8992 65.5564Z" stroke="url(#paint0_linear_1481_2012)" stroke-width="0.356713"/>
<path opacity="0.0833333" d="M37.7034 50.9432L121.896 50.2057C123.867 50.1884 125.08 52.3543 124.036 54.0258L76.0876 130.759C75.0432 132.43 72.5647 132.289 71.7163 130.51L35.4714 54.515C34.6852 52.8665 35.877 50.9592 37.7034 50.9432Z" stroke="url(#paint1_linear_1481_2012)" stroke-width="0.356713"/>
<path opacity="0.125" d="M48.8997 39.3399L128.746 66.0531C130.615 66.6784 131.057 69.1212 129.525 70.3616L59.2073 127.304C57.6756 128.544 55.378 127.604 55.155 125.646L45.6265 41.9905C45.4198 40.1758 47.1676 38.7604 48.8997 39.3399Z" stroke="url(#paint2_linear_1481_2012)" stroke-width="0.356713"/>
<path opacity="0.166667" d="M63.26 32.018L130.059 83.2711C131.623 84.4708 131.245 86.9244 129.393 87.5985L44.3679 118.545C42.5158 119.219 40.6494 117.582 41.0761 115.658L59.3022 33.4585C59.6976 31.6753 61.8109 30.9061 63.26 32.018Z" stroke="url(#paint3_linear_1481_2012)" stroke-width="0.356713"/>
<path opacity="0.208333" d="M79.2303 29.7521L125.704 99.9605C126.791 101.604 125.636 103.801 123.665 103.835L33.197 105.414C31.2263 105.449 29.9945 103.294 31.0244 101.613L75.0191 29.8256C75.9735 28.2683 78.2222 28.2291 79.2303 29.7521Z" stroke="url(#paint4_linear_1481_2012)" stroke-width="0.356713"/>
<path opacity="0.25" d="M95.0618 32.831L116.146 114.345C116.639 116.253 114.831 117.954 112.957 117.345L26.9032 89.3842C25.0287 88.7751 24.5657 86.3362 26.0866 85.0826L91.0562 31.5295C92.4655 30.3677 94.6044 31.0627 95.0618 32.831Z" stroke="url(#paint5_linear_1481_2012)" stroke-width="0.356713"/>
<path opacity="0.291667" d="M109.031 40.8806L102.428 124.817C102.273 126.782 100.01 127.802 98.4357 126.616L26.1737 72.1624C24.5997 70.9763 24.9559 68.5195 26.8021 67.8294L105.667 38.3459C107.378 37.7063 109.174 39.0598 109.031 40.8806Z" stroke="url(#paint6_linear_1481_2012)" stroke-width="0.356713"/>
<path opacity="0.333333" d="M119.621 53.046L86.0502 130.26C85.2644 132.067 82.7924 132.295 81.6902 130.661L31.0934 55.6479C29.9913 54.0139 31.128 51.8069 33.0983 51.7554L117.266 49.5542C119.091 49.5065 120.349 51.371 119.621 53.046Z" stroke="url(#paint7_linear_1481_2012)" stroke-width="0.356713"/>
<path opacity="0.375" d="M125.662 67.9995L68.7821 130.077C67.4506 131.53 65.0393 130.94 64.5292 129.037L41.1108 41.6379C40.6007 39.7341 42.3939 38.0175 44.2736 38.6103L124.572 63.9312C126.314 64.4805 126.896 66.6528 125.662 67.9995Z" stroke="url(#paint8_linear_1481_2012)" stroke-width="0.356713"/>
<path opacity="0.416667" d="M126.52 84.0945L52.5282 124.272C50.7961 125.212 48.7083 123.869 48.8458 121.903L55.1575 31.6419C55.295 29.6758 57.5494 28.6365 59.1337 29.8089L126.814 79.8929C128.282 80.9794 128.125 83.2229 126.52 84.0945Z" stroke="url(#paint9_linear_1481_2012)" stroke-width="0.356713"/>
<path opacity="0.458333" d="M122.076 99.606L39.0355 113.505C37.0916 113.831 35.5547 111.881 36.3248 110.067L71.6789 26.7779C72.449 24.9636 74.919 24.7149 76.0353 26.3393L123.722 95.7291C124.757 97.2343 123.878 99.3045 122.076 99.606Z" stroke="url(#paint10_linear_1481_2012)" stroke-width="0.356713"/>
<path opacity="0.5" d="M112.829 112.819L29.7869 98.9256C27.843 98.6004 27.0245 96.2568 28.3433 94.7921L88.8875 27.551C90.2063 26.0863 92.6226 26.6553 93.1493 28.5546L115.647 109.689C116.135 111.449 114.63 113.121 112.829 112.819Z" stroke="url(#paint11_linear_1481_2012)" stroke-width="0.356713"/>
<path opacity="0.541667" d="M99.7993 122.304L25.805 82.1318C24.0729 81.1914 24.062 78.709 25.7858 77.7535L104.923 33.887C106.647 32.9315 108.746 34.2562 108.626 36.2235L103.483 120.262C103.371 122.085 101.404 123.176 99.7993 122.304Z" stroke="url(#paint12_linear_1481_2012)" stroke-width="0.356713"/>
<path opacity="0.583333" d="M84.3771 127.018L27.4929 64.9444C26.1613 63.4913 26.9592 61.1406 28.9002 60.7983L118.007 45.0863C119.948 44.7441 121.502 46.6801 120.748 48.501L88.5249 126.287C87.8259 127.974 85.611 128.365 84.3771 127.018Z" stroke="url(#paint13_linear_1481_2012)" stroke-width="0.356713"/>
<path opacity="0.625" d="M68.2604 126.466L34.6847 49.2547C33.8987 47.4473 35.4184 45.4844 37.3651 45.7927L126.733 59.9472C128.68 60.2555 129.518 62.592 128.212 64.0681L72.4203 127.125C71.21 128.493 68.9887 128.141 68.2604 126.466Z" stroke="url(#paint14_linear_1481_2012)" stroke-width="0.356713"/>
<path opacity="0.666667" d="M53.1966 120.701L46.5878 36.7651C46.4331 34.8002 48.5091 33.4391 50.2494 34.3644L130.14 76.843C131.88 77.7683 131.913 80.2506 130.197 81.221L56.9154 122.679C55.3257 123.578 53.34 122.522 53.1966 120.701Z" stroke="url(#paint15_linear_1481_2012)" stroke-width="0.356713"/>
<path opacity="0.708333" d="M40.846 110.335L61.9242 28.8199C62.4177 26.9117 64.8237 26.3006 66.1679 27.7421L127.876 93.9163C129.221 95.3577 128.443 97.7153 126.505 98.0744L43.7184 113.415C41.9225 113.748 40.3887 112.103 40.846 110.335Z" stroke="url(#paint16_linear_1481_2012)" stroke-width="0.356713"/>
<path opacity="0.75" d="M32.5375 96.5201L79.0061 26.3086C80.0938 24.6651 82.5678 24.8706 83.3694 26.6711L120.172 109.33C120.973 111.131 119.471 113.107 117.521 112.816L34.2506 100.368C32.4442 100.098 31.5294 98.0432 32.5375 96.5201Z" stroke="url(#paint17_linear_1481_2012)" stroke-width="0.356713"/>
<path opacity="0.791667" d="M29.1735 80.7509L95.969 29.4933C97.5326 28.2934 99.8049 29.2932 99.9766 31.2566L107.863 121.394C108.034 123.358 105.97 124.737 104.222 123.827L29.5406 84.9467C27.9205 84.1032 27.7245 81.8628 29.1735 80.7509Z" stroke="url(#paint18_linear_1481_2012)" stroke-width="0.356713"/>
<path opacity="0.833333" d="M31.1366 64.7414L110.981 38.0229C112.85 37.3975 114.673 39.0825 114.196 40.9949L92.3065 128.789C91.8297 130.701 89.429 131.333 88.0724 129.904L30.1177 68.8281C28.8605 67.5032 29.4045 65.321 31.1366 64.7414Z" stroke="url(#paint19_linear_1481_2012)" stroke-width="0.356713"/>
<path opacity="0.875" d="M38.1966 50.2447L122.39 50.9767C124.36 50.9938 125.535 53.1805 124.462 54.8335L75.1821 130.718C74.1086 132.371 71.633 132.187 70.8157 130.393L35.9027 53.7771C35.1454 52.115 36.3702 50.2289 38.1966 50.2447Z" stroke="url(#paint20_linear_1481_2012)" stroke-width="0.356713"/>
<path opacity="0.916667" d="M49.5876 38.8315L128.955 66.9341C130.813 67.5919 131.212 70.0421 129.659 71.2555L58.3585 126.962C56.8054 128.175 54.5245 127.195 54.3357 125.233L46.2686 41.4245C46.0936 39.6065 47.8659 38.2219 49.5876 38.8315Z" stroke="url(#paint21_linear_1481_2012)" stroke-width="0.356713"/>
<path opacity="0.958333" d="M64.0808 31.7661L129.975 84.1772C131.518 85.4041 131.097 87.8507 129.234 88.4924L43.6815 117.95C41.8179 118.592 39.9804 116.923 40.4405 115.006L60.0985 33.1374C60.5249 31.3614 62.6514 30.6292 64.0808 31.7661Z" stroke="url(#paint22_linear_1481_2012)" stroke-width="0.356713"/>
<path d="M80.0861 29.7818L125.327 100.791C126.386 102.453 125.192 104.629 123.221 104.629H32.7393C30.7684 104.629 29.5744 102.453 30.6334 100.791L75.8743 29.7818C76.8557 28.2414 79.1047 28.2414 80.0861 29.7818Z" stroke="url(#paint23_linear_1481_2012)" stroke-width="0.356713"/>
<path d="M77.5 68.875C75.636 68.875 74.125 70.386 74.125 72.25V77.875C74.125 79.739 75.636 81.25 77.5 81.25C79.364 81.25 80.875 79.739 80.875 77.875V72.25C80.875 70.386 79.364 68.875 77.5 68.875ZM78.625 87.9382V89.6875C78.625 90.3088 78.1213 90.8125 77.5 90.8125C76.8787 90.8125 76.375 90.3088 76.375 89.6875V87.9382C71.3126 87.3786 67.375 83.0866 67.375 77.875C67.375 77.2537 67.8787 76.75 68.5 76.75C69.1213 76.75 69.625 77.2537 69.625 77.875C69.625 82.2242 73.1508 85.75 77.5 85.75C81.8492 85.75 85.375 82.2242 85.375 77.875C85.375 77.2537 85.8787 76.75 86.5 76.75C87.1213 76.75 87.625 77.2537 87.625 77.875C87.625 83.0866 83.6874 87.3786 78.625 87.9382ZM77.5 66.625C80.6066 66.625 83.125 69.1434 83.125 72.25V77.875C83.125 80.9816 80.6066 83.5 77.5 83.5C74.3934 83.5 71.875 80.9816 71.875 77.875V72.25C71.875 69.1434 74.3934 66.625 77.5 66.625Z" fill="#B5B5B5"/>
<defs>
<linearGradient id="paint0_linear_1481_2012" x1="70.4892" y1="111.513" x2="85.9742" y2="44.4403" gradientUnits="userSpaceOnUse">
<stop stop-color="#FD8B4E"/>
<stop offset="0.266667" stop-color="#C7A073"/>
<stop offset="1" stop-color="#00F0FF"/>
</linearGradient>
<linearGradient id="paint1_linear_1481_2012" x1="60.1745" y1="107.285" x2="96.6525" y2="48.9082" gradientUnits="userSpaceOnUse">
<stop stop-color="#FD8B4E"/>
<stop offset="0.266667" stop-color="#C7A073"/>
<stop offset="1" stop-color="#00F0FF"/>
</linearGradient>
<linearGradient id="paint2_linear_1481_2012" x1="51.8034" y1="99.9283" x2="105.3" y2="56.6078" gradientUnits="userSpaceOnUse">
<stop stop-color="#FD8B4E"/>
<stop offset="0.266667" stop-color="#C7A073"/>
<stop offset="1" stop-color="#00F0FF"/>
</linearGradient>
<linearGradient id="paint3_linear_1481_2012" x1="46.2798" y1="90.2507" x2="110.965" y2="66.7071" gradientUnits="userSpaceOnUse">
<stop stop-color="#FD8B4E"/>
<stop offset="0.266667" stop-color="#C7A073"/>
<stop offset="1" stop-color="#00F0FF"/>
</linearGradient>
<linearGradient id="paint4_linear_1481_2012" x1="44.2165" y1="79.2841" x2="113.043" y2="78.0827" gradientUnits="userSpaceOnUse">
<stop stop-color="#FD8B4E"/>
<stop offset="0.266667" stop-color="#C7A073"/>
<stop offset="1" stop-color="#00F0FF"/>
</linearGradient>
<linearGradient id="paint5_linear_1481_2012" x1="45.8296" y1="68.265" x2="111.297" y2="89.5368" gradientUnits="userSpaceOnUse">
<stop stop-color="#FD8B4E"/>
<stop offset="0.266667" stop-color="#C7A073"/>
<stop offset="1" stop-color="#00F0FF"/>
</linearGradient>
<linearGradient id="paint6_linear_1481_2012" x1="50.9447" y1="58.3557" x2="105.92" y2="99.7828" gradientUnits="userSpaceOnUse">
<stop stop-color="#FD8B4E"/>
<stop offset="0.266667" stop-color="#C7A073"/>
<stop offset="1" stop-color="#00F0FF"/>
</linearGradient>
<linearGradient id="paint7_linear_1481_2012" x1="59.0099" y1="50.658" x2="97.503" y2="107.726" gradientUnits="userSpaceOnUse">
<stop stop-color="#FD8B4E"/>
<stop offset="0.266667" stop-color="#C7A073"/>
<stop offset="1" stop-color="#00F0FF"/>
</linearGradient>
<linearGradient id="paint8_linear_1481_2012" x1="69.1309" y1="46.0086" x2="86.9472" y2="112.5" gradientUnits="userSpaceOnUse">
<stop stop-color="#FD8B4E"/>
<stop offset="0.266667" stop-color="#C7A073"/>
<stop offset="1" stop-color="#00F0FF"/>
</linearGradient>
<linearGradient id="paint9_linear_1481_2012" x1="80.228" y1="44.8969" x2="75.4262" y2="113.566" gradientUnits="userSpaceOnUse">
<stop stop-color="#FD8B4E"/>
<stop offset="0.266667" stop-color="#C7A073"/>
<stop offset="1" stop-color="#00F0FF"/>
</linearGradient>
<linearGradient id="paint10_linear_1481_2012" x1="91.0682" y1="47.4729" x2="64.1714" y2="110.838" gradientUnits="userSpaceOnUse">
<stop stop-color="#FD8B4E"/>
<stop offset="0.266667" stop-color="#C7A073"/>
<stop offset="1" stop-color="#00F0FF"/>
</linearGradient>
<linearGradient id="paint11_linear_1481_2012" x1="100.483" y1="53.431" x2="54.4218" y2="104.587" gradientUnits="userSpaceOnUse">
<stop stop-color="#FD8B4E"/>
<stop offset="0.266667" stop-color="#C7A073"/>
<stop offset="1" stop-color="#00F0FF"/>
</linearGradient>
<linearGradient id="paint12_linear_1481_2012" x1="107.461" y1="62.1321" x2="47.2546" y2="95.505" gradientUnits="userSpaceOnUse">
<stop stop-color="#FD8B4E"/>
<stop offset="0.266667" stop-color="#C7A073"/>
<stop offset="1" stop-color="#00F0FF"/>
</linearGradient>
<linearGradient id="paint13_linear_1481_2012" x1="111.211" y1="72.6189" x2="43.4201" y2="84.5723" gradientUnits="userSpaceOnUse">
<stop stop-color="#FD8B4E"/>
<stop offset="0.266667" stop-color="#C7A073"/>
<stop offset="1" stop-color="#00F0FF"/>
</linearGradient>
<linearGradient id="paint14_linear_1481_2012" x1="111.343" y1="83.7671" x2="43.3539" y2="72.9986" gradientUnits="userSpaceOnUse">
<stop stop-color="#FD8B4E"/>
<stop offset="0.266667" stop-color="#C7A073"/>
<stop offset="1" stop-color="#00F0FF"/>
</linearGradient>
<linearGradient id="paint15_linear_1481_2012" x1="107.834" y1="94.3548" x2="47.0545" y2="62.0378" gradientUnits="userSpaceOnUse">
<stop stop-color="#FD8B4E"/>
<stop offset="0.266667" stop-color="#C7A073"/>
<stop offset="1" stop-color="#00F0FF"/>
</linearGradient>
<linearGradient id="paint16_linear_1481_2012" x1="101.084" y1="103.212" x2="54.1375" y2="52.8677" gradientUnits="userSpaceOnUse">
<stop stop-color="#FD8B4E"/>
<stop offset="0.266667" stop-color="#C7A073"/>
<stop offset="1" stop-color="#00F0FF"/>
</linearGradient>
<linearGradient id="paint17_linear_1481_2012" x1="91.8129" y1="109.397" x2="63.8143" y2="46.5111" gradientUnits="userSpaceOnUse">
<stop stop-color="#FD8B4E"/>
<stop offset="0.266667" stop-color="#C7A073"/>
<stop offset="1" stop-color="#00F0FF"/>
</linearGradient>
<linearGradient id="paint18_linear_1481_2012" x1="81.0272" y1="112.224" x2="75.0277" y2="43.6492" gradientUnits="userSpaceOnUse">
<stop stop-color="#FD8B4E"/>
<stop offset="0.266667" stop-color="#C7A073"/>
<stop offset="1" stop-color="#00F0FF"/>
</linearGradient>
<linearGradient id="paint19_linear_1481_2012" x1="69.9185" y1="111.382" x2="86.5717" y2="44.5897" gradientUnits="userSpaceOnUse">
<stop stop-color="#FD8B4E"/>
<stop offset="0.266667" stop-color="#C7A073"/>
<stop offset="1" stop-color="#00F0FF"/>
</linearGradient>
<linearGradient id="paint20_linear_1481_2012" x1="59.681" y1="106.97" x2="97.1723" y2="49.2389" gradientUnits="userSpaceOnUse">
<stop stop-color="#FD8B4E"/>
<stop offset="0.266667" stop-color="#C7A073"/>
<stop offset="1" stop-color="#00F0FF"/>
</linearGradient>
<linearGradient id="paint21_linear_1481_2012" x1="51.4334" y1="99.4613" x2="105.678" y2="57.081" gradientUnits="userSpaceOnUse">
<stop stop-color="#FD8B4E"/>
<stop offset="0.266667" stop-color="#C7A073"/>
<stop offset="1" stop-color="#00F0FF"/>
</linearGradient>
<linearGradient id="paint22_linear_1481_2012" x1="46.0869" y1="89.6937" x2="111.174" y2="67.2826" gradientUnits="userSpaceOnUse">
<stop stop-color="#FD8B4E"/>
<stop offset="0.266667" stop-color="#C7A073"/>
<stop offset="1" stop-color="#00F0FF"/>
</linearGradient>
<linearGradient id="paint23_linear_1481_2012" x1="44.2132" y1="78.6952" x2="113.05" y2="78.6952" gradientUnits="userSpaceOnUse">
<stop stop-color="#FD8B4E"/>
<stop offset="0.266667" stop-color="#C7A073"/>
<stop offset="1" stop-color="#00F0FF"/>
</linearGradient>
</defs>
</svg>
