<svg width="156" height="158" viewBox="0 0 156 158" fill="none" xmlns="http://www.w3.org/2000/svg">
<path opacity="0.0416667" d="M29.9517 69.9864C28.6716 68.6837 29.1775 66.4923 30.8992 65.8826L110.265 37.7747C112.123 37.1167 113.975 38.7697 113.532 40.6901L93.1776 128.853C92.7342 130.773 90.345 131.447 88.9635 130.041L29.9517 69.9864Z" stroke="url(#paint0_linear_446_2420)" stroke-width="0.356713"/>
<path opacity="0.0833333" d="M35.4714 54.8392C34.6852 53.1907 35.877 51.2834 37.7034 51.2674L121.896 50.5299C123.867 50.5126 125.08 52.6785 124.036 54.35L76.0876 131.083C75.0432 132.754 72.5647 132.614 71.7162 130.835L35.4714 54.8392Z" stroke="url(#paint1_linear_446_2420)" stroke-width="0.356713"/>
<path opacity="0.125" d="M45.6265 42.3147C45.4198 40.5 47.1676 39.0847 48.8997 39.6642L128.746 66.3773C130.615 67.0026 131.057 69.4454 129.525 70.6858L59.2073 127.628C57.6756 128.868 55.378 127.928 55.155 125.97L45.6265 42.3147Z" stroke="url(#paint2_linear_446_2420)" stroke-width="0.356713"/>
<path opacity="0.166667" d="M59.3041 33.7827C59.6995 31.9996 61.8129 31.2304 63.2619 32.3422L130.061 83.5953C131.625 84.7951 131.247 87.2486 129.395 87.9227L44.3698 118.869C42.5177 119.543 40.6514 117.907 41.078 115.982L59.3041 33.7827Z" stroke="url(#paint3_linear_446_2420)" stroke-width="0.356713"/>
<path opacity="0.208333" d="M75.0191 30.1518C75.9735 28.5945 78.2222 28.5553 79.2303 30.0783L125.704 100.287C126.791 101.93 125.636 104.127 123.665 104.162L33.197 105.741C31.2263 105.775 29.9945 103.62 31.0244 101.939L75.0191 30.1518Z" stroke="url(#paint4_linear_446_2420)" stroke-width="0.356713"/>
<path opacity="0.25" d="M91.0562 31.8556C92.4655 30.6939 94.6044 31.3889 95.0618 33.1572L116.146 114.671C116.639 116.579 114.831 118.28 112.957 117.671L26.9032 89.7103C25.0287 89.1013 24.5657 86.6624 26.0866 85.4088L91.0562 31.8556Z" stroke="url(#paint5_linear_446_2420)" stroke-width="0.356713"/>
<path opacity="0.291667" d="M105.665 38.6682C107.376 38.0286 109.172 39.3821 109.029 41.2029L102.426 125.14C102.271 127.105 100.008 128.124 98.4338 126.938L26.1718 72.4847C24.5977 71.2985 24.954 68.8418 26.8001 68.1516L105.665 38.6682Z" stroke="url(#paint6_linear_446_2420)" stroke-width="0.356713"/>
<path opacity="0.333333" d="M117.266 49.8785C119.091 49.8307 120.349 51.6952 119.621 53.3702L86.0502 130.584C85.2644 132.392 82.7924 132.619 81.6902 130.985L31.0934 55.9721C29.9913 54.3381 31.128 52.1312 33.0983 52.0796L117.266 49.8785Z" stroke="url(#paint7_linear_446_2420)" stroke-width="0.356713"/>
<path opacity="0.375" d="M124.572 64.2554C126.314 64.8047 126.896 66.977 125.662 68.3237L68.7821 130.401C67.4506 131.855 65.0393 131.265 64.5292 129.361L41.1108 41.9621C40.6007 40.0584 42.3939 38.3417 44.2736 38.9345L124.572 64.2554Z" stroke="url(#paint8_linear_446_2420)" stroke-width="0.356713"/>
<path opacity="0.416667" d="M126.812 80.2191C128.28 81.3056 128.123 83.5491 126.518 84.4207L52.5263 124.598C50.7942 125.539 48.7063 124.196 48.8438 122.23L55.1555 31.9681C55.293 30.002 57.5474 28.9627 59.1318 30.1351L126.812 80.2191Z" stroke="url(#paint9_linear_446_2420)" stroke-width="0.356713"/>
<path opacity="0.458333" d="M123.722 96.0513C124.757 97.5566 123.878 99.6268 122.076 99.9283L39.0355 113.827C37.0916 114.153 35.5547 112.203 36.3248 110.389L71.6789 27.1001C72.449 25.2858 74.919 25.0372 76.0353 26.6615L123.722 96.0513Z" stroke="url(#paint10_linear_446_2420)" stroke-width="0.356713"/>
<path opacity="0.5" d="M115.647 110.015C116.135 111.775 114.63 113.447 112.829 113.145L29.7869 99.2518C27.843 98.9266 27.0245 96.5829 28.3433 95.1182L88.8875 27.8772C90.2063 26.4124 92.6226 26.9815 93.1493 28.8808L115.647 110.015Z" stroke="url(#paint11_linear_446_2420)" stroke-width="0.356713"/>
<path opacity="0.541667" d="M103.483 120.589C103.371 122.412 101.404 123.502 99.7993 122.63L25.805 82.458C24.0729 81.5176 24.062 79.0352 25.7858 78.0796L104.923 34.2132C106.647 33.2577 108.746 34.5824 108.626 36.5496L103.483 120.589Z" stroke="url(#paint12_linear_446_2420)" stroke-width="0.356713"/>
<path opacity="0.583333" d="M88.5268 126.613C87.8278 128.301 85.613 128.691 84.379 127.345L27.4949 65.2706C26.1633 63.8175 26.9612 61.4668 28.9022 61.1245L118.009 45.4125C119.95 45.0703 121.504 47.0063 120.75 48.8272L88.5268 126.613Z" stroke="url(#paint13_linear_446_2420)" stroke-width="0.356713"/>
<path opacity="0.625" d="M72.4203 127.45C71.21 128.817 68.9887 128.466 68.2604 126.791L34.6847 49.5789C33.8987 47.7715 35.4185 45.8086 37.3651 46.1169L126.733 60.2714C128.68 60.5797 129.518 62.9162 128.212 64.3923L72.4203 127.45Z" stroke="url(#paint14_linear_446_2420)" stroke-width="0.356713"/>
<path opacity="0.666667" d="M56.9174 123.003C55.3277 123.902 53.3419 122.846 53.1986 121.026L46.5898 37.0893C46.4351 35.1244 48.5111 33.7633 50.2513 34.6886L130.142 77.1672C131.882 78.0925 131.915 80.5748 130.199 81.5453L56.9174 123.003Z" stroke="url(#paint15_linear_446_2420)" stroke-width="0.356713"/>
<path opacity="0.708333" d="M43.7203 113.739C41.9245 114.072 40.3907 112.427 40.8479 110.659L61.9262 29.1441C62.4196 27.2359 64.8257 26.6248 66.1699 28.0663L127.878 94.2405C129.222 95.682 128.445 98.0395 126.507 98.3986L43.7203 113.739Z" stroke="url(#paint16_linear_446_2420)" stroke-width="0.356713"/>
<path opacity="0.75" d="M34.2506 100.694C32.4442 100.424 31.5294 98.3694 32.5375 96.8463L79.0061 26.6348C80.0938 24.9912 82.5678 25.1968 83.3694 26.9973L120.172 109.657C120.973 111.457 119.471 113.433 117.521 113.142L34.2506 100.694Z" stroke="url(#paint17_linear_446_2420)" stroke-width="0.356713"/>
<path opacity="0.791667" d="M29.5425 85.2709C27.9225 84.4275 27.7264 82.187 29.1754 81.0751L95.971 29.8175C97.5346 28.6176 99.8068 29.6174 99.9786 31.5809L107.865 121.718C108.036 123.682 105.972 125.061 104.224 124.151L29.5425 85.2709Z" stroke="url(#paint18_linear_446_2420)" stroke-width="0.356713"/>
<path opacity="0.833333" d="M30.1177 69.1504C28.8605 67.8255 29.4045 65.6433 31.1366 65.0637L110.981 38.3452C112.85 37.7197 114.673 39.4048 114.196 41.3172L92.3065 129.111C91.8297 131.024 89.4291 131.656 88.0724 130.226L30.1177 69.1504Z" stroke="url(#paint19_linear_446_2420)" stroke-width="0.356713"/>
<path opacity="0.875" d="M35.9008 54.1032C35.1434 52.4412 36.3683 50.555 38.1947 50.5709L122.388 51.3028C124.358 51.32 125.533 53.5067 124.46 55.1597L75.1801 131.044C74.1066 132.697 71.631 132.513 70.8137 130.72L35.9008 54.1032Z" stroke="url(#paint20_linear_446_2420)" stroke-width="0.356713"/>
<path opacity="0.916667" d="M46.2706 41.7487C46.0956 39.9307 47.8678 38.5461 49.5895 39.1557L128.957 67.2583C130.815 67.9161 131.214 70.3663 129.661 71.5797L58.3604 127.286C56.8073 128.499 54.5265 127.519 54.3376 125.557L46.2706 41.7487Z" stroke="url(#paint21_linear_446_2420)" stroke-width="0.356713"/>
<path opacity="0.958333" d="M60.0985 33.4596C60.5249 31.6836 62.6514 30.9514 64.0808 32.0884L129.975 84.4995C131.518 85.7264 131.097 88.173 129.234 88.8146L43.6815 118.273C41.8179 118.914 39.9804 117.245 40.4405 115.329L60.0985 33.4596Z" stroke="url(#paint22_linear_446_2420)" stroke-width="0.356713"/>
<path d="M75.8724 30.106C76.8538 28.5657 79.1027 28.5657 80.0842 30.106L125.325 101.115C126.384 102.777 125.19 104.953 123.219 104.953H32.7374C30.7664 104.953 29.5724 102.777 30.6315 101.115L75.8724 30.106Z" stroke="url(#paint23_linear_446_2420)" stroke-width="0.356713"/>
<path d="M77.5 69.1992C75.636 69.1992 74.125 70.7103 74.125 72.5742V78.1992C74.125 80.0632 75.636 81.5742 77.5 81.5742C79.364 81.5742 80.875 80.0632 80.875 78.1992V72.5742C80.875 70.7103 79.364 69.1992 77.5 69.1992ZM78.625 88.2624V90.0117C78.625 90.633 78.1213 91.1367 77.5 91.1367C76.8787 91.1367 76.375 90.633 76.375 90.0117V88.2624C71.3126 87.7028 67.375 83.4108 67.375 78.1992C67.375 77.5779 67.8787 77.0742 68.5 77.0742C69.1213 77.0742 69.625 77.5779 69.625 78.1992C69.625 82.5485 73.1508 86.0742 77.5 86.0742C81.8492 86.0742 85.375 82.5485 85.375 78.1992C85.375 77.5779 85.8787 77.0742 86.5 77.0742C87.1213 77.0742 87.625 77.5779 87.625 78.1992C87.625 83.4108 83.6874 87.7028 78.625 88.2624ZM77.5 66.9492C80.6066 66.9492 83.125 69.4676 83.125 72.5742V78.1992C83.125 81.3058 80.6066 83.8242 77.5 83.8242C74.3934 83.8242 71.875 81.3058 71.875 78.1992V72.5742C71.875 69.4676 74.3934 66.9492 77.5 66.9492Z" fill="#B5B5B5"/>
<defs>
<linearGradient id="paint0_linear_446_2420" x1="70.4892" y1="111.839" x2="85.9742" y2="44.7665" gradientUnits="userSpaceOnUse">
<stop stop-color="#F73C7A"/>
<stop offset="0.701667" stop-color="#E44A84"/>
<stop offset="1" stop-color="#00F0FF"/>
</linearGradient>
<linearGradient id="paint1_linear_446_2420" x1="60.1745" y1="107.61" x2="96.6525" y2="49.2325" gradientUnits="userSpaceOnUse">
<stop stop-color="#F73C7A"/>
<stop offset="0.701667" stop-color="#E44A84"/>
<stop offset="1" stop-color="#00F0FF"/>
</linearGradient>
<linearGradient id="paint2_linear_446_2420" x1="51.8034" y1="100.253" x2="105.3" y2="56.932" gradientUnits="userSpaceOnUse">
<stop stop-color="#F73C7A"/>
<stop offset="0.701667" stop-color="#E44A84"/>
<stop offset="1" stop-color="#00F0FF"/>
</linearGradient>
<linearGradient id="paint3_linear_446_2420" x1="46.2817" y1="90.575" x2="110.967" y2="67.0313" gradientUnits="userSpaceOnUse">
<stop stop-color="#F73C7A"/>
<stop offset="0.701667" stop-color="#E44A84"/>
<stop offset="1" stop-color="#00F0FF"/>
</linearGradient>
<linearGradient id="paint4_linear_446_2420" x1="44.2165" y1="79.6102" x2="113.043" y2="78.4089" gradientUnits="userSpaceOnUse">
<stop stop-color="#F73C7A"/>
<stop offset="0.701667" stop-color="#E44A84"/>
<stop offset="1" stop-color="#00F0FF"/>
</linearGradient>
<linearGradient id="paint5_linear_446_2420" x1="45.8296" y1="68.5912" x2="111.297" y2="89.863" gradientUnits="userSpaceOnUse">
<stop stop-color="#F73C7A"/>
<stop offset="0.701667" stop-color="#E44A84"/>
<stop offset="1" stop-color="#00F0FF"/>
</linearGradient>
<linearGradient id="paint6_linear_446_2420" x1="50.9428" y1="58.678" x2="105.918" y2="100.105" gradientUnits="userSpaceOnUse">
<stop stop-color="#F73C7A"/>
<stop offset="0.701667" stop-color="#E44A84"/>
<stop offset="1" stop-color="#00F0FF"/>
</linearGradient>
<linearGradient id="paint7_linear_446_2420" x1="59.0099" y1="50.9822" x2="97.503" y2="108.051" gradientUnits="userSpaceOnUse">
<stop stop-color="#F73C7A"/>
<stop offset="0.701667" stop-color="#E44A84"/>
<stop offset="1" stop-color="#00F0FF"/>
</linearGradient>
<linearGradient id="paint8_linear_446_2420" x1="69.1309" y1="46.3328" x2="86.9472" y2="112.824" gradientUnits="userSpaceOnUse">
<stop stop-color="#F73C7A"/>
<stop offset="0.701667" stop-color="#E44A84"/>
<stop offset="1" stop-color="#00F0FF"/>
</linearGradient>
<linearGradient id="paint9_linear_446_2420" x1="80.2261" y1="45.2231" x2="75.4242" y2="113.892" gradientUnits="userSpaceOnUse">
<stop stop-color="#F73C7A"/>
<stop offset="0.701667" stop-color="#E44A84"/>
<stop offset="1" stop-color="#00F0FF"/>
</linearGradient>
<linearGradient id="paint10_linear_446_2420" x1="91.0682" y1="47.7951" x2="64.1714" y2="111.16" gradientUnits="userSpaceOnUse">
<stop stop-color="#F73C7A"/>
<stop offset="0.701667" stop-color="#E44A84"/>
<stop offset="1" stop-color="#00F0FF"/>
</linearGradient>
<linearGradient id="paint11_linear_446_2420" x1="100.483" y1="53.7572" x2="54.4218" y2="104.913" gradientUnits="userSpaceOnUse">
<stop stop-color="#F73C7A"/>
<stop offset="0.701667" stop-color="#E44A84"/>
<stop offset="1" stop-color="#00F0FF"/>
</linearGradient>
<linearGradient id="paint12_linear_446_2420" x1="107.461" y1="62.4583" x2="47.2546" y2="95.8311" gradientUnits="userSpaceOnUse">
<stop stop-color="#F73C7A"/>
<stop offset="0.701667" stop-color="#E44A84"/>
<stop offset="1" stop-color="#00F0FF"/>
</linearGradient>
<linearGradient id="paint13_linear_446_2420" x1="111.213" y1="72.945" x2="43.422" y2="84.8984" gradientUnits="userSpaceOnUse">
<stop stop-color="#F73C7A"/>
<stop offset="0.701667" stop-color="#E44A84"/>
<stop offset="1" stop-color="#00F0FF"/>
</linearGradient>
<linearGradient id="paint14_linear_446_2420" x1="111.343" y1="84.0913" x2="43.3539" y2="73.3228" gradientUnits="userSpaceOnUse">
<stop stop-color="#F73C7A"/>
<stop offset="0.701667" stop-color="#E44A84"/>
<stop offset="1" stop-color="#00F0FF"/>
</linearGradient>
<linearGradient id="paint15_linear_446_2420" x1="107.836" y1="94.679" x2="47.0565" y2="62.362" gradientUnits="userSpaceOnUse">
<stop stop-color="#F73C7A"/>
<stop offset="0.701667" stop-color="#E44A84"/>
<stop offset="1" stop-color="#00F0FF"/>
</linearGradient>
<linearGradient id="paint16_linear_446_2420" x1="101.086" y1="103.536" x2="54.1394" y2="53.1919" gradientUnits="userSpaceOnUse">
<stop stop-color="#F73C7A"/>
<stop offset="0.701667" stop-color="#E44A84"/>
<stop offset="1" stop-color="#00F0FF"/>
</linearGradient>
<linearGradient id="paint17_linear_446_2420" x1="91.8129" y1="109.723" x2="63.8143" y2="46.8373" gradientUnits="userSpaceOnUse">
<stop stop-color="#F73C7A"/>
<stop offset="0.701667" stop-color="#E44A84"/>
<stop offset="1" stop-color="#00F0FF"/>
</linearGradient>
<linearGradient id="paint18_linear_446_2420" x1="81.0292" y1="112.548" x2="75.0296" y2="43.9734" gradientUnits="userSpaceOnUse">
<stop stop-color="#F73C7A"/>
<stop offset="0.701667" stop-color="#E44A84"/>
<stop offset="1" stop-color="#00F0FF"/>
</linearGradient>
<linearGradient id="paint19_linear_446_2420" x1="69.9185" y1="111.704" x2="86.5717" y2="44.912" gradientUnits="userSpaceOnUse">
<stop stop-color="#F73C7A"/>
<stop offset="0.701667" stop-color="#E44A84"/>
<stop offset="1" stop-color="#00F0FF"/>
</linearGradient>
<linearGradient id="paint20_linear_446_2420" x1="59.6791" y1="107.297" x2="97.1704" y2="49.5651" gradientUnits="userSpaceOnUse">
<stop stop-color="#F73C7A"/>
<stop offset="0.701667" stop-color="#E44A84"/>
<stop offset="1" stop-color="#00F0FF"/>
</linearGradient>
<linearGradient id="paint21_linear_446_2420" x1="51.4353" y1="99.7855" x2="105.68" y2="57.4052" gradientUnits="userSpaceOnUse">
<stop stop-color="#F73C7A"/>
<stop offset="0.701667" stop-color="#E44A84"/>
<stop offset="1" stop-color="#00F0FF"/>
</linearGradient>
<linearGradient id="paint22_linear_446_2420" x1="46.0869" y1="90.0159" x2="111.174" y2="67.6048" gradientUnits="userSpaceOnUse">
<stop stop-color="#F73C7A"/>
<stop offset="0.701667" stop-color="#E44A84"/>
<stop offset="1" stop-color="#00F0FF"/>
</linearGradient>
<linearGradient id="paint23_linear_446_2420" x1="44.2112" y1="79.0194" x2="113.048" y2="79.0194" gradientUnits="userSpaceOnUse">
<stop stop-color="#F73C7A"/>
<stop offset="0.701667" stop-color="#E44A84"/>
<stop offset="1" stop-color="#00F0FF"/>
</linearGradient>
</defs>
</svg>
