<svg width="32" height="34" viewBox="0 0 32 34" fill="none" xmlns="http://www.w3.org/2000/svg">
<rect x="0.0224609" y="0.119629" width="31.8985" height="32.9832" rx="15.9492" fill="#EB5545"/>
<path d="M15.9716 11.6977C13.0825 11.7046 10.3244 12.3252 8.92471 13.7249C8.29035 14.3593 7.96628 15.1246 7.99386 16.0486C8.01455 16.5657 8.15935 17.0898 8.49032 17.4207C8.71786 17.6552 9.04193 17.7862 9.44185 17.7172L11.9862 17.2828C12.324 17.2208 12.5792 17.1104 12.7584 16.9381C12.9791 16.7312 13.0618 16.4002 13.0618 15.9521L13.0756 15.2556C13.0756 15.1453 13.117 15.0626 13.1859 14.9936C13.248 14.9178 13.3445 14.8833 13.4204 14.8626C13.8617 14.7454 14.8063 14.6213 15.9716 14.6213C17.1369 14.6213 18.0746 14.7178 18.5228 14.8695C18.5987 14.8902 18.6814 14.9316 18.7435 14.9936C18.8124 15.0557 18.8469 15.1315 18.8469 15.235L18.8676 15.9521C18.8814 16.4002 18.971 16.7243 19.1848 16.9381C19.364 17.1173 19.6192 17.2208 19.9639 17.2828L22.4324 17.7034C22.853 17.7793 23.1978 17.6345 23.4598 17.3794C23.7632 17.0691 23.9424 16.5864 23.9493 16.021C23.9631 15.097 23.6115 14.3386 22.9909 13.7249C21.5912 12.3252 18.8607 11.6908 15.9716 11.6977Z" fill="white"/>
</svg>
