<svg width="58" height="57" viewBox="0 0 58 57" fill="none" xmlns="http://www.w3.org/2000/svg">
<path opacity="0.0416667" d="M13.0141 26.2139C11.9862 25.1677 12.3924 23.4081 13.7749 22.9185L38.615 14.1212C40.1069 13.5929 41.5941 14.9202 41.2381 16.4623L34.8677 44.0557C34.5116 45.5978 32.5931 46.1388 31.4838 45.01L13.0141 26.2139Z" stroke="url(#paint0_linear_615_3594)" stroke-width="0.28644"/>
<path opacity="0.0833333" d="M14.5182 21.1252C13.8868 19.8014 14.8438 18.2699 16.3104 18.2571L42.6613 18.0262C44.2439 18.0124 45.2179 19.7516 44.3792 21.0937L29.3724 45.1098C28.5337 46.452 26.5435 46.3389 25.8622 44.9104L14.5182 21.1252Z" stroke="url(#paint1_linear_615_3594)" stroke-width="0.28644"/>
<path opacity="0.125" d="M17.5979 16.8005C17.4319 15.3433 18.8354 14.2068 20.2263 14.6721L45.2167 23.0328C46.7176 23.535 47.0723 25.4965 45.8423 26.4926L23.8342 44.3144C22.6042 45.3104 20.7593 44.5556 20.5802 42.9831L17.5979 16.8005Z" stroke="url(#paint2_linear_615_3594)" stroke-width="0.28644"/>
<path opacity="0.166667" d="M21.9176 13.7156C22.2351 12.2837 23.9321 11.6661 25.0957 12.5589L46.0026 28.6002C47.2582 29.5636 46.955 31.5338 45.4678 32.0751L18.8565 41.7608C17.3692 42.3022 15.8705 40.9878 16.2131 39.4426L21.9176 13.7156Z" stroke="url(#paint3_linear_615_3594)" stroke-width="0.28644"/>
<path opacity="0.208333" d="M27.0063 12.2027C27.7726 10.9522 29.5783 10.9207 30.3878 12.1437L44.9331 34.1177C45.8067 35.4374 44.8786 37.2016 43.2961 37.2292L14.9813 37.7234C13.3988 37.751 12.4097 36.0204 13.2367 34.6709L27.0063 12.2027Z" stroke="url(#paint4_linear_615_3594)" stroke-width="0.28644"/>
<path opacity="0.25" d="M32.3122 12.4355C33.4439 11.5026 35.1614 12.0607 35.5287 13.4806L42.1275 38.9929C42.5239 40.5251 41.072 41.891 39.5668 41.4019L12.6336 32.6508C11.1284 32.1617 10.7566 30.2033 11.9779 29.1966L32.3122 12.4355Z" stroke="url(#paint5_linear_615_3594)" stroke-width="0.28644"/>
<path opacity="0.291667" d="M37.2502 14.372C38.624 13.8584 40.0663 14.9453 39.9513 16.4074L37.8846 42.6781C37.7605 44.2559 35.943 45.0747 34.679 44.1222L12.0623 27.0793C10.7983 26.1268 11.0844 24.154 12.5668 23.5998L37.2502 14.372Z" stroke="url(#paint6_linear_615_3594)" stroke-width="0.28644"/>
<path opacity="0.333333" d="M41.2927 17.8201C42.7588 17.7817 43.7687 19.2789 43.1839 20.6239L32.6769 44.7905C32.0459 46.242 30.0609 46.4244 29.1758 45.1123L13.3399 21.6346C12.4549 20.3225 13.3677 18.5504 14.9498 18.509L41.2927 17.8201Z" stroke="url(#paint7_linear_615_3594)" stroke-width="0.28644"/>
<path opacity="0.375" d="M43.9869 22.3926C45.3857 22.8337 45.8531 24.5781 44.8623 25.6594L27.0598 45.0887C25.9906 46.2556 24.0544 45.7818 23.6447 44.2531L16.3152 16.8988C15.9056 15.3701 17.3455 13.9916 18.8549 14.4676L43.9869 22.3926Z" stroke="url(#paint8_linear_615_3594)" stroke-width="0.28644"/>
<path opacity="0.416667" d="M45.0492 27.5945C46.2281 28.4669 46.1021 30.2684 44.8133 30.9683L21.6552 43.5431C20.2643 44.2983 18.5878 43.22 18.6982 41.6412L20.6736 13.3909C20.784 11.8121 22.5943 10.9776 23.8666 11.919L45.0492 27.5945Z" stroke="url(#paint9_linear_615_3594)" stroke-width="0.28644"/>
<path opacity="0.458333" d="M44.3579 32.8586C45.1886 34.0673 44.483 35.7297 43.0364 35.9718L17.0461 40.322C15.4851 40.5833 14.251 39.0178 14.8694 37.561L25.9346 11.493C26.553 10.0362 28.5364 9.83648 29.4328 11.1408L44.3579 32.8586Z" stroke="url(#paint10_linear_615_3594)" stroke-width="0.28644"/>
<path opacity="0.5" d="M41.9911 37.6123C42.383 39.0256 41.1746 40.3677 39.728 40.1257L13.7374 35.7772C12.1764 35.5161 11.5192 33.6341 12.5782 32.458L31.5274 11.4127C32.5865 10.2366 34.5268 10.6935 34.9497 12.2186L41.9911 37.6123Z" stroke="url(#paint11_linear_615_3594)" stroke-width="0.28644"/>
<path opacity="0.541667" d="M38.2104 41.3344C38.1208 42.7983 36.5413 43.6738 35.2524 42.974L12.0935 30.4008C10.7026 29.6456 10.6938 27.6523 12.0781 26.885L36.8466 13.1555C38.2308 12.3883 39.9167 13.452 39.82 15.0317L38.2104 41.3344Z" stroke="url(#paint12_linear_615_3594)" stroke-width="0.28644"/>
<path opacity="0.583333" d="M33.4198 43.6223C32.8585 44.9773 31.08 45.2909 30.0891 44.2096L12.2854 24.7816C11.2161 23.6147 11.8568 21.7271 13.4154 21.4523L41.3044 16.5347C42.863 16.2599 44.1107 17.8145 43.505 19.2767L33.4198 43.6223Z" stroke="url(#paint13_linear_615_3594)" stroke-width="0.28644"/>
<path opacity="0.625" d="M28.145 44.2241C27.1731 45.3225 25.3894 45.04 24.8046 43.695L14.296 19.5291C13.6648 18.0777 14.8852 16.5015 16.4484 16.7491L44.4189 21.1792C45.9821 21.4268 46.6557 23.3029 45.607 24.4882L28.145 44.2241Z" stroke="url(#paint14_linear_615_3594)" stroke-width="0.28644"/>
<path opacity="0.666667" d="M22.9589 43.0803C21.6824 43.8025 20.0879 42.9547 19.9728 41.4926L17.9043 15.222C17.7801 13.6442 19.4471 12.5512 20.8446 13.2942L45.8489 26.5893C47.2463 27.3323 47.2724 29.3255 45.8949 30.1048L22.9589 43.0803Z" stroke="url(#paint15_linear_615_3594)" stroke-width="0.28644"/>
<path opacity="0.708333" d="M18.4337 40.3082C16.9916 40.5754 15.7599 39.2547 16.1271 37.8347L22.7243 12.322C23.1205 10.7897 25.0525 10.299 26.1319 11.4565L45.4455 32.1678C46.5249 33.3253 45.9006 35.2185 44.3445 35.5068L18.4337 40.3082Z" stroke="url(#paint16_linear_615_3594)" stroke-width="0.28644"/>
<path opacity="0.75" d="M15.0542 36.2152C13.6036 35.9984 12.8691 34.3486 13.6786 33.1256L28.2224 11.1506C29.0959 9.83082 31.0824 9.99585 31.7262 11.4417L43.2446 37.3126C43.8884 38.7584 42.6817 40.3451 41.1165 40.1112L15.0542 36.2152Z" stroke="url(#paint17_linear_615_3594)" stroke-width="0.28644"/>
<path opacity="0.791667" d="M13.193 31.243C11.8921 30.5658 11.7347 28.7667 12.8982 27.8739L33.804 11.8311C35.0596 10.8676 36.8842 11.6704 37.0221 13.2471L39.4903 41.4585C39.6283 43.0352 37.9708 44.1426 36.567 43.4118L13.193 31.243Z" stroke="url(#paint18_linear_615_3594)" stroke-width="0.28644"/>
<path opacity="0.833333" d="M13.0524 25.9353C12.0428 24.8714 12.4797 23.1191 13.8706 22.6537L38.8604 14.2913C40.3613 13.7891 41.8251 15.1422 41.4422 16.6778L34.5912 44.1558C34.2083 45.6915 32.2806 46.199 31.1912 45.0509L13.0524 25.9353Z" stroke="url(#paint19_linear_615_3594)" stroke-width="0.28644"/>
<path opacity="0.875" d="M14.6442 20.8715C14.0361 19.5369 15.0196 18.0223 16.4862 18.0351L42.8371 18.2642C44.4197 18.2779 45.3633 20.0339 44.5013 21.3612L29.0775 45.1117C28.2156 46.439 26.2276 46.2913 25.5714 44.8511L14.6442 20.8715Z" stroke="url(#paint20_linear_615_3594)" stroke-width="0.28644"/>
<path opacity="0.916667" d="M17.7977 16.602C17.6571 15.1421 19.0802 14.0303 20.4628 14.5198L45.3034 23.3154C46.7954 23.8437 47.1158 25.8112 45.8686 26.7855L23.5528 44.2206C22.3057 45.195 20.4741 44.4081 20.3225 42.8327L17.7977 16.602Z" stroke="url(#paint21_linear_615_3594)" stroke-width="0.28644"/>
<path opacity="0.958333" d="M22.1727 13.5951C22.5151 12.1689 24.2227 11.581 25.3705 12.494L45.9942 28.8977C47.2329 29.8829 46.8953 31.8475 45.3989 32.3628L18.6226 41.5826C17.1261 42.0979 15.6506 40.7576 16.0201 39.2186L22.1727 13.5951Z" stroke="url(#paint22_linear_615_3594)" stroke-width="0.28644"/>
<path d="M27.2863 12.1707C28.0744 10.9338 29.8803 10.9338 30.6684 12.1707L44.828 34.3952C45.6784 35.73 44.7196 37.4777 43.137 37.4777H14.8178C13.2351 37.4777 12.2763 35.73 13.1267 34.3952L27.2863 12.1707Z" stroke="url(#paint23_linear_615_3594)" stroke-width="0.28644"/>
<defs>
<linearGradient id="paint0_linear_615_3594" x1="26.2764" y1="40.0391" x2="31.8613" y2="15.8484" gradientUnits="userSpaceOnUse">
<stop stop-color="#F73C7A"/>
<stop offset="0.531667" stop-color="#DA518A"/>
<stop offset="1" stop-color="#00F0FF"/>
</linearGradient>
<linearGradient id="paint1_linear_615_3594" x1="22.5569" y1="38.515" x2="35.7132" y2="17.4605" gradientUnits="userSpaceOnUse">
<stop stop-color="#F73C7A"/>
<stop offset="0.531667" stop-color="#DA518A"/>
<stop offset="1" stop-color="#00F0FF"/>
</linearGradient>
<linearGradient id="paint2_linear_615_3594" x1="19.5371" y1="35.86" x2="38.8313" y2="20.2358" gradientUnits="userSpaceOnUse">
<stop stop-color="#F73C7A"/>
<stop offset="0.531667" stop-color="#DA518A"/>
<stop offset="1" stop-color="#00F0FF"/>
</linearGradient>
<linearGradient id="paint3_linear_615_3594" x1="17.546" y1="32.368" x2="40.8757" y2="23.8767" gradientUnits="userSpaceOnUse">
<stop stop-color="#F73C7A"/>
<stop offset="0.531667" stop-color="#DA518A"/>
<stop offset="1" stop-color="#00F0FF"/>
</linearGradient>
<linearGradient id="paint4_linear_615_3594" x1="16.8002" y1="28.4157" x2="41.6233" y2="27.9824" gradientUnits="userSpaceOnUse">
<stop stop-color="#F73C7A"/>
<stop offset="0.531667" stop-color="#DA518A"/>
<stop offset="1" stop-color="#00F0FF"/>
</linearGradient>
<linearGradient id="paint5_linear_615_3594" x1="17.3837" y1="24.4423" x2="40.9956" y2="32.1143" gradientUnits="userSpaceOnUse">
<stop stop-color="#F73C7A"/>
<stop offset="0.531667" stop-color="#DA518A"/>
<stop offset="1" stop-color="#00F0FF"/>
</linearGradient>
<linearGradient id="paint6_linear_615_3594" x1="19.226" y1="20.8645" x2="39.0537" y2="35.8057" gradientUnits="userSpaceOnUse">
<stop stop-color="#F73C7A"/>
<stop offset="0.531667" stop-color="#DA518A"/>
<stop offset="1" stop-color="#00F0FF"/>
</linearGradient>
<linearGradient id="paint7_linear_615_3594" x1="22.1367" y1="18.0907" x2="36.0198" y2="38.6732" gradientUnits="userSpaceOnUse">
<stop stop-color="#F73C7A"/>
<stop offset="0.531667" stop-color="#DA518A"/>
<stop offset="1" stop-color="#00F0FF"/>
</linearGradient>
<linearGradient id="paint8_linear_615_3594" x1="25.7865" y1="16.4119" x2="32.2122" y2="40.393" gradientUnits="userSpaceOnUse">
<stop stop-color="#F73C7A"/>
<stop offset="0.531667" stop-color="#DA518A"/>
<stop offset="1" stop-color="#00F0FF"/>
</linearGradient>
<linearGradient id="paint9_linear_615_3594" x1="29.7874" y1="16.0141" x2="28.0556" y2="40.7806" gradientUnits="userSpaceOnUse">
<stop stop-color="#F73C7A"/>
<stop offset="0.531667" stop-color="#DA518A"/>
<stop offset="1" stop-color="#00F0FF"/>
</linearGradient>
<linearGradient id="paint10_linear_615_3594" x1="33.6978" y1="16.9405" x2="23.9972" y2="39.7938" gradientUnits="userSpaceOnUse">
<stop stop-color="#F73C7A"/>
<stop offset="0.531667" stop-color="#DA518A"/>
<stop offset="1" stop-color="#00F0FF"/>
</linearGradient>
<linearGradient id="paint11_linear_615_3594" x1="37.0942" y1="19.0908" x2="20.4817" y2="37.5409" gradientUnits="userSpaceOnUse">
<stop stop-color="#F73C7A"/>
<stop offset="0.531667" stop-color="#DA518A"/>
<stop offset="1" stop-color="#00F0FF"/>
</linearGradient>
<linearGradient id="paint12_linear_615_3594" x1="39.6103" y1="22.2277" x2="17.8962" y2="34.2641" gradientUnits="userSpaceOnUse">
<stop stop-color="#F73C7A"/>
<stop offset="0.531667" stop-color="#DA518A"/>
<stop offset="1" stop-color="#00F0FF"/>
</linearGradient>
<linearGradient id="paint13_linear_615_3594" x1="40.964" y1="26.0124" x2="16.5142" y2="30.3236" gradientUnits="userSpaceOnUse">
<stop stop-color="#F73C7A"/>
<stop offset="0.531667" stop-color="#DA518A"/>
<stop offset="1" stop-color="#00F0FF"/>
</linearGradient>
<linearGradient id="paint14_linear_615_3594" x1="41.0114" y1="30.0297" x2="16.4901" y2="26.1459" gradientUnits="userSpaceOnUse">
<stop stop-color="#F73C7A"/>
<stop offset="0.531667" stop-color="#DA518A"/>
<stop offset="1" stop-color="#00F0FF"/>
</linearGradient>
<linearGradient id="paint15_linear_615_3594" x1="39.7456" y1="33.8482" x2="17.8247" y2="22.1926" gradientUnits="userSpaceOnUse">
<stop stop-color="#F73C7A"/>
<stop offset="0.531667" stop-color="#DA518A"/>
<stop offset="1" stop-color="#00F0FF"/>
</linearGradient>
<linearGradient id="paint16_linear_615_3594" x1="37.3115" y1="37.0442" x2="20.3795" y2="18.8869" gradientUnits="userSpaceOnUse">
<stop stop-color="#F73C7A"/>
<stop offset="0.531667" stop-color="#DA518A"/>
<stop offset="1" stop-color="#00F0FF"/>
</linearGradient>
<linearGradient id="paint17_linear_615_3594" x1="33.9661" y1="39.2751" x2="23.8681" y2="16.5945" gradientUnits="userSpaceOnUse">
<stop stop-color="#F73C7A"/>
<stop offset="0.531667" stop-color="#DA518A"/>
<stop offset="1" stop-color="#00F0FF"/>
</linearGradient>
<linearGradient id="paint18_linear_615_3594" x1="30.0784" y1="40.2933" x2="27.9146" y2="15.5608" gradientUnits="userSpaceOnUse">
<stop stop-color="#F73C7A"/>
<stop offset="0.531667" stop-color="#DA518A"/>
<stop offset="1" stop-color="#00F0FF"/>
</linearGradient>
<linearGradient id="paint19_linear_615_3594" x1="26.0713" y1="39.9899" x2="32.0775" y2="15.9004" gradientUnits="userSpaceOnUse">
<stop stop-color="#F73C7A"/>
<stop offset="0.531667" stop-color="#DA518A"/>
<stop offset="1" stop-color="#00F0FF"/>
</linearGradient>
<linearGradient id="paint20_linear_615_3594" x1="22.3782" y1="38.3989" x2="35.8999" y2="17.5773" gradientUnits="userSpaceOnUse">
<stop stop-color="#F73C7A"/>
<stop offset="0.531667" stop-color="#DA518A"/>
<stop offset="1" stop-color="#00F0FF"/>
</linearGradient>
<linearGradient id="paint21_linear_615_3594" x1="19.4039" y1="35.6924" x2="38.9678" y2="20.4074" gradientUnits="userSpaceOnUse">
<stop stop-color="#F73C7A"/>
<stop offset="0.531667" stop-color="#DA518A"/>
<stop offset="1" stop-color="#00F0FF"/>
</linearGradient>
<linearGradient id="paint22_linear_615_3594" x1="17.4762" y1="32.1683" x2="40.9506" y2="24.0855" gradientUnits="userSpaceOnUse">
<stop stop-color="#F73C7A"/>
<stop offset="0.531667" stop-color="#DA518A"/>
<stop offset="1" stop-color="#00F0FF"/>
</linearGradient>
<linearGradient id="paint23_linear_615_3594" x1="16.7988" y1="28.2031" x2="41.6258" y2="28.2031" gradientUnits="userSpaceOnUse">
<stop stop-color="#F73C7A"/>
<stop offset="0.531667" stop-color="#DA518A"/>
<stop offset="1" stop-color="#00F0FF"/>
</linearGradient>
</defs>
</svg>
