<svg width="58" height="59" viewBox="0 0 58 59" fill="none" xmlns="http://www.w3.org/2000/svg">
<rect y="0.015625" width="58" height="58" rx="5.91837" fill="#F80759" fill-opacity="0.1"/>
<mask id="mask0_595_5419" style="mask-type:alpha" maskUnits="userSpaceOnUse" x="9" y="9" width="40" height="41">
<rect x="9" y="9.49219" width="40" height="40" fill="#D9D9D9"/>
</mask>
<g mask="url(#mask0_595_5419)">
<path d="M21.1809 46.9922C20.3498 46.9922 19.6398 46.6979 19.0509 46.1093C18.4623 45.5204 18.168 44.8104 18.168 43.9793V15.0051C18.168 14.174 18.4623 13.464 19.0509 12.8751C19.6398 12.2865 20.3498 11.9922 21.1809 11.9922H36.8217C37.6528 11.9922 38.3628 12.2865 38.9517 12.8751C39.5403 13.464 39.8346 14.174 39.8346 15.0051V21.0947H37.3346V19.0755H20.668V39.9089H37.3346V37.8897H39.8346V43.9793C39.8346 44.8104 39.5403 45.5204 38.9517 46.1093C38.3628 46.6979 37.6528 46.9922 36.8217 46.9922H21.1809ZM20.668 42.4089V43.9793C20.668 44.1076 20.7214 44.2251 20.8284 44.3318C20.9351 44.4387 21.0526 44.4922 21.1809 44.4922H36.8217C36.9501 44.4922 37.0676 44.4387 37.1742 44.3318C37.2812 44.2251 37.3346 44.1076 37.3346 43.9793V42.4089H20.668ZM37.3346 35.4539L37.1488 33.723C36.8196 33.6397 36.537 33.528 36.3009 33.388C36.0648 33.248 35.8474 33.068 35.6488 32.848L34.0846 33.5689L32.8346 31.3897L34.213 30.3639C34.1146 30.0455 34.0655 29.7464 34.0655 29.4664C34.0655 29.1866 34.1146 28.8876 34.213 28.5693L32.8346 27.5434L34.1359 25.4155L35.6488 26.0851C35.8474 25.882 36.0648 25.7148 36.3009 25.5834C36.537 25.452 36.8196 25.3447 37.1488 25.2614L37.3346 23.5305H39.8346L40.0205 25.2614C40.3496 25.3447 40.6323 25.452 40.8684 25.5834C41.1045 25.7148 41.3219 25.882 41.5205 26.0851L43.0334 25.4155L44.3346 27.5434L42.9563 28.5693C43.0546 28.8876 43.1038 29.1866 43.1038 29.4664C43.1038 29.7464 43.0546 30.0455 42.9563 30.3639L44.3346 31.3897L43.0846 33.5689L41.5205 32.848C41.3219 33.068 41.1045 33.248 40.8684 33.388C40.6323 33.528 40.3496 33.6397 40.0205 33.723L39.8346 35.4539H37.3346ZM38.5846 32.0243C39.3069 32.0243 39.9094 31.7827 40.3921 31.2997C40.8752 30.8169 41.1167 30.2144 41.1167 29.4922C41.1167 28.77 40.8752 28.1675 40.3921 27.6847C39.9094 27.2016 39.3069 26.9601 38.5846 26.9601C37.8624 26.9601 37.2598 27.2016 36.7767 27.6847C36.2939 28.1675 36.0526 28.77 36.0526 29.4922C36.0526 30.2144 36.2939 30.8169 36.7767 31.2997C37.2598 31.7827 37.8624 32.0243 38.5846 32.0243ZM20.668 16.5755H37.3346V15.0051C37.3346 14.8768 37.2812 14.7593 37.1742 14.6526C37.0676 14.5457 36.9501 14.4922 36.8217 14.4922H21.1809C21.0526 14.4922 20.9351 14.5457 20.8284 14.6526C20.7214 14.7593 20.668 14.8768 20.668 15.0051V16.5755Z" fill="#F80759"/>
</g>
</svg>
