<svg width="595" height="322" viewBox="0 0 595 322" fill="none" xmlns="http://www.w3.org/2000/svg">
<g clip-path="url(#clip0_501_1927)">
<rect x="0.5" y="0.953125" width="594" height="321" rx="10" fill="#161616"/>
<path opacity="0.17" d="M423.398 416.373L622.175 299.938C632.71 293.768 632.607 278.529 621.99 272.502L478.374 190.078C474.37 187.806 469.838 186.626 465.232 186.657C460.627 186.688 456.11 187.929 452.138 190.255L242.727 312.912C235.001 317.436 235.078 328.612 242.864 333.031L388.503 416.613C393.828 419.637 399.857 421.206 405.983 421.164C412.109 421.122 418.115 419.469 423.398 416.373Z" fill="#473057"/>
<path d="M434.412 277.918L406.129 392.662C412.2 392.582 418.147 390.934 423.392 387.879L622.191 271.444C627.156 268.554 629.659 263.643 629.918 258.602H629.961V253.16L434.412 277.918Z" fill="#FCC5D7"/>
<path d="M236.996 286.404V293.095H237.167C236.649 297.49 238.506 302.059 242.865 304.559L388.516 388.141C393.879 391.186 399.96 392.748 406.13 392.666L434.413 277.922L236.996 286.404Z" fill="#F6A5C7"/>
<path d="M423.399 379.69L622.176 263.254C632.711 257.085 632.608 241.845 621.99 235.819L478.375 153.395C474.371 151.122 469.838 149.942 465.233 149.973C460.627 150.004 456.111 151.245 452.139 153.572L242.728 276.227C235.002 280.752 235.077 291.927 242.865 296.347L388.504 379.93C393.829 382.953 399.858 384.523 405.983 384.48C412.109 384.438 418.116 382.786 423.399 379.69Z" fill="url(#paint0_linear_501_1927)"/>
<path d="M469.758 198.311V251.132L530.579 216.54V162.662L500.673 160.762L469.758 198.311Z" fill="url(#paint1_linear_501_1927)"/>
<path d="M466.607 202.14V193.504L498.713 153.781L532.933 156.851V162.811L500.673 160.763L466.607 202.14Z" fill="url(#paint2_linear_501_1927)"/>
<path d="M389.938 157.434V148.799L422.043 109.074L456.262 112.145V118.669L423.1 115.983L389.938 157.434Z" fill="url(#paint3_linear_501_1927)"/>
<path d="M532.934 156.851L456.262 112.145L422.043 109.074L498.713 153.782L532.934 156.851Z" fill="url(#paint4_linear_501_1927)"/>
<path d="M389.938 148.799L466.608 193.505L498.713 153.782L422.043 109.074L389.938 148.799Z" fill="url(#paint5_linear_501_1927)"/>
<path d="M389.938 157.432V148.797L466.608 193.503V202.138L389.938 157.432Z" fill="#473057"/>
<path d="M393.998 159.801L466.608 202.138L469.759 198.31V251.131L393.998 208.697V159.801Z" fill="url(#paint6_linear_501_1927)"/>
<path d="M478.25 246.118L498.346 234.687V196.609L478.25 208.04V246.118Z" fill="url(#paint7_linear_501_1927)"/>
<path d="M495.711 198.109V233.278L498.346 234.687V196.609L495.711 198.109Z" fill="#966A83"/>
<path d="M495.711 233.277L478.25 243.038V246.117L498.346 234.686L495.711 233.277Z" fill="url(#paint8_linear_501_1927)"/>
<path d="M480.938 218.94L493.588 211.702V202.539L480.938 209.776V218.94Z" fill="#473057"/>
<path d="M492.375 203.233V211.231L493.587 211.702V202.539L492.375 203.233Z" fill="#5B1B4D"/>
<path d="M492.376 211.23L480.938 217.785V218.94L493.588 211.702L492.376 211.23Z" fill="url(#paint9_linear_501_1927)"/>
<path d="M508.516 190.593L525.949 180.621V211.453L508.516 221.425V190.593Z" fill="url(#paint10_linear_501_1927)"/>
<path d="M510.164 218.588L524.3 210.5V183.461L510.164 191.547V218.588Z" fill="url(#paint11_linear_501_1927)"/>
<path d="M522.164 184.682V209.668L524.3 210.5V183.461L522.164 184.682Z" fill="#5B1B4D"/>
<path d="M522.164 209.668L510.164 215.962V218.588L524.3 210.501L522.164 209.668Z" fill="url(#paint12_linear_501_1927)"/>
<path d="M517.232 187.259V215.358L518.067 214.83V186.383L517.232 187.259Z" fill="url(#paint13_linear_501_1927)"/>
<path d="M509.834 200.101L524.631 191.637V192.402L509.834 200.868V200.101Z" fill="url(#paint14_linear_501_1927)"/>
<path d="M509.834 211L524.631 202.535V203.302L509.834 211.766V211Z" fill="url(#paint15_linear_501_1927)"/>
<path d="M436.989 192.105L419.557 182.133V212.963L436.989 222.935V192.105Z" fill="url(#paint16_linear_501_1927)"/>
<path d="M435.341 220.096L421.203 212.008V184.969L435.341 193.056V220.096Z" fill="url(#paint17_linear_501_1927)"/>
<path d="M423.339 186.191V211.176L421.203 212.008V184.969L423.339 186.191Z" fill="#5B1B4D"/>
<path d="M423.339 211.176L435.341 217.471V220.096L421.203 212.008L423.339 211.176Z" fill="url(#paint18_linear_501_1927)"/>
<path d="M428.273 188.767V216.867L427.438 216.339V187.891L428.273 188.767Z" fill="url(#paint19_linear_501_1927)"/>
<path d="M435.671 201.615L420.875 193.148V193.915L435.671 202.38V201.615Z" fill="url(#paint20_linear_501_1927)"/>
<path d="M435.671 212.509L420.875 204.043V204.81L435.671 213.274V212.509Z" fill="url(#paint21_linear_501_1927)"/>
<path d="M365.484 256.848V309.669L426.305 275.076V221.197L396.399 219.297L365.484 256.848Z" fill="url(#paint22_linear_501_1927)"/>
<path d="M362.332 260.676V252.04L394.437 212.316L428.658 215.388V221.348L396.398 219.298L362.332 260.676Z" fill="url(#paint23_linear_501_1927)"/>
<path d="M285.66 215.968V207.333L317.765 167.609L351.986 170.679V177.204L318.824 174.518L285.66 215.968Z" fill="url(#paint24_linear_501_1927)"/>
<path d="M428.658 215.386L351.986 170.679L317.766 167.609L394.438 212.315L428.658 215.386Z" fill="url(#paint25_linear_501_1927)"/>
<path d="M285.66 207.333L362.332 252.039L394.438 212.315L317.765 167.609L285.66 207.333Z" fill="url(#paint26_linear_501_1927)"/>
<path d="M285.66 215.967V207.332L362.332 252.038V260.675L285.66 215.967Z" fill="#473057"/>
<path d="M289.723 218.336L362.332 260.675L365.483 256.847V309.668L289.723 267.234V218.336Z" fill="url(#paint27_linear_501_1927)"/>
<path d="M373.977 304.651L394.072 293.222V255.145L373.977 266.574V304.651Z" fill="url(#paint28_linear_501_1927)"/>
<path d="M391.438 256.644V291.811L394.072 293.222V255.145L391.438 256.644Z" fill="#966A83"/>
<path d="M391.438 291.812L373.977 301.575V304.653L394.072 293.223L391.438 291.812Z" fill="url(#paint29_linear_501_1927)"/>
<path d="M376.662 277.477L389.312 270.242V261.078L376.662 268.315V277.477Z" fill="#473057"/>
<path d="M388.102 261.772V269.768L389.313 270.242V261.078L388.102 261.772Z" fill="#5B1B4D"/>
<path d="M388.101 269.766L376.662 276.322V277.475L389.312 270.239L388.101 269.766Z" fill="url(#paint30_linear_501_1927)"/>
<path d="M404.24 249.132L421.674 239.16V269.991L404.24 279.962V249.132Z" fill="url(#paint31_linear_501_1927)"/>
<path d="M405.889 277.123L420.025 269.035V241.996L405.889 250.084V277.123Z" fill="url(#paint32_linear_501_1927)"/>
<path d="M417.889 243.218V268.204L420.025 269.035V241.996L417.889 243.218Z" fill="#5B1B4D"/>
<path d="M417.889 268.203L405.889 274.497V277.122L420.025 269.034L417.889 268.203Z" fill="url(#paint33_linear_501_1927)"/>
<path d="M412.957 245.794V273.895L413.791 273.366V244.918L412.957 245.794Z" fill="url(#paint34_linear_501_1927)"/>
<path d="M405.559 258.638L420.356 250.172V250.938L405.559 259.403V258.638Z" fill="url(#paint35_linear_501_1927)"/>
<path d="M405.559 269.536L420.356 261.07V261.837L405.559 270.303V269.536Z" fill="url(#paint36_linear_501_1927)"/>
<path d="M332.713 250.64L315.281 240.668V271.5L332.713 281.472V250.64Z" fill="url(#paint37_linear_501_1927)"/>
<path d="M331.065 278.633L316.928 270.545V243.504L331.065 251.592V278.633Z" fill="url(#paint38_linear_501_1927)"/>
<path d="M319.064 244.726V269.712L316.928 270.545V243.504L319.064 244.726Z" fill="#5B1B4D"/>
<path d="M319.064 269.715L331.065 276.008V278.635L316.928 270.547L319.064 269.715Z" fill="url(#paint39_linear_501_1927)"/>
<path d="M323.996 247.302V275.401L323.162 274.873V246.426L323.996 247.302Z" fill="url(#paint40_linear_501_1927)"/>
<path d="M331.395 260.148L316.598 251.684V252.449L331.395 260.915V260.148Z" fill="url(#paint41_linear_501_1927)"/>
<path d="M331.395 271.043L316.598 262.578V263.345L331.395 271.809V271.043Z" fill="url(#paint42_linear_501_1927)"/>
<path d="M512.83 303.282C515.089 304.57 518.067 304.167 521.032 302.457C523.997 300.747 526.963 297.74 529.215 293.838C533.732 286.043 533.706 277.631 529.162 275.044C526.893 273.756 523.923 274.17 520.958 275.878C517.993 277.587 515.029 280.594 512.777 284.488C508.259 292.295 508.283 300.71 512.83 303.282ZM515.692 286.147C517.144 283.634 519.057 281.695 520.971 280.592C522.884 279.489 524.801 279.222 526.264 280.054C529.197 281.723 529.213 287.151 526.298 292.181C524.846 294.698 522.934 296.639 521.019 297.742C519.104 298.845 517.189 299.109 515.726 298.273C512.794 296.613 512.778 291.182 515.692 286.147Z" fill="url(#paint43_linear_501_1927)"/>
<path d="M506.119 293.192C506.137 292.87 506.166 292.535 506.203 292.199C506.222 292.021 506.238 291.848 506.264 291.667C506.313 291.319 506.377 290.963 506.446 290.606C506.477 290.445 506.5 290.284 506.535 290.123C506.571 289.962 506.626 289.76 506.669 289.58C506.738 289.297 506.806 289.013 506.888 288.726C506.929 288.585 506.976 288.443 507.019 288.301C507.114 287.979 507.216 287.67 507.327 287.353C507.374 287.221 507.421 287.087 507.471 286.953C507.611 286.573 507.761 286.192 507.924 285.808C507.947 285.754 507.968 285.699 507.99 285.647C508.179 285.214 508.384 284.779 508.599 284.346C508.65 284.24 508.705 284.135 508.76 284.024C508.979 283.592 509.208 283.161 509.457 282.736C509.705 282.31 509.981 281.866 510.254 281.447C510.328 281.333 510.406 281.222 510.481 281.109C510.681 280.811 510.886 280.521 511.094 280.236C511.193 280.103 511.291 279.967 511.391 279.835C511.577 279.59 511.767 279.352 511.959 279.122C512.093 278.961 512.225 278.79 512.363 278.639L512.753 278.204C513.014 277.914 513.277 277.63 513.545 277.36C513.661 277.244 513.779 277.131 513.897 277.017C514.434 276.495 514.997 276.001 515.584 275.535C515.662 275.476 515.746 275.423 515.815 275.365C516.396 274.917 517.005 274.506 517.638 274.134C518.108 273.867 518.593 273.626 519.09 273.413C519.227 273.353 519.364 273.297 519.5 273.252C519.789 273.141 520.074 273.044 520.358 272.959C520.502 272.915 520.647 272.867 520.789 272.831C520.931 272.796 521.112 272.761 521.273 272.73C521.47 272.691 521.667 272.651 521.86 272.627C521.975 272.612 522.089 272.603 522.204 272.593C522.427 272.574 522.646 272.562 522.862 272.562H523.133C523.426 272.572 523.717 272.601 524.006 272.651C524.032 272.654 524.057 272.659 524.082 272.667C524.342 272.718 524.599 272.787 524.85 272.872L525.051 272.942C525.172 272.989 525.293 273.039 525.411 273.091H525.397L525.431 273.107C525.571 273.17 525.708 273.237 525.844 273.315L524.011 272.25L524.056 272.273L524.08 272.285L528.957 275.117C528.817 275.038 528.673 274.967 528.527 274.902L530.345 275.957C530.204 275.878 530.059 275.807 529.914 275.743L531.731 276.798C531.477 276.656 531.213 276.535 530.94 276.436C530.872 276.41 530.806 276.387 530.738 276.365C530.487 276.278 530.23 276.21 529.969 276.16L529.895 276.142C529.605 276.094 529.313 276.065 529.02 276.054H528.751C528.535 276.054 528.314 276.064 528.093 276.083C527.978 276.093 527.863 276.102 527.747 276.117C527.554 276.142 527.357 276.181 527.162 276.22C527 276.252 526.839 276.281 526.678 276.321C526.516 276.361 526.392 276.405 526.248 276.448C525.963 276.534 525.677 276.63 525.39 276.743C525.253 276.796 525.116 276.853 524.98 276.904C524.482 277.115 523.998 277.356 523.528 277.626C522.896 277.997 522.288 278.407 521.707 278.854C521.63 278.912 521.546 278.966 521.476 279.025C520.888 279.489 520.325 279.984 519.789 280.507C519.671 280.621 519.553 280.734 519.437 280.851C519.169 281.122 518.905 281.405 518.645 281.695C518.514 281.84 518.382 281.979 518.253 282.128C518.124 282.278 517.985 282.451 517.851 282.612C517.659 282.845 517.469 283.08 517.282 283.325C517.182 283.455 517.085 283.591 516.986 283.726C516.778 284.011 516.573 284.301 516.372 284.599C516.296 284.71 516.22 284.823 516.146 284.937C515.872 285.356 515.603 285.785 515.339 286.225C515.075 286.667 514.855 287.085 514.642 287.514C514.589 287.62 514.534 287.726 514.481 287.836C514.265 288.271 514.06 288.704 513.873 289.139C513.848 289.193 513.829 289.248 513.805 289.3C513.644 289.682 513.493 290.064 513.353 290.445C513.303 290.578 513.256 290.711 513.21 290.844C513.098 291.166 512.997 291.477 512.9 291.791C512.856 291.933 512.811 292.076 512.769 292.218C512.688 292.503 512.619 292.786 512.551 293.07C512.506 293.252 512.456 293.434 512.417 293.613C512.379 293.791 512.359 293.935 512.327 294.096C512.258 294.452 512.193 294.808 512.145 295.157C512.121 295.336 512.104 295.511 512.085 295.688C512.048 296.023 512.019 296.355 512.001 296.682C511.991 296.861 511.985 297.04 511.98 297.217C511.98 297.539 511.98 297.861 511.993 298.167C511.993 298.328 512.003 298.489 512.014 298.639C512.043 299.014 512.09 299.376 512.148 299.729C512.161 299.806 512.167 299.89 512.18 299.964C512.258 300.375 512.36 300.78 512.487 301.178C512.522 301.288 512.567 301.389 512.606 301.501C512.703 301.771 512.809 302.035 512.929 302.286C512.99 302.412 513.058 302.53 513.124 302.65C513.245 302.861 513.377 303.066 513.521 303.262C513.598 303.373 513.682 303.485 513.761 303.584C513.919 303.778 514.089 303.961 514.269 304.134C514.352 304.214 514.431 304.295 514.516 304.375C514.789 304.614 515.085 304.825 515.399 305.006L512.212 303.156C512.063 303.067 511.917 302.971 511.777 302.868L510.825 302.315C510.675 302.227 510.53 302.13 510.389 302.027L509.438 301.475C509.152 301.304 508.882 301.109 508.631 300.892C508.542 300.816 508.47 300.731 508.382 300.65C508.202 300.478 508.032 300.294 507.876 300.099C507.79 299.995 507.715 299.885 507.634 299.777C507.494 299.575 507.364 299.366 507.245 299.151C507.179 299.032 507.111 298.913 507.051 298.787C506.93 298.531 506.823 298.268 506.729 298.001C506.69 297.895 506.645 297.793 506.609 297.679C506.484 297.28 506.382 296.874 506.304 296.463C506.29 296.387 506.285 296.302 506.272 296.23C506.212 295.875 506.167 295.513 506.138 295.139C506.125 294.978 506.124 294.817 506.116 294.667C506.103 294.355 506.098 294.039 506.104 293.716C506.1 293.551 506.109 293.373 506.119 293.192Z" fill="url(#paint44_linear_501_1927)"/>
<path d="M515.31 305.032C517.576 306.32 520.547 305.918 523.514 304.208C526.48 302.497 529.443 299.491 531.695 295.588C536.212 287.794 536.186 279.381 531.642 276.795C529.383 275.506 526.405 275.918 523.438 277.629C520.471 279.339 517.509 282.344 515.256 286.238C510.741 294.046 510.763 302.455 515.31 305.032ZM518.172 287.897C519.624 285.385 521.537 283.446 523.451 282.343C525.364 281.239 527.281 280.972 528.744 281.805C531.677 283.473 531.693 288.902 528.778 293.931C527.326 296.447 525.414 298.389 523.499 299.492C521.584 300.595 519.669 300.859 518.206 300.024C515.274 298.363 515.258 292.934 518.172 287.897Z" fill="url(#paint45_linear_501_1927)"/>
<path d="M521.298 289.678C521.895 288.645 522.679 287.85 523.465 287.397C524.25 286.945 525.038 286.835 525.638 287.177C526.841 287.861 526.848 290.09 525.652 292.155C525.055 293.187 524.27 293.984 523.484 294.437C522.698 294.889 521.913 294.999 521.312 294.656C520.107 293.974 520.101 291.746 521.298 289.678Z" fill="url(#paint46_linear_501_1927)"/>
<path d="M580.004 269.7C582.263 270.997 585.241 270.586 588.208 268.876C591.175 267.165 594.137 264.159 596.389 260.256C600.907 252.462 600.883 244.049 596.336 241.463C594.069 240.174 591.099 240.586 588.132 242.297C585.165 244.007 582.203 247.012 579.951 250.906C575.435 258.714 575.46 267.128 580.004 269.7ZM582.868 252.565C584.32 250.053 586.232 248.114 588.147 247.011C590.062 245.907 591.977 245.64 593.44 246.473C596.373 248.141 596.388 253.57 593.474 258.599C592.022 261.115 590.109 263.057 588.195 264.16C586.282 265.263 584.365 265.527 582.902 264.692C579.969 263.031 579.954 257.602 582.868 252.565Z" fill="url(#paint47_linear_501_1927)"/>
<path d="M573.297 259.618C573.315 259.296 573.344 258.959 573.381 258.624C573.401 258.447 573.417 258.273 573.441 258.093C573.489 257.745 573.554 257.389 573.623 257.032C573.654 256.871 573.678 256.71 573.714 256.549C573.749 256.387 573.802 256.186 573.847 256.006C573.915 255.722 573.985 255.439 574.065 255.152C574.106 255.011 574.152 254.869 574.196 254.725C574.293 254.411 574.394 254.096 574.506 253.779C574.552 253.646 574.599 253.513 574.649 253.379C574.79 252.999 574.938 252.617 575.101 252.234C575.125 252.179 575.145 252.125 575.169 252.073C575.356 251.64 575.561 251.205 575.775 250.772L575.937 250.45C576.158 250.018 576.387 249.587 576.634 249.161C576.881 248.736 577.158 248.292 577.432 247.873C577.506 247.759 577.582 247.648 577.658 247.535C577.86 247.237 578.065 246.947 578.273 246.662C578.371 246.528 578.468 246.393 578.568 246.261C578.755 246.016 578.946 245.778 579.136 245.548C579.27 245.387 579.404 245.216 579.539 245.064L579.931 244.63C580.191 244.34 580.456 244.056 580.722 243.786C580.84 243.668 580.957 243.555 581.074 243.443C581.61 242.919 582.174 242.425 582.763 241.961C582.839 241.902 582.924 241.848 582.993 241.789C583.575 241.342 584.183 240.932 584.815 240.56C585.285 240.292 585.77 240.051 586.267 239.839C586.404 239.779 586.541 239.726 586.678 239.677C586.965 239.566 587.251 239.47 587.537 239.384C587.68 239.341 587.824 239.293 587.966 239.256C588.108 239.219 588.288 239.186 588.45 239.156C588.645 239.117 588.842 239.077 589.035 239.053C589.152 239.038 589.266 239.028 589.381 239.019C589.602 238.999 589.823 238.988 590.039 238.988H590.316C590.609 238.998 590.902 239.027 591.191 239.075L591.265 239.093C591.526 239.144 591.783 239.212 592.035 239.297L592.236 239.368C592.357 239.415 592.477 239.465 592.596 239.516H592.575L592.609 239.533C592.748 239.595 592.886 239.663 593.02 239.74L591.188 238.676L591.234 238.698L591.257 238.711L596.134 241.542C595.995 241.464 595.852 241.392 595.705 241.328L597.521 242.383C597.381 242.304 597.238 242.233 597.092 242.169L598.909 243.224C598.655 243.082 598.39 242.961 598.117 242.861C598.051 242.836 597.983 242.813 597.917 242.79C597.665 242.705 597.408 242.636 597.147 242.586L597.071 242.568C596.783 242.52 596.491 242.491 596.199 242.48H595.928C595.711 242.48 595.492 242.489 595.271 242.509C595.156 242.518 595.042 242.528 594.926 242.542C594.732 242.568 594.535 242.607 594.338 242.646C594.177 242.678 594.016 242.707 593.854 242.747C593.693 242.787 593.567 242.831 593.424 242.874C593.14 242.96 592.854 243.056 592.565 243.169C592.43 243.222 592.293 243.278 592.156 243.33C591.658 243.543 591.173 243.784 590.704 244.053C590.071 244.425 589.463 244.836 588.88 245.282C588.805 245.34 588.719 245.393 588.65 245.453C588.063 245.918 587.499 246.412 586.962 246.934C586.844 247.048 586.727 247.161 586.611 247.279C586.343 247.549 586.08 247.833 585.818 248.123C585.689 248.268 585.557 248.406 585.428 248.556C585.299 248.706 585.159 248.878 585.025 249.039C584.834 249.274 584.642 249.509 584.457 249.754C584.357 249.884 584.258 250.02 584.16 250.155C583.952 250.438 583.747 250.73 583.547 251.026L583.319 251.366C583.047 251.785 582.779 252.213 582.522 252.654C582.266 253.096 582.038 253.513 581.825 253.943L581.664 254.265C581.449 254.7 581.245 255.133 581.057 255.568C581.033 255.622 581.012 255.677 580.99 255.729C580.828 256.111 580.677 256.493 580.536 256.874C580.488 257.007 580.44 257.14 580.393 257.272C580.281 257.594 580.18 257.904 580.085 258.22C580.041 258.362 579.994 258.505 579.954 258.645C579.872 258.932 579.804 259.215 579.734 259.499C579.691 259.681 579.641 259.863 579.602 260.042C579.563 260.22 579.543 260.364 579.512 260.525C579.442 260.882 579.378 261.238 579.33 261.588C579.305 261.766 579.288 261.942 579.268 262.117C579.231 262.454 579.202 262.786 579.186 263.113C579.176 263.291 579.168 263.47 579.165 263.647C579.159 263.969 579.163 264.286 579.178 264.598C579.178 264.759 579.188 264.92 579.199 265.069C579.228 265.445 579.275 265.807 579.333 266.16C579.346 266.237 579.351 266.321 579.365 266.395C579.442 266.805 579.544 267.211 579.672 267.609C579.705 267.719 579.751 267.82 579.789 267.931C579.888 268.202 579.993 268.466 580.112 268.717C580.172 268.843 580.239 268.96 580.306 269.081C580.425 269.296 580.554 269.504 580.694 269.706C580.774 269.817 580.856 269.928 580.936 270.028C581.094 270.219 581.263 270.399 581.443 270.569C581.527 270.65 581.604 270.73 581.691 270.811C581.964 271.049 582.26 271.261 582.574 271.442L579.386 269.592C579.236 269.503 579.091 269.407 578.95 269.303L578 268.751C577.85 268.662 577.705 268.566 577.565 268.463L576.613 267.91C576.327 267.74 576.057 267.545 575.806 267.327C575.719 267.252 575.645 267.166 575.558 267.086C575.378 266.912 575.209 266.728 575.051 266.535C574.967 266.43 574.89 266.321 574.811 266.213C574.669 266.012 574.539 265.802 574.422 265.586C574.354 265.467 574.288 265.348 574.227 265.222C574.105 264.966 573.998 264.704 573.904 264.436C573.865 264.33 573.82 264.229 573.785 264.114C573.658 263.716 573.555 263.31 573.478 262.898C573.465 262.823 573.459 262.737 573.446 262.665C573.388 262.311 573.341 261.948 573.312 261.575C573.301 261.414 573.297 261.253 573.291 261.103C573.278 260.79 573.271 260.475 573.278 260.151C573.281 259.969 573.288 259.79 573.297 259.618Z" fill="url(#paint48_linear_501_1927)"/>
<path d="M582.485 271.45C584.752 272.738 587.722 272.336 590.689 270.626C593.656 268.915 596.618 265.907 598.87 262.006C603.387 254.212 603.363 245.799 598.817 243.213C596.55 241.924 593.58 242.336 590.613 244.047C587.646 245.757 584.684 248.762 582.432 252.656C577.916 260.464 577.94 268.877 582.485 271.45ZM585.349 254.315C586.801 251.803 588.712 249.864 590.627 248.761C592.542 247.657 594.457 247.39 595.921 248.223C598.854 249.891 598.868 255.32 595.955 260.349C594.503 262.865 592.589 264.807 590.676 265.91C588.762 267.013 586.846 267.277 585.382 266.442C582.449 264.781 582.435 259.352 585.349 254.315Z" fill="url(#paint49_linear_501_1927)"/>
<path d="M588.474 256.096C589.071 255.064 589.857 254.269 590.643 253.816C591.428 253.363 592.214 253.252 592.814 253.595C594.019 254.28 594.026 256.509 592.829 258.573C592.232 259.606 591.448 260.403 590.662 260.855C589.876 261.308 589.089 261.417 588.489 261.074C587.285 260.391 587.279 258.167 588.474 256.096Z" fill="url(#paint50_linear_501_1927)"/>
<path d="M537.969 242.515C537.969 242.515 519.336 233.682 517.124 233.335C514.912 232.989 512.233 233.451 511.766 237.927C511.3 242.402 510.602 259.259 511.766 263.211C512.931 267.163 513.343 272.046 524.549 277.866C535.755 283.686 542.278 287.282 548.683 284.725C555.088 282.167 588.561 262.839 598.06 253.571C609.857 242.066 607.784 238.271 607.784 238.271C607.784 238.271 602.236 215.769 579.067 212.514C555.898 209.259 546.126 219.624 544.262 223.465C542.399 227.306 551.017 237.88 551.133 242.297C551.25 246.715 551.832 253.34 549.386 255.084C546.94 256.829 540.997 261.014 540.997 261.014C540.997 261.014 542.4 245.306 537.969 242.515Z" fill="url(#paint51_linear_501_1927)"/>
<path d="M550.497 253.527C550.497 253.527 554.303 258.953 560.514 260.341C566.726 261.729 571.269 264.506 567.839 268.021C564.409 271.537 547.537 281.81 545.033 281.995C542.529 282.18 542.53 280.977 541.882 274.684C541.233 268.39 540.996 260.995 540.996 260.995C540.996 260.995 548.453 256.061 550.497 253.527Z" fill="url(#paint52_linear_501_1927)"/>
<path d="M608.266 240.006C608.266 240.006 604.336 224.495 593.101 225.132C581.866 225.77 575.22 235.968 573.05 241.449C570.88 246.931 573.05 265.162 573.05 265.162C573.05 265.162 602.242 266.281 608.266 240.006Z" fill="url(#paint53_linear_501_1927)"/>
<path d="M513.697 233.883C513.697 233.883 515.499 232.614 516.684 232.771C522.814 233.59 537.207 240.846 538.786 242.03C540.366 243.214 542.274 245.283 542.432 251.75C542.59 258.218 542.195 282.51 545.909 282.824C549.623 283.138 569.74 270.746 571.351 270.836L572.965 270.934C572.965 270.934 551.68 284.331 546.545 285.551C541.409 286.77 542.277 279.513 541.41 274.385C540.542 269.258 541.714 249.402 539.846 245.136C538.901 242.977 533.328 240.276 527.875 237.827C522.561 235.438 517.364 233.275 516.461 233.261C514.631 233.23 513.697 233.883 513.697 233.883Z" fill="url(#paint54_linear_501_1927)"/>
<path d="M528.676 238.19C528.676 238.19 525.84 255.38 525.516 264.658C525.191 273.936 525.516 278.358 525.516 278.358C525.516 278.358 520.161 276.711 518.785 274.298C517.409 271.886 518.167 258.508 519.572 248.259C520.977 238.01 522.381 235.312 522.381 235.312L528.676 238.19Z" fill="url(#paint55_linear_501_1927)"/>
<path d="M504.818 222.022V221.846L504.827 221.787L504.837 221.729C504.835 221.708 504.839 221.686 504.85 221.668L504.864 221.605C504.867 221.583 504.873 221.561 504.88 221.54C504.88 221.519 504.892 221.507 504.897 221.49L504.916 221.428L504.939 221.366C504.943 221.346 504.95 221.326 504.959 221.307L504.984 221.249L505.003 221.204C505.003 221.204 505.021 221.164 505.03 221.144C505.04 221.125 505.05 221.102 505.061 221.081L505.098 221.009C505.111 220.985 505.126 220.957 505.14 220.933V220.919L505.15 220.904C505.177 220.855 505.208 220.807 505.24 220.761C505.263 220.724 505.288 220.689 505.314 220.655C505.332 220.632 505.348 220.608 505.368 220.585L505.413 220.529L505.46 220.474C505.476 220.457 505.49 220.439 505.506 220.423V220.413L505.544 220.374L505.594 220.325L505.647 220.275L505.7 220.228L505.726 220.207L505.747 220.189L505.8 220.149L505.852 220.114C505.868 220.101 505.885 220.089 505.903 220.08L505.953 220.048H505.965L506.003 220.027L506.053 220.001L506.102 219.978L506.15 219.957L506.199 219.94H506.208L506.244 219.928L506.292 219.915L506.342 219.904L506.395 219.895H506.566C506.59 219.896 506.613 219.899 506.636 219.904C506.662 219.909 506.689 219.916 506.715 219.925C506.749 219.938 506.781 219.953 506.813 219.97L516.448 225.56C516.393 225.528 516.333 225.506 516.271 225.494C516.204 225.481 516.135 225.478 516.067 225.484C515.991 225.492 515.916 225.509 515.843 225.533C515.759 225.561 515.678 225.599 515.601 225.644C515.517 225.691 515.436 225.745 515.361 225.805C515.283 225.868 515.209 225.937 515.14 226.009C515.068 226.086 515 226.168 514.938 226.253C514.875 226.338 514.817 226.427 514.764 226.518V226.533C514.712 226.623 514.664 226.716 514.622 226.811C514.58 226.908 514.544 227.006 514.514 227.106C514.485 227.203 514.462 227.302 514.444 227.402C514.428 227.499 514.42 227.596 514.422 227.694C514.422 227.781 514.43 227.868 514.446 227.953C514.46 228.026 514.483 228.098 514.514 228.166C514.538 228.216 514.569 228.263 514.604 228.306C514.615 228.319 514.625 228.333 514.638 228.346C514.676 228.388 514.72 228.425 514.769 228.454L505.134 222.866C505.084 222.837 505.039 222.8 505.001 222.756L504.968 222.716C504.955 222.698 504.938 222.682 504.924 222.661C504.907 222.635 504.892 222.607 504.879 222.579C504.869 222.559 504.86 222.539 504.853 222.518L504.83 222.455L504.816 222.394V222.367V222.341C504.82 222.322 504.82 222.303 504.816 222.284C504.812 222.265 504.812 222.246 504.816 222.226V222.111C504.811 222.081 504.811 222.051 504.818 222.022Z" fill="url(#paint56_linear_501_1927)"/>
<path d="M515.652 225.594C515.303 225.821 515.012 226.127 514.804 226.487C514.596 226.848 514.475 227.252 514.453 227.667C514.453 228.43 514.995 228.736 515.66 228.353C516.009 228.127 516.3 227.821 516.509 227.46C516.717 227.1 516.837 226.696 516.859 226.28C516.855 225.52 516.317 225.211 515.652 225.594Z" fill="url(#paint57_linear_501_1927)"/>
<path d="M514.138 228.596V228.478C514.137 228.439 514.14 228.399 514.148 228.361C514.158 228.322 514.148 228.282 514.161 228.242C514.17 228.201 514.176 228.16 514.179 228.119C514.182 228.08 514.188 228.041 514.198 228.003C514.198 227.965 514.214 227.92 514.224 227.878L514.253 227.75L514.287 227.622C514.296 227.588 514.308 227.554 514.317 227.52V227.493C514.33 227.451 514.343 227.409 514.358 227.367C514.372 227.325 514.385 227.285 514.401 227.243L514.445 227.124L514.493 227.006L514.532 226.916C514.531 226.91 514.531 226.904 514.532 226.899L514.585 226.779L514.648 226.652C514.672 226.602 514.698 226.554 514.724 226.506C514.75 226.457 514.78 226.403 514.809 226.345L514.826 226.317L514.843 226.285C514.901 226.187 514.963 226.09 515.026 225.995C515.088 225.9 515.126 225.852 515.177 225.781L515.284 225.641L515.377 225.525L515.472 225.414L515.566 225.309L515.584 225.291L515.658 225.214C515.692 225.179 515.726 225.145 515.761 225.113L515.868 225.013L515.976 224.919L516.029 224.876L516.042 224.865L516.084 224.831L516.19 224.749L516.297 224.675L516.4 224.607L516.502 224.544L516.526 224.53L516.603 224.486L516.703 224.435L516.802 224.389C516.834 224.373 516.866 224.36 516.899 224.348L516.997 224.311H517.016L517.087 224.286L517.187 224.259L517.287 224.236L517.394 224.219H517.742C517.79 224.223 517.836 224.23 517.883 224.24C517.938 224.251 517.992 224.266 518.044 224.285C518.112 224.309 518.178 224.339 518.241 224.375L520.961 225.924C520.849 225.861 520.729 225.815 520.603 225.789C520.468 225.761 520.33 225.754 520.193 225.766H520.182C520.029 225.781 519.878 225.814 519.733 225.865C519.565 225.924 519.403 226 519.249 226.09C519.079 226.188 518.917 226.3 518.765 226.425L518.754 226.435C518.596 226.563 518.447 226.702 518.307 226.85C518.161 227.007 518.025 227.171 517.897 227.343C517.771 227.517 517.654 227.696 517.546 227.881C517.541 227.891 517.536 227.9 517.529 227.908C517.425 228.092 517.329 228.28 517.244 228.474C517.159 228.668 517.085 228.868 517.023 229.071C516.963 229.267 516.916 229.468 516.883 229.67C516.85 229.865 516.834 230.063 516.836 230.261C516.836 230.437 516.852 230.612 516.884 230.785V230.799C516.913 230.947 516.96 231.091 517.023 231.227C517.073 231.328 517.134 231.423 517.205 231.509C517.228 231.537 517.249 231.567 517.273 231.593C517.351 231.678 517.44 231.752 517.539 231.812L514.817 230.261C514.718 230.202 514.629 230.128 514.551 230.042C514.527 230.016 514.506 229.987 514.483 229.96C514.461 229.933 514.422 229.891 514.395 229.85C514.362 229.799 514.331 229.745 514.304 229.689V229.681C514.287 229.641 514.267 229.601 514.253 229.557C514.238 229.514 514.222 229.474 514.209 229.43C514.196 229.387 514.187 229.348 514.177 229.306C514.167 229.264 514.177 229.271 514.166 229.253C514.154 229.235 514.166 229.243 514.166 229.239C514.166 229.221 514.162 229.203 514.154 229.187C514.144 229.149 514.139 229.11 514.137 229.071C514.135 229.032 514.131 228.992 514.125 228.953C514.12 228.916 514.12 228.877 514.125 228.839V228.722C514.134 228.68 514.138 228.638 514.138 228.596Z" fill="url(#paint58_linear_501_1927)"/>
<path d="M519.283 226.063C517.939 226.836 516.852 228.718 516.863 230.25C516.875 231.782 517.962 232.413 519.306 231.64C520.65 230.867 521.736 228.987 521.726 227.443C521.716 225.899 520.629 225.287 519.283 226.063Z" fill="url(#paint59_linear_501_1927)"/>
<path d="M516.712 231.327C516.712 231.327 513.564 232.624 512.745 232.419C511.925 232.215 506.162 228.337 504.815 228.435C503.468 228.533 503.321 229.375 502.473 228.854C501.624 228.332 503.263 226.576 505.019 227.336C506.774 228.097 512.219 231.222 512.863 231.105C513.506 230.987 514.326 229.673 514.326 229.673L516.712 231.327Z" fill="url(#paint60_linear_501_1927)"/>
<path d="M514.453 227.983C514.609 227.903 514.782 227.863 514.958 227.866C515.133 227.87 515.304 227.917 515.457 228.003L524.578 233.126C525.018 233.371 525.384 233.727 525.639 234.16C525.894 234.592 526.029 235.085 526.03 235.587V243.382C526.032 243.596 525.984 243.808 525.891 244.001C525.797 244.193 525.661 244.362 525.492 244.494L533.702 238.845V238.842C533.88 238.713 534.025 238.543 534.125 238.347C534.226 238.151 534.278 237.934 534.278 237.714V229.918C534.278 229.418 534.144 228.926 533.892 228.494C533.639 228.061 533.275 227.704 532.839 227.458L523.712 222.336C523.531 222.235 523.324 222.19 523.117 222.206C522.91 222.222 522.712 222.299 522.549 222.426L514.453 227.983Z" fill="url(#paint61_linear_501_1927)"/>
<path d="M513.867 228.932V237.071C513.867 237.655 514.022 238.228 514.317 238.731C514.613 239.235 515.037 239.651 515.547 239.936L523.896 244.621C524.14 244.759 524.42 244.822 524.7 244.801C524.98 244.78 525.247 244.677 525.469 244.505C525.472 244.505 525.476 244.504 525.479 244.502C525.481 244.5 525.484 244.497 525.485 244.494C525.654 244.362 525.79 244.193 525.884 244C525.977 243.807 526.025 243.595 526.024 243.381V235.587C526.023 235.085 525.888 234.592 525.632 234.159C525.377 233.727 525.011 233.37 524.572 233.126L515.456 228.005C515.304 227.918 515.133 227.871 514.957 227.867C514.782 227.864 514.609 227.904 514.453 227.984H514.443L514.23 228.133C514.115 228.232 514.022 228.354 513.96 228.493C513.897 228.631 513.865 228.781 513.867 228.932Z" fill="url(#paint62_linear_501_1927)"/>
<path d="M524.594 243.742C524.675 243.742 524.753 243.715 524.817 243.665L524.852 243.639C524.887 243.607 524.915 243.567 524.933 243.523C524.952 243.479 524.96 243.431 524.959 243.383V235.589C524.957 235.276 524.873 234.97 524.714 234.701C524.556 234.432 524.329 234.209 524.057 234.055L514.99 228.965L514.924 229.034L514.935 237.073C514.935 237.467 515.039 237.853 515.238 238.192C515.436 238.532 515.722 238.813 516.064 239.006L524.415 243.692C524.469 243.725 524.531 243.742 524.594 243.742Z" fill="white"/>
<path d="M527.998 236.861V236.749C527.997 236.709 528 236.669 528.008 236.63C528.018 236.59 528.008 236.551 528.021 236.513C528.03 236.472 528.035 236.431 528.039 236.39C528.042 236.351 528.049 236.312 528.06 236.274C528.068 236.236 528.076 236.191 528.086 236.149C528.095 236.107 528.103 236.063 528.115 236.02L528.148 235.891C528.158 235.857 528.168 235.823 528.179 235.79V235.772C528.192 235.73 528.207 235.688 528.219 235.646L528.263 235.521C528.278 235.482 528.292 235.442 528.308 235.403C528.324 235.364 528.339 235.324 528.357 235.284C528.374 235.244 528.381 235.224 528.395 235.194V235.176L528.45 235.058C528.47 235.015 528.491 234.973 528.511 234.93L528.587 234.783L528.674 234.622C528.679 234.612 528.684 234.603 528.691 234.595C528.696 234.583 528.701 234.573 528.708 234.562C528.766 234.464 528.826 234.366 528.891 234.273C528.955 234.179 528.989 234.128 529.041 234.057C529.076 234.008 529.112 233.962 529.149 233.915L529.242 233.799C529.273 233.762 529.305 233.727 529.338 233.69L529.431 233.585L529.449 233.567H529.457C529.481 233.54 529.505 233.514 529.531 233.488C529.557 233.462 529.599 233.421 529.634 233.388C529.67 233.356 529.704 233.321 529.741 233.289C529.778 233.256 529.812 233.224 529.849 233.194L529.902 233.15L529.915 233.14L529.957 233.107L530.064 233.024C530.097 232.999 530.133 232.975 530.168 232.95L530.272 232.881C530.306 232.86 530.339 232.839 530.375 232.82L530.397 232.805L530.477 232.762L530.577 232.71L530.675 232.664L530.772 232.623L530.87 232.585H530.89L530.961 232.562L531.061 232.535L531.161 232.512L531.267 232.495H531.49C531.532 232.491 531.574 232.491 531.616 232.495C531.663 232.498 531.71 232.504 531.756 232.514C531.811 232.525 531.864 232.54 531.917 232.557C531.986 232.582 532.052 232.612 532.114 232.649L534.836 234.198C534.724 234.135 534.603 234.089 534.478 234.063C534.343 234.038 534.206 234.031 534.069 234.042H534.058C533.905 234.057 533.754 234.089 533.608 234.139C533.44 234.199 533.278 234.274 533.124 234.364C532.954 234.463 532.792 234.575 532.64 234.699L532.629 234.709C532.471 234.837 532.322 234.977 532.183 235.126C532.038 235.279 531.901 235.441 531.774 235.609C531.646 235.782 531.528 235.962 531.42 236.147L531.406 236.174C531.301 236.358 531.204 236.548 531.119 236.74C531.034 236.934 530.96 237.133 530.898 237.336V237.345C530.838 237.542 530.792 237.742 530.759 237.944C530.727 238.139 530.71 238.336 530.71 238.534C530.71 238.709 530.727 238.885 530.76 239.057V239.073C530.79 239.221 530.836 239.365 530.898 239.502C530.947 239.603 531.009 239.699 531.082 239.785C531.102 239.814 531.124 239.841 531.148 239.867C531.225 239.953 531.315 240.027 531.414 240.086L528.692 238.537C528.594 238.477 528.505 238.403 528.428 238.318C528.403 238.292 528.382 238.263 528.36 238.234C528.328 238.2 528.298 238.164 528.271 238.126C528.237 238.074 528.207 238.021 528.179 237.965C528.16 237.927 528.142 237.885 528.126 237.843C528.11 237.801 528.097 237.759 528.084 237.716C528.071 237.672 528.061 237.634 528.052 237.59C528.052 237.572 528.044 237.555 528.04 237.537V237.522L528.031 237.472C528.027 237.433 528.021 237.394 528.013 237.355C528.013 237.315 528.003 237.278 528 237.239C527.997 237.2 528 237.163 528 237.125V237.005C527.997 236.935 527.998 236.898 527.998 236.861Z" fill="url(#paint63_linear_501_1927)"/>
<path d="M533.147 234.325C531.804 235.1 530.717 236.981 530.727 238.512C530.736 240.044 531.827 240.677 533.169 239.902C534.512 239.127 535.601 237.251 535.589 235.715C535.578 234.178 534.495 233.549 533.147 234.325Z" fill="url(#paint64_linear_501_1927)"/>
<path d="M532.454 238.089V237.913L532.463 237.853L532.473 237.795C532.471 237.774 532.475 237.753 532.486 237.734L532.5 237.67C532.503 237.648 532.509 237.627 532.518 237.607C532.521 237.59 532.526 237.573 532.533 237.557V237.556L532.552 237.494L532.575 237.433C532.579 237.412 532.586 237.392 532.596 237.374L532.62 237.316L532.639 237.27V237.261L532.666 237.203C532.676 237.182 532.686 237.161 532.697 237.14L532.734 237.068L532.776 236.992C532.78 236.987 532.782 236.983 532.784 236.977L532.794 236.961C532.823 236.913 532.852 236.866 532.884 236.82C532.917 236.773 532.933 236.747 532.959 236.713L533.012 236.644L533.057 236.588L533.104 236.533L533.15 236.481L533.16 236.472C533.173 236.459 533.184 236.444 533.197 236.433L533.247 236.383L533.301 236.333L533.354 236.286L533.38 236.266L533.401 236.248L533.454 236.208L533.505 236.171L533.557 236.138L533.607 236.106H533.618L533.657 236.085L533.707 236.059L533.755 236.037L533.804 236.016L533.852 235.998H533.862L533.897 235.987L533.946 235.974L533.996 235.963L534.049 235.953H534.22C534.243 235.955 534.267 235.958 534.29 235.963C534.352 235.974 534.412 235.996 534.467 236.029L544.147 241.59C544.092 241.558 544.032 241.535 543.97 241.522C543.903 241.509 543.834 241.506 543.766 241.512C543.69 241.52 543.615 241.537 543.542 241.561C543.458 241.589 543.377 241.627 543.3 241.672C543.216 241.719 543.135 241.773 543.06 241.833C542.982 241.896 542.909 241.964 542.84 242.037C542.768 242.114 542.701 242.196 542.639 242.281C542.576 242.366 542.517 242.455 542.464 242.546C542.465 242.551 542.465 242.555 542.464 242.559C542.413 242.651 542.364 242.744 542.322 242.839C542.279 242.935 542.243 243.034 542.213 243.134C542.184 243.232 542.161 243.331 542.143 243.432C542.128 243.528 542.121 243.626 542.121 243.724C542.121 243.811 542.129 243.897 542.145 243.983C542.159 244.056 542.182 244.127 542.213 244.195C542.237 244.245 542.267 244.292 542.303 244.335C542.314 244.348 542.324 244.363 542.337 244.376C542.375 244.418 542.419 244.454 542.467 244.484L532.833 238.894C532.783 238.865 532.739 238.828 532.7 238.786L532.668 238.746C532.654 238.726 532.637 238.712 532.625 238.691C532.606 238.665 532.591 238.637 532.578 238.609C532.568 238.589 532.56 238.568 532.552 238.548C532.544 238.527 532.537 238.506 532.531 238.485C532.525 238.464 532.52 238.444 532.515 238.424C532.51 238.403 532.515 238.406 532.515 238.396C532.513 238.388 532.513 238.379 532.515 238.37C532.516 238.351 532.513 238.332 532.507 238.314C532.503 238.295 532.503 238.275 532.507 238.256V238.14C532.452 238.124 532.452 238.106 532.454 238.089Z" fill="url(#paint65_linear_501_1927)"/>
<path d="M543.287 241.657C542.938 241.884 542.647 242.19 542.439 242.551C542.23 242.911 542.11 243.315 542.088 243.73C542.088 244.493 542.63 244.799 543.295 244.416C543.644 244.19 543.935 243.884 544.143 243.523C544.352 243.163 544.472 242.759 544.493 242.343C544.497 241.58 543.951 241.274 543.287 241.657Z" fill="url(#paint66_linear_501_1927)"/>
<path d="M530.437 238.667C530.437 238.667 529.485 240.849 530.719 241.296C531.954 241.742 538.786 245.661 539.141 246.463C539.496 247.265 537.887 248.995 537.186 247.992C536.484 246.988 538.83 247.069 535.588 245.127C532.347 243.185 528.946 242.138 528.398 241.226C527.849 240.315 528.062 237.562 528.062 237.562L530.437 238.667Z" fill="url(#paint67_linear_501_1927)"/>
<path d="M520.658 291.13L522.641 282.344L527.181 282.721L525.406 290.398L520.658 291.13Z" fill="url(#paint68_linear_501_1927)"/>
<path d="M537.186 283.973C537.186 283.973 538.612 272.103 525.386 270.183C512.16 268.263 506.242 279.15 506.1 281C505.958 282.851 511.518 285.832 514.369 286.123C517.219 286.415 536.997 286.479 537.231 286.123C537.465 285.767 537.186 283.973 537.186 283.973Z" fill="url(#paint69_linear_501_1927)"/>
<path d="M589.632 200.772L550.385 178.919L580.774 161.605L620.021 183.456L589.632 200.772Z" fill="url(#paint70_linear_501_1927)"/>
<path d="M620.022 210.55L589.633 227.864V200.769L620.022 183.453V210.55Z" fill="#13124F"/>
<path d="M550.385 178.918L589.632 200.77V227.866L550.385 206.014V178.918Z" fill="url(#paint71_linear_501_1927)"/>
<path d="M589.825 197.408L548.875 174.609L580.582 156.543L621.531 179.342L589.825 197.408Z" fill="url(#paint72_linear_501_1927)"/>
<path d="M621.531 187.178L589.824 205.244V197.406L621.531 179.34V187.178Z" fill="#473057"/>
<path d="M548.875 174.605L589.825 197.405V205.243L548.875 182.444V174.605Z" fill="url(#paint73_linear_501_1927)"/>
<path d="M558.237 209.426C560.872 208.738 572.262 214.727 575.598 218.193C578.935 221.658 573.699 224.784 568.375 228.115C563.051 231.445 557.418 232.542 553.694 232.758C550.035 232.97 542.351 231.421 542.365 225.35C542.385 221.021 553.812 210.582 558.237 209.426Z" fill="url(#paint74_linear_501_1927)"/>
<g opacity="0.42">
<path d="M592.596 214.551L605.38 207.343V206.402L592.596 213.609V214.551Z" fill="white"/>
<path d="M592.596 216.782L605.38 209.575V208.633L592.596 215.841V216.782Z" fill="white"/>
</g>
<path d="M472.746 320.619C472.746 320.619 468.503 327.461 467.126 328.88C465.75 330.299 463.633 331.135 465.592 331.956C467.551 332.777 468.312 334.003 471.108 332.422C473.904 330.84 480.343 325.807 481.253 323.295C482.163 320.783 480.089 319.312 480.089 319.312L472.746 320.619Z" fill="#65456D"/>
<path d="M456.409 314.152C456.409 314.152 448.949 322.894 449.002 323.697C449.055 324.501 451.89 327.524 455.917 324.548C459.944 321.572 465.405 317.165 465.729 315.932C466.054 314.698 464.519 312.711 464.519 312.711L456.409 314.152Z" fill="#65456D"/>
<path d="M450.6 250.117C450.6 250.117 448.861 281.184 451.246 285.547C453.63 289.91 453.653 300.387 454.745 304.988C455.837 309.589 456.465 314.627 456.465 314.627C456.465 314.627 456.123 317.173 460.088 316.469C464.054 315.765 465.145 312.905 465.145 312.905C465.145 312.905 467.921 301.228 466.581 294.717C465.24 288.206 462.124 282.703 462.124 282.703L463.212 253.232L450.6 250.117Z" fill="#5B1B4D"/>
<path d="M459.035 259.637L466.857 292.187C466.857 292.187 468.481 299.71 470.259 306.681C472.037 313.653 472.747 320.623 472.747 320.623C472.747 320.623 473.521 322.971 476.458 322.451C478.214 322.133 479.808 321.223 480.975 319.874C480.975 319.874 482.853 305.159 481.988 297.328C481.123 289.496 479.191 286.638 479.191 286.638C479.191 286.638 474.386 273.994 476.761 267.356C479.136 260.718 477.351 254.773 477.351 254.773C477.351 254.773 473.673 259.851 459.035 259.637Z" fill="#473057"/>
<path d="M459.325 209.051C459.325 209.051 453.355 214.167 451.385 219.66C449.415 225.154 448.273 233.7 447.173 235.159C446.073 236.618 439.861 239.991 439.861 239.991C439.861 239.991 442.691 240.54 443.162 242.345C443.633 244.15 443.477 244.779 443.477 244.779C443.477 244.779 451.261 240.933 452.44 238.498C453.62 236.063 457.209 229.708 457.209 229.708L459.325 209.051Z" fill="#F60D59"/>
<path d="M459.325 209.051C459.325 209.051 456.858 211.442 455.492 213.576C454.125 215.71 453.98 224.527 454.085 225.15C454.19 225.774 450.279 252.372 450.279 252.372C450.279 252.372 452.772 259.429 461.802 260.849C470.954 262.287 478.374 253.989 478.374 253.989C478.374 253.989 475.362 247.386 477.359 240.047C479.356 232.708 481.854 222.24 479.857 219.472C477.859 216.704 462.476 207.638 459.325 209.051Z" fill="url(#paint75_linear_501_1927)"/>
<path d="M460.622 195.456C460.622 195.456 457.965 196.401 458.152 203.423C458.276 208.012 459.946 209.739 460.837 210.441C461.727 211.143 462.965 211.198 462.965 211.198L462.587 213.908C462.587 213.908 462.21 215.918 465.744 216.723C469.279 217.528 471.796 213.747 471.796 213.747C471.796 213.747 471.173 210.829 471.781 208.033C472.39 205.237 473.027 198.174 470.183 196.586C467.338 194.998 460.622 195.456 460.622 195.456Z" fill="#FA9BBC"/>
<path d="M462.964 211.198C462.964 211.198 465.236 211.264 466.399 210.232C467.562 209.2 467.912 208.926 467.912 208.926C467.415 209.928 466.77 210.851 466.001 211.664C464.71 213.04 465.042 216.524 465.042 216.524C465.042 216.524 462.383 216.004 462.585 214.335L462.964 211.198Z" fill="#F96EA2"/>
<path d="M462.176 254.873V243.016L446.449 252.136V263.992L462.176 254.873Z" fill="#F62169"/>
<path d="M430.723 243.301V255.158L446.449 263.993V252.137L430.723 243.301Z" fill="#F62169"/>
<path d="M446.449 251.994L462.176 242.876L446.449 234.039L430.723 243.159L446.449 251.994Z" fill="url(#paint76_linear_501_1927)"/>
<path d="M462.176 254.733V242.875L446.449 251.993V263.851L462.176 254.733Z" fill="url(#paint77_linear_501_1927)"/>
<path d="M430.723 243.16V255.018L446.449 263.853V251.995L430.723 243.16Z" fill="url(#paint78_linear_501_1927)"/>
<path d="M446.45 248.134L462.973 238.552L446.45 229.27L429.926 238.852L446.45 248.134Z" fill="url(#paint79_linear_501_1927)"/>
<path d="M462.973 242.985V238.555L446.449 248.137V252.567L462.973 242.985Z" fill="url(#paint80_linear_501_1927)"/>
<path d="M429.926 238.852V243.282L446.45 252.564V248.134L429.926 238.852Z" fill="url(#paint81_linear_501_1927)"/>
<path d="M438.64 243.773V248.283L436.725 247.208V242.699L438.64 243.773Z" fill="#F20919"/>
<path d="M439.372 248.68V259.964L437.459 258.891V247.605L439.372 248.68Z" fill="#DA2112"/>
<path d="M438.64 243.78L455.163 234.199L453.248 233.117L436.725 242.698L438.64 243.78Z" fill="#F61B66"/>
<path d="M453.248 243.773V248.283L455.163 247.208V242.699L453.248 243.773Z" fill="#F20919"/>
<path d="M452.516 248.68V260.478L454.429 259.405V247.605L452.516 248.68Z" fill="#DA2112"/>
<path d="M453.248 243.781L437.336 234.555L439.251 233.473L455.163 242.699L453.248 243.781Z" fill="#F61B66"/>
<path d="M454.78 228.97C454.539 228.947 454.295 228.983 454.071 229.075C451.914 229.88 447.595 238.525 447.527 238.659C447.383 238.784 447.215 238.878 447.033 238.936C447.033 238.936 445.259 238.153 445.43 237.808C445.43 237.808 449.8 229.041 451.975 228.223C452.135 228.151 452.308 228.112 452.484 228.11C452.66 228.107 452.834 228.141 452.996 228.209L453.012 228.218L454.78 228.97Z" fill="url(#paint82_linear_501_1927)"/>
<path d="M454.774 228.98C454.747 229.017 454.613 229.197 454.408 229.479C454.348 229.491 454.29 229.509 454.234 229.531C453.088 229.962 450.881 233.446 449.185 236.53C448.298 237.71 447.633 238.575 447.525 238.663C447.593 238.53 451.912 229.893 454.069 229.08C454.293 228.991 454.534 228.956 454.774 228.98Z" fill="url(#paint83_linear_501_1927)"/>
<path d="M454.773 228.979C454.531 228.956 454.288 228.992 454.063 229.084C451.906 229.889 447.587 238.534 447.52 238.668C449.992 237.714 452.252 236.284 454.171 234.46C456.319 232.376 456.288 229.169 454.773 228.979ZM453.837 234.115C452.281 235.592 450.494 236.807 448.547 237.713C448.747 237.333 448.96 236.937 449.181 236.534C450.877 233.45 453.084 229.967 454.229 229.535C454.286 229.513 454.344 229.496 454.404 229.483C454.476 229.465 454.551 229.456 454.626 229.456C454.726 229.456 455.034 229.456 455.233 229.939C455.631 230.905 455.21 232.783 453.837 234.115Z" fill="#F20919"/>
<path d="M455.236 229.932C455.038 229.449 454.73 229.449 454.63 229.449C454.555 229.449 454.48 229.459 454.407 229.477C454.348 229.489 454.289 229.506 454.233 229.528C454.089 229.589 453.954 229.67 453.831 229.768C453.96 230.799 453.483 232.324 452.313 233.459C451.524 234.221 450.667 234.909 449.753 235.516C449.559 235.854 449.369 236.194 449.185 236.527C448.964 236.93 448.751 237.332 448.551 237.706C450.498 236.801 452.284 235.585 453.841 234.108C455.211 232.781 455.632 230.907 455.236 229.932Z" fill="url(#paint84_linear_501_1927)"/>
<path d="M445.062 237.507C443.61 236.611 441.7 235.788 440.478 236.702C438.633 238.075 438.081 241.336 439.446 242.072L437.716 241.369C437.681 241.353 437.645 241.335 437.611 241.316H437.599C436.308 240.523 436.863 237.333 438.684 235.979C440.835 234.37 444.954 237.43 445.062 237.507Z" fill="url(#paint85_linear_501_1927)"/>
<path d="M445.065 237.508C443.613 236.613 441.703 235.79 440.482 236.703C438.636 238.077 438.084 241.338 439.449 242.074C439.734 242.216 440.058 242.261 440.371 242.201C443.425 241.742 447.027 238.95 447.027 238.95C446.411 238.42 445.755 237.938 445.065 237.508ZM440.296 241.723C440.225 241.734 440.154 241.74 440.082 241.74C439.941 241.744 439.802 241.713 439.677 241.649C439.293 241.443 439.193 240.9 439.175 240.597C439.098 239.526 439.628 237.93 440.766 237.083C441.059 236.874 441.414 236.768 441.774 236.782C442.557 236.782 443.592 237.165 444.77 237.888L444.812 237.916C445.307 238.225 445.784 238.562 446.241 238.924C445.175 239.676 442.55 241.385 440.296 241.723Z" fill="#F20919"/>
<path d="M445.166 238.145C444.1 238.897 441.475 240.605 439.223 240.943C439.244 241.085 439.294 241.22 439.371 241.341C439.448 241.461 439.55 241.564 439.67 241.642C439.795 241.706 439.934 241.738 440.075 241.734C440.146 241.734 440.218 241.728 440.289 241.716C442.548 241.378 445.168 239.67 446.234 238.918C445.971 238.71 445.6 238.431 445.166 238.145Z" fill="url(#paint86_linear_501_1927)"/>
<path d="M479.852 220.154C478.138 219.574 475.084 221.476 474.926 227.206C474.768 232.936 474.926 240.744 474.926 240.744L461.797 249.26C461.797 249.26 464.549 249.495 465.414 251.379C466.279 253.263 466.435 253.985 466.435 253.985C466.435 253.985 481.61 245.57 482.16 243.451C482.711 241.332 483.362 221.344 479.852 220.154Z" fill="#F60D59"/>
<path d="M462.947 249.5C462.947 249.5 459.882 251.04 457.84 252.37C455.797 253.7 454.863 256.749 454.936 257.061C455.008 257.373 457.436 259.172 458.183 259.172C458.93 259.172 460.89 256.357 462.457 255.418C464.023 254.479 465.887 252.468 465.887 252.468C465.887 252.468 466.09 250.07 462.947 249.5Z" fill="#FA9BBC"/>
<path d="M458.143 197.815C458.143 197.815 458.835 202.194 463.033 201.693C467.231 201.192 467.711 204.446 467.913 204.446C468.115 204.446 467.913 205.634 468.358 205.259C468.804 204.884 469.138 201.859 469.972 202.183C470.806 202.507 469.076 205.508 469.972 206.322C470.867 207.135 473.45 204.616 474.515 201.99C474.779 201.336 475.063 198.811 475.063 196.69C475.063 196.69 473.623 191.312 466.292 190.531C458.961 189.75 456.705 196.506 456.831 198.506C456.957 200.506 458.144 202.257 458.144 202.257C458.144 202.257 459.458 199.129 458.143 197.815Z" fill="#5B1B4D"/>
<path d="M456.857 198.809C456.857 198.809 460.138 203.402 466.981 202.112C473.823 200.822 475.272 197.946 475.272 197.946C475.272 197.946 476.817 190.441 467.913 189.473C459.009 188.506 456.7 194.108 456.857 198.809Z" fill="url(#paint87_linear_501_1927)"/>
<path d="M456.857 198.812L452.719 202.344C452.719 202.344 454.526 200.251 457.538 202.785C460.55 205.32 461.603 205.625 464.262 204.673C466.921 203.721 469.486 201.526 469.486 201.526C469.486 201.526 460.845 201.119 456.857 198.812Z" fill="url(#paint88_linear_501_1927)"/>
<path d="M352.857 151.344L353.146 151.479L353.215 151.511L353.299 151.552C353.446 151.616 353.593 151.679 353.737 151.737C353.88 151.795 354.032 151.851 354.179 151.898C354.203 151.898 354.229 151.912 354.253 151.922L354.319 151.943C354.419 151.977 354.517 152.011 354.616 152.04C354.768 152.086 354.918 152.127 355.068 152.164C355.139 152.183 355.21 152.196 355.282 152.212L355.376 152.233C355.423 152.242 355.469 152.255 355.514 152.263C355.676 152.296 355.837 152.321 355.998 152.342C356.095 152.355 356.19 152.363 356.287 152.371L356.386 152.383L356.484 152.392C356.657 152.403 356.828 152.41 356.997 152.408C357.07 152.41 357.144 152.407 357.217 152.399H357.388C357.446 152.4 357.505 152.397 357.563 152.391C357.775 152.371 357.985 152.341 358.193 152.299H358.204C358.251 152.289 358.293 152.273 358.338 152.263C358.547 152.219 358.753 152.162 358.956 152.093L359.003 152.07C359.293 151.967 359.573 151.837 359.84 151.684L368.602 146.601C368.335 146.755 368.055 146.884 367.765 146.988C367.547 147.066 367.324 147.13 367.098 147.179C367.055 147.19 367.011 147.207 366.966 147.216C366.696 147.269 366.424 147.304 366.15 147.319L365.979 147.327C365.702 147.338 365.424 147.333 365.148 147.311L365.048 147.3C364.744 147.271 364.441 147.225 364.143 147.161L364.049 147.141C363.722 147.068 363.399 146.978 363.081 146.872L363.015 146.851C362.674 146.733 362.328 146.595 361.978 146.435L361.908 146.403C361.552 146.242 361.19 146.052 360.824 145.841C360.458 145.63 360.092 145.396 359.732 145.148L359.667 145.102C359.333 144.868 359.003 144.619 358.678 144.358L358.569 144.269C358.254 144.011 357.945 143.743 357.639 143.464L357.533 143.364C357.225 143.074 356.921 142.773 356.626 142.461L356.552 142.383C356.237 142.047 355.928 141.699 355.629 141.338L355.621 141.328C355.314 140.96 355.017 140.581 354.729 140.191C354.467 139.837 354.217 139.473 353.972 139.104C353.82 138.876 353.677 138.639 353.532 138.406C353.411 138.209 353.285 138.014 353.169 137.816C353.114 137.721 353.062 137.624 353.007 137.529C352.817 137.194 352.631 136.858 352.457 136.515L352.399 136.404C352.189 135.987 351.989 135.565 351.804 135.141C351.794 135.12 351.786 135.098 351.776 135.077C351.594 134.66 351.425 134.241 351.268 133.817C351.257 133.79 351.247 133.763 351.238 133.735C351.076 133.305 350.931 132.874 350.8 132.437C350.797 132.411 350.789 132.385 350.778 132.362C350.654 131.944 350.542 131.526 350.444 131.109C350.434 131.07 350.426 131.031 350.416 130.991C350.318 130.563 350.232 130.134 350.165 129.703C350.163 129.695 350.163 129.688 350.165 129.68C350.095 129.25 350.045 128.823 350.003 128.392C350.005 128.357 350.002 128.323 349.995 128.289C349.961 127.865 349.942 127.443 349.944 127.029C349.945 126.615 349.966 126.224 350.002 125.833L350.011 125.73C350.047 125.376 350.096 125.037 350.16 124.712C350.17 124.668 350.178 124.625 350.187 124.581C350.25 124.276 350.328 123.974 350.421 123.676C350.437 123.622 350.457 123.568 350.474 123.515C350.562 123.251 350.664 122.991 350.779 122.737C350.791 122.71 350.802 122.68 350.815 122.652C350.943 122.378 351.09 122.113 351.254 121.858C351.275 121.826 351.299 121.799 351.32 121.766C351.451 121.572 351.592 121.385 351.744 121.206C351.799 121.142 351.855 121.082 351.905 121.022C352.035 120.883 352.172 120.751 352.315 120.626C352.375 120.575 352.431 120.522 352.493 120.473C352.692 120.312 352.903 120.165 353.124 120.035L344.362 125.118C344.141 125.248 343.93 125.394 343.731 125.556C343.668 125.606 343.609 125.66 343.553 125.717C343.41 125.842 343.273 125.974 343.143 126.113C343.087 126.171 343.033 126.233 342.982 126.297C342.83 126.475 342.689 126.662 342.558 126.857C342.537 126.889 342.513 126.917 342.492 126.949C342.487 126.956 342.482 126.963 342.476 126.97C342.324 127.21 342.187 127.459 342.064 127.715C342.065 127.721 342.064 127.726 342.062 127.731C342.06 127.735 342.057 127.74 342.053 127.743C342.038 127.77 342.026 127.798 342.017 127.828C341.942 127.989 341.867 128.16 341.803 128.335C341.769 128.424 341.743 128.516 341.712 128.606C341.695 128.659 341.675 128.712 341.659 128.767C341.643 128.822 341.625 128.86 341.611 128.91C341.558 129.091 341.509 129.276 341.466 129.468C341.451 129.534 341.438 129.604 341.425 129.672C341.412 129.74 341.408 129.759 341.398 129.803C341.388 129.846 341.37 129.933 341.359 130.001C341.328 130.171 341.303 130.344 341.28 130.521C341.269 130.619 341.261 130.719 341.249 130.819L341.24 130.923C341.24 130.965 341.23 131.006 341.227 131.047C341.212 131.208 341.201 131.387 341.195 131.561C341.188 131.735 341.183 131.909 341.182 132.088V132.603C341.182 132.764 341.196 132.953 341.207 133.13C341.207 133.21 341.22 133.291 341.227 133.371V133.476C341.229 133.537 341.233 133.599 341.241 133.66C341.257 133.837 341.278 134.014 341.301 134.193C341.324 134.371 341.349 134.557 341.378 134.739C341.377 134.744 341.377 134.75 341.378 134.756C341.377 134.763 341.377 134.77 341.378 134.777C341.406 134.948 341.435 135.119 341.467 135.289C341.499 135.46 341.541 135.668 341.583 135.858C341.598 135.925 341.614 135.993 341.63 136.059C341.646 136.125 341.649 136.14 341.658 136.18L341.716 136.428C341.764 136.621 341.814 136.814 341.869 137.006C341.908 137.148 341.95 137.289 341.993 137.431C341.997 137.457 342.004 137.483 342.014 137.507L342.037 137.583C342.095 137.771 342.154 137.958 342.217 138.146C342.28 138.335 342.345 138.517 342.411 138.702C342.424 138.737 342.438 138.771 342.451 138.805C342.464 138.839 342.471 138.86 342.482 138.887C342.526 139.003 342.567 139.121 342.613 139.235C342.682 139.412 342.753 139.589 342.826 139.765C342.879 139.892 342.934 140.018 342.987 140.145L343.016 140.211C343.027 140.235 343.037 140.261 343.048 140.285C343.126 140.46 343.21 140.636 343.287 140.81C343.364 140.984 343.471 141.195 343.566 141.386L343.611 141.473L343.669 141.585C343.747 141.746 343.831 141.889 343.905 142.04C344.007 142.229 344.115 142.414 344.228 142.601C344.282 142.696 344.332 142.791 344.389 142.884C344.412 142.921 344.431 142.961 344.453 142.998C344.549 143.16 344.655 143.321 344.755 143.482C344.899 143.715 345.041 143.949 345.192 144.177C345.217 144.214 345.238 144.253 345.262 144.288C345.486 144.623 345.717 144.95 345.954 145.272C346.115 145.487 346.277 145.702 346.438 145.917C346.572 146.078 346.707 146.255 346.846 146.421C346.985 146.588 347.125 146.752 347.267 146.913C347.407 147.075 347.549 147.236 347.693 147.384C347.716 147.41 347.74 147.434 347.762 147.458L347.837 147.535L348.14 147.857C348.292 148.018 348.445 148.165 348.6 148.313C348.647 148.358 348.695 148.402 348.743 148.445C348.792 148.489 348.814 148.513 348.851 148.545C348.927 148.616 349.003 148.688 349.079 148.757C349.24 148.902 349.402 149.042 349.563 149.181L349.777 149.357L349.886 149.443C349.94 149.487 349.994 149.534 350.047 149.576C350.208 149.701 350.37 149.822 350.531 149.941C350.647 150.026 350.763 150.102 350.881 150.189L350.944 150.234L351.005 150.278C351.167 150.382 351.313 150.484 351.468 150.584C351.623 150.684 351.775 150.774 351.93 150.866L352.038 150.928C352.154 150.994 352.268 151.059 352.385 151.122C352.547 151.186 352.705 151.26 352.857 151.344Z" fill="#F60D59"/>
<path d="M382.547 151.025C382.563 150.642 382.572 150.256 382.576 149.867V148.74C382.566 148.361 382.548 147.981 382.524 147.596C382.526 147.535 382.522 147.473 382.511 147.413C382.526 147.189 382.539 146.963 382.548 146.738C382.56 146.45 382.568 146.157 382.569 145.86V145.815C382.569 145.493 382.569 145.171 382.556 144.838C382.558 144.776 382.555 144.714 382.547 144.652C382.547 144.52 382.535 144.388 382.529 144.258C382.529 144.097 382.516 143.946 382.506 143.789C382.506 143.67 382.487 143.551 382.479 143.43L382.445 143.013C382.442 142.92 382.435 142.828 382.422 142.736C382.403 142.538 382.379 142.338 382.356 142.14C382.343 142.023 382.332 141.907 382.317 141.789C382.316 141.751 382.311 141.713 382.305 141.675C382.258 141.313 382.205 140.95 382.143 140.586V140.564C382.139 140.513 382.13 140.463 382.117 140.414C382.067 140.106 382.016 139.799 381.956 139.491C381.946 139.436 381.934 139.383 381.924 139.33C381.895 139.185 381.864 139.04 381.835 138.895C381.798 138.718 381.766 138.541 381.727 138.364C381.706 138.265 381.68 138.167 381.658 138.071C381.622 137.91 381.585 137.749 381.546 137.587C381.517 137.465 381.491 137.344 381.462 137.222C381.433 137.1 381.385 136.93 381.346 136.785C381.308 136.641 381.264 136.463 381.222 136.31C381.199 136.23 381.182 136.149 381.159 136.074C381.103 135.866 381.038 135.66 380.978 135.454C380.938 135.317 380.899 135.18 380.859 135.045C380.846 135.006 380.836 134.967 380.825 134.929C380.711 134.557 380.59 134.183 380.465 133.809V133.798L380.432 133.698C380.319 133.376 380.204 133.036 380.085 132.706C380.067 132.655 380.046 132.605 380.027 132.545C379.981 132.42 379.933 132.294 379.886 132.168C379.818 131.993 379.754 131.814 379.686 131.638C379.643 131.526 379.594 131.413 379.551 131.302C379.496 131.163 379.439 131.027 379.389 130.89C379.347 130.788 379.309 130.687 379.267 130.585C379.184 130.389 379.105 130.191 379.012 129.993C378.965 129.885 378.92 129.775 378.871 129.671C378.855 129.63 378.839 129.592 378.821 129.553C378.667 129.202 378.505 128.852 378.337 128.505C378.332 128.491 378.326 128.478 378.32 128.466C378.276 128.373 378.228 128.279 378.183 128.184C378.052 127.912 377.923 127.638 377.787 127.368C377.766 127.326 377.744 127.285 377.723 127.245C377.615 127.028 377.5 126.812 377.387 126.601C377.297 126.425 377.21 126.25 377.116 126.076C377.1 126.045 377.081 126.015 377.064 125.983C376.761 125.42 376.448 124.864 376.126 124.314C376.098 124.267 376.074 124.219 376.046 124.174C376.019 124.129 375.98 124.071 375.95 124.013C375.49 123.24 375.012 122.48 374.515 121.733C374.488 121.692 374.465 121.651 374.438 121.61C374.393 121.543 374.343 121.478 374.298 121.409C373.896 120.816 373.491 120.23 373.065 119.657C372.765 119.249 372.457 118.852 372.145 118.451L372.105 118.397C371.876 118.108 371.644 117.822 371.41 117.539C371.365 117.486 371.321 117.43 371.276 117.378V117.368C370.999 117.038 370.72 116.711 370.439 116.389L370.395 116.342C370.308 116.243 370.217 116.146 370.129 116.048C369.951 115.85 369.774 115.65 369.595 115.457C369.559 115.42 369.524 115.384 369.49 115.347C369.367 115.215 369.241 115.088 369.119 114.959C368.996 114.83 368.846 114.669 368.707 114.529C368.656 114.476 368.603 114.426 368.546 114.368C368.411 114.231 368.273 114.099 368.138 113.965C368.002 113.832 367.906 113.734 367.788 113.621C367.722 113.556 367.652 113.495 367.586 113.432C367.438 113.292 367.288 113.154 367.138 113.017C367.036 112.924 366.936 112.827 366.834 112.735C366.733 112.643 366.673 112.593 366.591 112.522C366.441 112.389 366.289 112.258 366.137 112.128C366.049 112.051 365.96 111.967 365.87 111.894L365.571 111.651L365.131 111.291L364.903 111.107C364.779 111.009 364.651 110.917 364.527 110.82L364.117 110.508C364.061 110.468 364.006 110.422 363.956 110.382C363.795 110.258 363.616 110.141 363.446 110.02L363.101 109.775L363.012 109.712C362.706 109.503 362.399 109.3 362.09 109.104H362.08L362.022 109.068C361.739 108.889 361.457 108.715 361.172 108.548L360.957 108.424C360.726 108.29 360.497 108.163 360.268 108.039L360.007 107.904L359.653 107.722C359.561 107.675 359.469 107.624 359.379 107.58C359.232 107.508 359.089 107.443 358.944 107.374L358.621 107.226L358.493 107.166C358.205 107.037 357.918 106.915 357.632 106.801H357.621C357.329 106.683 357.038 106.577 356.749 106.478L356.638 106.443C356.533 106.406 356.428 106.374 356.315 106.34C356.169 106.292 356.019 106.24 355.873 106.195L355.656 106.135L355.272 106.029C355.173 106.003 355.073 105.973 354.976 105.949C354.88 105.925 354.773 105.905 354.671 105.881L354.289 105.796C354.221 105.783 354.154 105.763 354.087 105.751C353.968 105.728 353.85 105.714 353.732 105.693C353.586 105.668 353.437 105.641 353.292 105.62L353.131 105.594C353.01 105.578 352.892 105.572 352.773 105.559C352.611 105.541 352.45 105.522 352.303 105.511C352.258 105.511 352.211 105.499 352.164 105.496C352.059 105.496 351.958 105.496 351.853 105.486C351.667 105.477 351.483 105.469 351.301 105.469H351.14C351.059 105.469 350.978 105.478 350.904 105.48C350.674 105.48 350.446 105.496 350.222 105.512C350.153 105.511 350.084 105.514 350.015 105.522C349.949 105.532 349.917 105.54 349.867 105.544C349.522 105.58 349.18 105.627 348.847 105.691C348.82 105.693 348.792 105.697 348.765 105.704H348.742C348.673 105.718 348.607 105.738 348.538 105.752C348.333 105.799 348.128 105.846 347.926 105.902C347.828 105.931 347.732 105.963 347.634 105.994C347.505 106.034 347.374 106.071 347.248 106.115C347.216 106.126 347.187 106.142 347.155 106.153C346.96 106.224 346.769 106.305 346.579 106.387C346.487 106.427 346.393 106.462 346.303 106.504C346.027 106.635 345.756 106.773 345.496 106.926L336.734 112.009C336.999 111.856 337.27 111.717 337.541 111.587C337.631 111.545 337.727 111.51 337.819 111.469C338.007 111.387 338.198 111.308 338.393 111.236C338.554 111.178 338.716 111.128 338.877 111.075C338.974 111.044 339.069 111.012 339.167 110.985C339.369 110.927 339.574 110.88 339.78 110.833C339.848 110.819 339.914 110.799 339.984 110.785L340.088 110.769C340.422 110.704 340.763 110.656 341.108 110.621C341.226 110.608 341.344 110.598 341.463 110.588C341.687 110.572 341.915 110.563 342.145 110.556H342.536C342.718 110.556 342.902 110.566 343.088 110.574C343.238 110.574 343.386 110.587 343.538 110.598C343.689 110.609 343.849 110.629 344.007 110.646C344.165 110.664 344.348 110.683 344.52 110.708C344.666 110.728 344.814 110.756 344.961 110.78C345.145 110.812 345.33 110.844 345.517 110.883L345.896 110.975C346.095 111.02 346.296 111.07 346.497 111.125C346.624 111.158 346.752 111.192 346.881 111.229C347.098 111.292 347.319 111.361 347.542 111.434C347.645 111.469 347.75 111.5 347.855 111.537C348.178 111.648 348.5 111.767 348.834 111.899H348.844C349.167 112.03 349.499 112.173 349.83 112.323C349.936 112.371 350.041 112.423 350.152 112.473C350.386 112.582 350.622 112.698 350.859 112.817L351.214 113.001C351.537 113.162 351.846 113.337 352.164 113.521C352.519 113.726 352.873 113.941 353.224 114.165L353.289 114.205C353.631 114.423 353.97 114.65 354.308 114.882C354.425 114.962 354.539 115.043 354.655 115.128L355.328 115.611C355.467 115.714 355.602 115.819 355.739 115.924C355.941 116.085 356.143 116.235 356.343 116.396C356.49 116.513 356.636 116.634 356.783 116.755L357.351 117.238C357.501 117.367 357.651 117.497 357.801 117.629C357.985 117.79 358.169 117.951 358.351 118.127C358.501 118.264 358.65 118.401 358.797 118.539C358.982 118.715 359.168 118.893 359.35 119.074L359.758 119.476C359.949 119.668 360.136 119.863 360.323 120.058C360.447 120.188 360.575 120.317 360.697 120.451C360.912 120.679 361.125 120.913 361.343 121.148C361.433 121.248 361.523 121.345 361.61 121.444C361.91 121.784 362.207 122.13 362.499 122.48C362.546 122.535 362.59 122.593 362.635 122.641C362.882 122.939 363.119 123.24 363.367 123.546C363.68 123.944 363.987 124.347 364.288 124.754C364.711 125.326 365.119 125.912 365.521 126.504L365.739 126.826C366.236 127.578 366.714 128.338 367.173 129.107C367.231 129.207 367.291 129.303 367.349 129.403C367.672 129.954 367.985 130.51 368.288 131.072C368.398 131.278 368.504 131.486 368.611 131.693C368.717 131.901 368.836 132.122 368.945 132.337C369.106 132.66 369.256 132.965 369.408 133.283C369.451 133.375 369.498 133.466 369.542 133.56C369.73 133.959 369.911 134.365 370.088 134.764C370.137 134.872 370.182 134.982 370.229 135.086C370.358 135.384 370.484 135.683 370.606 135.983C370.661 136.12 370.718 136.257 370.768 136.396C370.882 136.686 370.995 136.976 371.103 137.265C371.15 137.389 371.198 137.513 371.244 137.637C371.384 138.021 371.519 138.402 371.649 138.786C371.66 138.819 371.673 138.852 371.682 138.884C371.823 139.299 371.953 139.715 372.081 140.132C372.121 140.266 372.16 140.401 372.199 140.536C372.283 140.823 372.36 141.108 372.444 141.396C372.486 141.557 372.528 141.718 372.568 141.879C372.637 142.147 372.705 142.414 372.768 142.685C372.807 142.846 372.844 143.007 372.879 143.168C372.942 143.443 373 143.718 373.057 143.994C373.086 144.137 373.117 144.282 373.146 144.427C373.215 144.789 373.278 145.152 373.338 145.512C373.342 145.563 373.351 145.613 373.363 145.662C373.43 146.073 373.486 146.482 373.536 146.889C373.551 147.005 373.562 147.121 373.575 147.236C373.607 147.529 373.638 147.82 373.664 148.112L373.697 148.529C373.717 148.806 373.735 149.081 373.747 149.357C373.747 149.489 373.76 149.621 373.765 149.751C373.78 150.141 373.789 150.529 373.788 150.914C373.788 151.461 373.764 151.988 373.73 152.511C373.772 153.114 373.791 153.708 373.799 154.296V154.618C373.799 155.175 373.789 155.728 373.764 156.272C373.764 156.389 373.749 156.505 373.741 156.623C373.715 157.075 373.678 157.525 373.633 157.969C373.618 158.114 373.604 158.261 373.588 158.406C373.539 158.815 373.481 159.211 373.426 159.618C373.401 159.779 373.38 159.953 373.351 160.118C373.262 160.633 373.162 161.14 373.047 161.641C373.038 161.685 373.031 161.73 373.021 161.773C373.012 161.817 373 161.85 372.991 161.889C372.857 162.466 372.708 163.033 372.544 163.591C372.502 163.741 372.45 163.886 372.405 164.034C372.241 164.571 372.065 165.094 371.879 165.603C371.791 165.848 371.699 166.086 371.607 166.331C371.524 166.542 371.445 166.753 371.355 166.96C371.234 167.249 371.111 167.534 370.984 167.816C370.895 168.015 370.806 168.217 370.714 168.413C370.622 168.609 370.529 168.79 370.437 168.978C370.212 169.432 369.98 169.879 369.742 170.318C369.653 170.479 369.566 170.64 369.474 170.801C369.151 171.368 368.828 171.929 368.48 172.466L368.406 172.581C368.106 173.049 367.796 173.508 367.483 173.956C367.373 174.117 367.262 174.264 367.151 174.417C366.912 174.747 366.671 175.072 366.428 175.391L366.057 175.874C365.807 176.196 365.552 176.504 365.297 176.81C365.187 176.94 365.079 177.074 364.974 177.203C364.613 177.626 364.248 178.042 363.88 178.443C363.859 178.465 363.838 178.485 363.819 178.507C363.469 178.887 363.119 179.256 362.767 179.612L362.412 179.965C362.156 180.222 361.898 180.474 361.641 180.718C361.514 180.841 361.384 180.963 361.257 181.082C360.999 181.324 360.741 181.566 360.486 181.789L360.163 182.084C359.803 182.406 359.448 182.707 359.1 182.999L359.061 183.029C358.725 183.313 358.393 183.581 358.066 183.835L357.743 184.084C357.512 184.265 357.285 184.44 357.062 184.609L356.73 184.859C356.511 185.02 356.296 185.181 356.085 185.331L355.815 185.526C355.526 185.73 355.246 185.928 354.981 186.107L354.963 186.12C354.7 186.299 354.454 186.463 354.218 186.617L353.999 186.759L353.54 187.052L353.332 187.183L352.945 187.421L352.798 187.51L352.385 187.753L361.147 182.67L361.56 182.427L361.706 182.339L362.094 182.1L362.302 181.97C362.448 181.878 362.601 181.78 362.761 181.675L362.98 181.535C363.216 181.374 363.464 181.213 363.725 181.037L363.743 181.024C364.008 180.844 364.288 180.648 364.579 180.441L364.843 180.25C365.059 180.098 365.274 179.941 365.489 179.776L365.821 179.527C366.044 179.366 366.271 179.184 366.502 179.002L366.825 178.752C367.147 178.493 367.483 178.225 367.82 177.947L367.859 177.915C368.207 177.625 368.562 177.317 368.92 177C369.03 176.905 369.138 176.805 369.243 176.707C369.5 176.477 369.756 176.24 370.014 176C370.143 175.881 370.269 175.76 370.398 175.637C370.655 175.393 370.911 175.14 371.169 174.884C371.287 174.765 371.407 174.649 371.524 174.528C371.873 174.172 372.221 173.808 372.57 173.431C372.592 173.407 372.615 173.384 372.637 173.359C373.005 172.959 373.37 172.546 373.731 172.12C373.841 171.991 373.951 171.858 374.054 171.727C374.311 171.42 374.564 171.111 374.815 170.792L375.185 170.309C375.428 169.986 375.668 169.664 375.906 169.342C376.017 169.181 376.13 169.036 376.24 168.878C376.555 168.431 376.863 167.973 377.163 167.505C377.184 167.471 377.208 167.437 377.231 167.403V167.39C377.574 166.851 377.903 166.294 378.224 165.725L378.494 165.242C378.733 164.804 378.963 164.358 379.186 163.905C379.241 163.794 379.302 163.69 379.347 163.583C379.386 163.504 379.42 163.422 379.457 163.342C379.549 163.147 379.636 162.947 379.725 162.749C379.852 162.464 379.977 162.179 380.098 161.889C380.183 161.681 380.259 161.472 380.349 161.263C380.406 161.116 380.469 160.973 380.523 160.825C380.559 160.73 380.586 160.628 380.622 160.531C380.809 160.017 380.984 159.494 381.148 158.963C381.182 158.852 381.224 158.747 381.258 158.641C381.269 158.602 381.277 158.564 381.287 158.525C381.449 157.969 381.597 157.404 381.732 156.831C381.738 156.792 381.747 156.753 381.761 156.716V156.712C381.764 156.67 381.772 156.63 381.785 156.591C381.89 156.124 381.988 155.652 382.072 155.172C382.075 155.133 382.081 155.094 382.09 155.056C382.117 154.895 382.14 154.724 382.166 154.558C382.213 154.256 382.264 153.954 382.303 153.648C382.316 153.547 382.324 153.444 382.335 153.342C382.351 153.199 382.366 153.054 382.38 152.909C382.4 152.727 382.422 152.549 382.437 152.367C382.461 152.099 382.474 151.827 382.489 151.561C382.489 151.445 382.506 151.331 382.511 151.215C382.533 151.154 382.545 151.09 382.547 151.025Z" fill="#F60D59"/>
<path d="M373.736 152.494C375.285 175.017 353.124 187.341 351.956 187.99C350.797 186.001 328.785 148.212 330.397 127.524C330.419 126.991 330.397 126.438 330.397 125.891C330.436 112.144 340.183 106.606 352.162 113.51C364.141 120.414 373.826 137.151 373.781 150.898C373.792 151.445 373.77 151.972 373.736 152.494ZM352.062 150.912C358.096 154.389 363.001 151.6 363.02 144.686C363.039 137.773 358.167 129.34 352.135 125.863C346.103 122.386 341.201 125.181 341.182 132.101C341.163 139.021 346.036 147.443 352.062 150.912Z" fill="url(#paint89_linear_501_1927)"/>
<path d="M340.537 132.749C340.518 139.662 345.392 148.088 351.417 151.562C355.246 153.767 358.613 153.443 360.573 151.151C358.563 152.839 355.498 152.899 352.063 150.919C346.035 147.446 341.162 139.02 341.181 132.106C341.189 129.575 341.854 127.597 342.985 126.281C341.465 127.563 340.545 129.768 340.537 132.749Z" fill="url(#paint90_linear_501_1927)"/>
<path d="M373.736 152.497C373.77 151.974 373.793 151.447 373.794 150.9C373.833 137.153 364.155 120.419 352.176 113.512C344.754 109.234 338.191 109.737 334.268 114.005C338.249 110.341 344.507 110.102 351.53 114.154C363.516 121.062 373.194 137.796 373.149 151.542C373.149 152.09 373.125 152.617 373.091 153.14C373.91 165.057 368.089 174.127 362.248 180.113C368.293 174.142 374.586 164.859 373.736 152.497Z" fill="url(#paint91_linear_501_1927)"/>
<rect width="629" height="251" transform="matrix(-1 0 0 1 611.5 70.9531)" fill="url(#paint92_linear_501_1927)"/>
</g>
<defs>
<linearGradient id="paint0_linear_501_1927" x1="433.497" y1="123.194" x2="433.497" y2="350.154" gradientUnits="userSpaceOnUse">
<stop stop-color="#FEE1E7"/>
<stop offset="1" stop-color="#FCFFFF"/>
</linearGradient>
<linearGradient id="paint1_linear_501_1927" x1="492.393" y1="176.447" x2="504.61" y2="224.462" gradientUnits="userSpaceOnUse">
<stop stop-color="#FDD7E8"/>
<stop offset="1" stop-color="#FBADC8"/>
</linearGradient>
<linearGradient id="paint2_linear_501_1927" x1="473.867" y1="172.073" x2="535.694" y2="189.854" gradientUnits="userSpaceOnUse">
<stop stop-color="#A55390"/>
<stop offset="1" stop-color="#F986B0"/>
</linearGradient>
<linearGradient id="paint3_linear_501_1927" x1="456.262" y1="133.255" x2="389.938" y2="133.255" gradientUnits="userSpaceOnUse">
<stop stop-color="#FDD7E8"/>
<stop offset="1" stop-color="#FEE9F3"/>
</linearGradient>
<linearGradient id="paint4_linear_501_1927" x1="471.025" y1="137.644" x2="499.237" y2="117.14" gradientUnits="userSpaceOnUse">
<stop stop-color="#A55390"/>
<stop offset="1" stop-color="#F986B0"/>
</linearGradient>
<linearGradient id="paint5_linear_501_1927" x1="389.938" y1="151.289" x2="498.713" y2="151.289" gradientUnits="userSpaceOnUse">
<stop stop-color="#A55390"/>
<stop offset="1" stop-color="#F986B0"/>
</linearGradient>
<linearGradient id="paint6_linear_501_1927" x1="426.194" y1="235.5" x2="433.71" y2="195.649" gradientUnits="userSpaceOnUse">
<stop stop-color="#FDD7E8"/>
<stop offset="1" stop-color="#FEE9F3"/>
</linearGradient>
<linearGradient id="paint7_linear_501_1927" x1="488.42" y1="239.085" x2="488.173" y2="203.074" gradientUnits="userSpaceOnUse">
<stop stop-color="#A55390"/>
<stop offset="1" stop-color="#F986B0"/>
</linearGradient>
<linearGradient id="paint8_linear_501_1927" x1="488.298" y1="235.833" x2="488.298" y2="242.307" gradientUnits="userSpaceOnUse">
<stop stop-color="#FDD7E8"/>
<stop offset="1" stop-color="#FBADC8"/>
</linearGradient>
<linearGradient id="paint9_linear_501_1927" x1="480.938" y1="215.086" x2="493.588" y2="215.086" gradientUnits="userSpaceOnUse">
<stop stop-color="#A55390"/>
<stop offset="1" stop-color="#F986B0"/>
</linearGradient>
<linearGradient id="paint10_linear_501_1927" x1="508.516" y1="201.022" x2="525.949" y2="201.022" gradientUnits="userSpaceOnUse">
<stop stop-color="#FDD7E8"/>
<stop offset="1" stop-color="#FEE9F3"/>
</linearGradient>
<linearGradient id="paint11_linear_501_1927" x1="510.164" y1="201.024" x2="524.3" y2="201.024" gradientUnits="userSpaceOnUse">
<stop stop-color="#A55390"/>
<stop offset="1" stop-color="#F986B0"/>
</linearGradient>
<linearGradient id="paint12_linear_501_1927" x1="526.456" y1="206.832" x2="513.823" y2="215.627" gradientUnits="userSpaceOnUse">
<stop stop-color="#A55390"/>
<stop offset="1" stop-color="#F986B0"/>
</linearGradient>
<linearGradient id="paint13_linear_501_1927" x1="517.232" y1="200.87" x2="518.067" y2="200.87" gradientUnits="userSpaceOnUse">
<stop stop-color="#FDD7E8"/>
<stop offset="1" stop-color="#FEE9F3"/>
</linearGradient>
<linearGradient id="paint14_linear_501_1927" x1="509.834" y1="196.252" x2="524.631" y2="196.252" gradientUnits="userSpaceOnUse">
<stop stop-color="#FDD7E8"/>
<stop offset="1" stop-color="#FEE9F3"/>
</linearGradient>
<linearGradient id="paint15_linear_501_1927" x1="509.834" y1="207.151" x2="524.631" y2="207.151" gradientUnits="userSpaceOnUse">
<stop stop-color="#FDD7E8"/>
<stop offset="1" stop-color="#FEE9F3"/>
</linearGradient>
<linearGradient id="paint16_linear_501_1927" x1="436.989" y1="202.534" x2="419.557" y2="202.534" gradientUnits="userSpaceOnUse">
<stop stop-color="#FDD7E8"/>
<stop offset="1" stop-color="#FEE9F3"/>
</linearGradient>
<linearGradient id="paint17_linear_501_1927" x1="421.203" y1="202.532" x2="435.341" y2="202.532" gradientUnits="userSpaceOnUse">
<stop stop-color="#A55390"/>
<stop offset="1" stop-color="#F986B0"/>
</linearGradient>
<linearGradient id="paint18_linear_501_1927" x1="421.203" y1="215.635" x2="435.341" y2="215.635" gradientUnits="userSpaceOnUse">
<stop stop-color="#A55390"/>
<stop offset="1" stop-color="#F986B0"/>
</linearGradient>
<linearGradient id="paint19_linear_501_1927" x1="428.272" y1="202.38" x2="427.438" y2="202.38" gradientUnits="userSpaceOnUse">
<stop stop-color="#FDD7E8"/>
<stop offset="1" stop-color="#FEE9F3"/>
</linearGradient>
<linearGradient id="paint20_linear_501_1927" x1="435.671" y1="197.764" x2="420.875" y2="197.764" gradientUnits="userSpaceOnUse">
<stop stop-color="#FDD7E8"/>
<stop offset="1" stop-color="#FEE9F3"/>
</linearGradient>
<linearGradient id="paint21_linear_501_1927" x1="435.671" y1="208.659" x2="420.875" y2="208.659" gradientUnits="userSpaceOnUse">
<stop stop-color="#FDD7E8"/>
<stop offset="1" stop-color="#FEE9F3"/>
</linearGradient>
<linearGradient id="paint22_linear_501_1927" x1="388.119" y1="234.984" x2="400.336" y2="282.999" gradientUnits="userSpaceOnUse">
<stop stop-color="#FDD7E8"/>
<stop offset="1" stop-color="#FBADC8"/>
</linearGradient>
<linearGradient id="paint23_linear_501_1927" x1="369.59" y1="230.608" x2="431.419" y2="248.39" gradientUnits="userSpaceOnUse">
<stop stop-color="#A55390"/>
<stop offset="1" stop-color="#F986B0"/>
</linearGradient>
<linearGradient id="paint24_linear_501_1927" x1="351.986" y1="191.789" x2="285.66" y2="191.789" gradientUnits="userSpaceOnUse">
<stop stop-color="#FDD7E8"/>
<stop offset="1" stop-color="#FEE9F3"/>
</linearGradient>
<linearGradient id="paint25_linear_501_1927" x1="366.75" y1="196.177" x2="394.961" y2="175.675" gradientUnits="userSpaceOnUse">
<stop stop-color="#A55390"/>
<stop offset="1" stop-color="#F986B0"/>
</linearGradient>
<linearGradient id="paint26_linear_501_1927" x1="285.66" y1="209.824" x2="394.438" y2="209.824" gradientUnits="userSpaceOnUse">
<stop stop-color="#A55390"/>
<stop offset="1" stop-color="#F986B0"/>
</linearGradient>
<linearGradient id="paint27_linear_501_1927" x1="321.917" y1="294.037" x2="329.435" y2="254.184" gradientUnits="userSpaceOnUse">
<stop stop-color="#FDD7E8"/>
<stop offset="1" stop-color="#FEE9F3"/>
</linearGradient>
<linearGradient id="paint28_linear_501_1927" x1="383.647" y1="295.327" x2="384.144" y2="274.961" gradientUnits="userSpaceOnUse">
<stop stop-color="#A55390"/>
<stop offset="1" stop-color="#F986B0"/>
</linearGradient>
<linearGradient id="paint29_linear_501_1927" x1="384.024" y1="294.368" x2="384.024" y2="300.844" gradientUnits="userSpaceOnUse">
<stop stop-color="#FDD7E8"/>
<stop offset="1" stop-color="#FBADC8"/>
</linearGradient>
<linearGradient id="paint30_linear_501_1927" x1="376.662" y1="273.621" x2="389.312" y2="273.621" gradientUnits="userSpaceOnUse">
<stop stop-color="#A55390"/>
<stop offset="1" stop-color="#F986B0"/>
</linearGradient>
<linearGradient id="paint31_linear_501_1927" x1="404.24" y1="259.561" x2="421.674" y2="259.561" gradientUnits="userSpaceOnUse">
<stop stop-color="#FDD7E8"/>
<stop offset="1" stop-color="#FEE9F3"/>
</linearGradient>
<linearGradient id="paint32_linear_501_1927" x1="405.889" y1="259.56" x2="420.025" y2="259.56" gradientUnits="userSpaceOnUse">
<stop stop-color="#A55390"/>
<stop offset="1" stop-color="#F986B0"/>
</linearGradient>
<linearGradient id="paint33_linear_501_1927" x1="422.18" y1="265.366" x2="409.548" y2="274.162" gradientUnits="userSpaceOnUse">
<stop stop-color="#A55390"/>
<stop offset="1" stop-color="#F986B0"/>
</linearGradient>
<linearGradient id="paint34_linear_501_1927" x1="412.957" y1="259.406" x2="413.791" y2="259.406" gradientUnits="userSpaceOnUse">
<stop stop-color="#FDD7E8"/>
<stop offset="1" stop-color="#FEE9F3"/>
</linearGradient>
<linearGradient id="paint35_linear_501_1927" x1="405.559" y1="254.787" x2="420.356" y2="254.787" gradientUnits="userSpaceOnUse">
<stop stop-color="#FDD7E8"/>
<stop offset="1" stop-color="#FEE9F3"/>
</linearGradient>
<linearGradient id="paint36_linear_501_1927" x1="405.559" y1="265.686" x2="420.356" y2="265.686" gradientUnits="userSpaceOnUse">
<stop stop-color="#FDD7E8"/>
<stop offset="1" stop-color="#FEE9F3"/>
</linearGradient>
<linearGradient id="paint37_linear_501_1927" x1="332.713" y1="261.069" x2="315.281" y2="261.069" gradientUnits="userSpaceOnUse">
<stop stop-color="#FDD7E8"/>
<stop offset="1" stop-color="#FEE9F3"/>
</linearGradient>
<linearGradient id="paint38_linear_501_1927" x1="316.928" y1="261.067" x2="331.065" y2="261.067" gradientUnits="userSpaceOnUse">
<stop stop-color="#A55390"/>
<stop offset="1" stop-color="#F986B0"/>
</linearGradient>
<linearGradient id="paint39_linear_501_1927" x1="316.928" y1="274.174" x2="331.065" y2="274.174" gradientUnits="userSpaceOnUse">
<stop stop-color="#A55390"/>
<stop offset="1" stop-color="#F986B0"/>
</linearGradient>
<linearGradient id="paint40_linear_501_1927" x1="323.996" y1="260.913" x2="323.162" y2="260.913" gradientUnits="userSpaceOnUse">
<stop stop-color="#FDD7E8"/>
<stop offset="1" stop-color="#FEE9F3"/>
</linearGradient>
<linearGradient id="paint41_linear_501_1927" x1="331.395" y1="256.299" x2="316.598" y2="256.299" gradientUnits="userSpaceOnUse">
<stop stop-color="#FDD7E8"/>
<stop offset="1" stop-color="#FEE9F3"/>
</linearGradient>
<linearGradient id="paint42_linear_501_1927" x1="331.395" y1="267.194" x2="316.598" y2="267.194" gradientUnits="userSpaceOnUse">
<stop stop-color="#FDD7E8"/>
<stop offset="1" stop-color="#FEE9F3"/>
</linearGradient>
<linearGradient id="paint43_linear_501_1927" x1="532.587" y1="289.165" x2="509.405" y2="289.165" gradientUnits="userSpaceOnUse">
<stop stop-color="#F84C84"/>
<stop offset="0.99" stop-color="#F7397A"/>
</linearGradient>
<linearGradient id="paint44_linear_501_1927" x1="531.731" y1="288.628" x2="506.101" y2="288.628" gradientUnits="userSpaceOnUse">
<stop stop-color="#F84C84"/>
<stop offset="0.99" stop-color="#F7397A"/>
</linearGradient>
<linearGradient id="paint45_linear_501_1927" x1="521.4" y1="301.898" x2="524.802" y2="283.838" gradientUnits="userSpaceOnUse">
<stop stop-color="#F9598F"/>
<stop offset="0.99" stop-color="#C17F94"/>
</linearGradient>
<linearGradient id="paint46_linear_501_1927" x1="522.926" y1="293.825" x2="523.826" y2="289.041" gradientUnits="userSpaceOnUse">
<stop stop-color="#F9598F"/>
<stop offset="0.99" stop-color="#C17F94"/>
</linearGradient>
<linearGradient id="paint47_linear_501_1927" x1="599.761" y1="255.585" x2="576.579" y2="255.585" gradientUnits="userSpaceOnUse">
<stop stop-color="#F84C84"/>
<stop offset="0.99" stop-color="#F7397A"/>
</linearGradient>
<linearGradient id="paint48_linear_501_1927" x1="598.907" y1="255.059" x2="573.275" y2="255.059" gradientUnits="userSpaceOnUse">
<stop stop-color="#F84C84"/>
<stop offset="0.99" stop-color="#F7397A"/>
</linearGradient>
<linearGradient id="paint49_linear_501_1927" x1="588.575" y1="268.316" x2="591.979" y2="250.256" gradientUnits="userSpaceOnUse">
<stop stop-color="#F9598F"/>
<stop offset="0.99" stop-color="#C17F94"/>
</linearGradient>
<linearGradient id="paint50_linear_501_1927" x1="590.102" y1="260.243" x2="591.004" y2="255.46" gradientUnits="userSpaceOnUse">
<stop stop-color="#F9598F"/>
<stop offset="0.99" stop-color="#C17F94"/>
</linearGradient>
<linearGradient id="paint51_linear_501_1927" x1="607.924" y1="248.726" x2="511.129" y2="248.726" gradientUnits="userSpaceOnUse">
<stop stop-color="#F60D59"/>
<stop offset="1" stop-color="#F60D59"/>
</linearGradient>
<linearGradient id="paint52_linear_501_1927" x1="569.018" y1="267.77" x2="540.996" y2="267.77" gradientUnits="userSpaceOnUse">
<stop stop-color="#E41B40"/>
<stop offset="1" stop-color="#F60D59"/>
</linearGradient>
<linearGradient id="paint53_linear_501_1927" x1="608.266" y1="245.141" x2="572.086" y2="245.141" gradientUnits="userSpaceOnUse">
<stop stop-color="#E41B40"/>
<stop offset="1" stop-color="#F60D59"/>
</linearGradient>
<linearGradient id="paint54_linear_501_1927" x1="572.965" y1="259.221" x2="513.697" y2="259.221" gradientUnits="userSpaceOnUse">
<stop stop-color="#E41B40"/>
<stop offset="1" stop-color="#F60D59"/>
</linearGradient>
<linearGradient id="paint55_linear_501_1927" x1="528.676" y1="256.834" x2="518.059" y2="256.834" gradientUnits="userSpaceOnUse">
<stop stop-color="#E41B40"/>
<stop offset="1" stop-color="#F60D59"/>
</linearGradient>
<linearGradient id="paint56_linear_501_1927" x1="516.506" y1="224.175" x2="504.816" y2="224.175" gradientUnits="userSpaceOnUse">
<stop stop-color="#F84C84"/>
<stop offset="0.99" stop-color="#C17F94"/>
</linearGradient>
<linearGradient id="paint57_linear_501_1927" x1="516.859" y1="226.974" x2="514.453" y2="226.974" gradientUnits="userSpaceOnUse">
<stop stop-color="#EC4173"/>
<stop offset="1" stop-color="#F84783"/>
</linearGradient>
<linearGradient id="paint58_linear_501_1927" x1="521.016" y1="228.011" x2="514.135" y2="228.011" gradientUnits="userSpaceOnUse">
<stop stop-color="#F84C84"/>
<stop offset="0.99" stop-color="#C17F94"/>
</linearGradient>
<linearGradient id="paint59_linear_501_1927" x1="521.726" y1="228.849" x2="516.857" y2="228.849" gradientUnits="userSpaceOnUse">
<stop stop-color="#EC4173"/>
<stop offset="1" stop-color="#F84783"/>
</linearGradient>
<linearGradient id="paint60_linear_501_1927" x1="516.712" y1="229.794" x2="502.242" y2="229.794" gradientUnits="userSpaceOnUse">
<stop stop-color="#F84C84"/>
<stop offset="0.99" stop-color="#C17F94"/>
</linearGradient>
<linearGradient id="paint61_linear_501_1927" x1="529.893" y1="236.637" x2="521.348" y2="227.832" gradientUnits="userSpaceOnUse">
<stop stop-color="#E41B40"/>
<stop offset="1" stop-color="#F60D59"/>
</linearGradient>
<linearGradient id="paint62_linear_501_1927" x1="526.024" y1="236.335" x2="513.867" y2="236.335" gradientUnits="userSpaceOnUse">
<stop stop-color="#F60D59"/>
<stop offset="1" stop-color="#F60D59"/>
</linearGradient>
<linearGradient id="paint63_linear_501_1927" x1="534.876" y1="236.292" x2="527.997" y2="236.292" gradientUnits="userSpaceOnUse">
<stop stop-color="#F84C84"/>
<stop offset="0.99" stop-color="#C17F94"/>
</linearGradient>
<linearGradient id="paint64_linear_501_1927" x1="535.589" y1="237.113" x2="530.72" y2="237.113" gradientUnits="userSpaceOnUse">
<stop stop-color="#EC4173"/>
<stop offset="1" stop-color="#F84783"/>
</linearGradient>
<linearGradient id="paint65_linear_501_1927" x1="544.142" y1="240.21" x2="532.454" y2="240.21" gradientUnits="userSpaceOnUse">
<stop stop-color="#F84C84"/>
<stop offset="0.99" stop-color="#C17F94"/>
</linearGradient>
<linearGradient id="paint66_linear_501_1927" x1="544.493" y1="243.036" x2="542.088" y2="243.036" gradientUnits="userSpaceOnUse">
<stop stop-color="#EC4173"/>
<stop offset="1" stop-color="#F84783"/>
</linearGradient>
<linearGradient id="paint67_linear_501_1927" x1="539.191" y1="242.93" x2="528.022" y2="242.93" gradientUnits="userSpaceOnUse">
<stop stop-color="#F84C84"/>
<stop offset="0.99" stop-color="#C17F94"/>
</linearGradient>
<linearGradient id="paint68_linear_501_1927" x1="523.293" y1="290.24" x2="524.319" y2="284.789" gradientUnits="userSpaceOnUse">
<stop stop-color="#F9598F"/>
<stop offset="0.99" stop-color="#C17F94"/>
</linearGradient>
<linearGradient id="paint69_linear_501_1927" x1="537.325" y1="278.161" x2="506.097" y2="278.161" gradientUnits="userSpaceOnUse">
<stop stop-color="#E41B40"/>
<stop offset="1" stop-color="#F60D59"/>
</linearGradient>
<linearGradient id="paint70_linear_501_1927" x1="620.021" y1="181.188" x2="550.385" y2="181.188" gradientUnits="userSpaceOnUse">
<stop stop-color="#FCE5EE"/>
<stop offset="1" stop-color="#FCE5EE"/>
</linearGradient>
<linearGradient id="paint71_linear_501_1927" x1="566.95" y1="214.097" x2="573.829" y2="189.924" gradientUnits="userSpaceOnUse">
<stop stop-color="#A55390"/>
<stop offset="1" stop-color="#F986B0"/>
</linearGradient>
<linearGradient id="paint72_linear_501_1927" x1="621.531" y1="176.976" x2="548.875" y2="176.976" gradientUnits="userSpaceOnUse">
<stop stop-color="#A55390"/>
<stop offset="1" stop-color="#F986B0"/>
</linearGradient>
<linearGradient id="paint73_linear_501_1927" x1="589.825" y1="189.924" x2="548.875" y2="189.924" gradientUnits="userSpaceOnUse">
<stop stop-color="#A55390"/>
<stop offset="1" stop-color="#F986B0"/>
</linearGradient>
<linearGradient id="paint74_linear_501_1927" x1="576.645" y1="221.074" x2="542.365" y2="221.074" gradientUnits="userSpaceOnUse">
<stop stop-color="#F84C84"/>
<stop offset="0.99" stop-color="#C17F94"/>
</linearGradient>
<linearGradient id="paint75_linear_501_1927" x1="450.279" y1="234.96" x2="480.591" y2="234.96" gradientUnits="userSpaceOnUse">
<stop stop-color="#F60D59"/>
<stop offset="1" stop-color="#F60D59"/>
</linearGradient>
<linearGradient id="paint76_linear_501_1927" x1="430.723" y1="243.017" x2="462.176" y2="243.017" gradientUnits="userSpaceOnUse">
<stop stop-color="#F62169"/>
<stop offset="1" stop-color="#F62D70"/>
</linearGradient>
<linearGradient id="paint77_linear_501_1927" x1="446.449" y1="253.364" x2="462.176" y2="253.364" gradientUnits="userSpaceOnUse">
<stop stop-color="#F62169"/>
<stop offset="1" stop-color="#F7326F"/>
</linearGradient>
<linearGradient id="paint78_linear_501_1927" x1="430.723" y1="253.507" x2="446.449" y2="253.507" gradientUnits="userSpaceOnUse">
<stop stop-color="#F62169"/>
<stop offset="1" stop-color="#F62D70"/>
</linearGradient>
<linearGradient id="paint79_linear_501_1927" x1="429.926" y1="238.702" x2="462.973" y2="238.702" gradientUnits="userSpaceOnUse">
<stop stop-color="#F62169"/>
<stop offset="1" stop-color="#F62D70"/>
</linearGradient>
<linearGradient id="paint80_linear_501_1927" x1="453.614" y1="237.345" x2="455.53" y2="251.739" gradientUnits="userSpaceOnUse">
<stop stop-color="#F62169"/>
<stop offset="1" stop-color="#F7326F"/>
</linearGradient>
<linearGradient id="paint81_linear_501_1927" x1="445.478" y1="245.709" x2="430.003" y2="245.709" gradientUnits="userSpaceOnUse">
<stop stop-color="#F62169"/>
<stop offset="1" stop-color="#F62D70"/>
</linearGradient>
<linearGradient id="paint82_linear_501_1927" x1="453.24" y1="228.03" x2="446.655" y2="238.819" gradientUnits="userSpaceOnUse">
<stop stop-color="#F60D59"/>
<stop offset="1" stop-color="#F61B66"/>
</linearGradient>
<linearGradient id="paint83_linear_501_1927" x1="447.525" y1="233.818" x2="454.774" y2="233.818" gradientUnits="userSpaceOnUse">
<stop stop-color="#F60D59"/>
<stop offset="1" stop-color="#F61B66"/>
</linearGradient>
<linearGradient id="paint84_linear_501_1927" x1="455.077" y1="229.618" x2="449.707" y2="238.412" gradientUnits="userSpaceOnUse">
<stop stop-color="#F60D59"/>
<stop offset="1" stop-color="#F60D59"/>
</linearGradient>
<linearGradient id="paint85_linear_501_1927" x1="442.138" y1="236.476" x2="437.416" y2="240.926" gradientUnits="userSpaceOnUse">
<stop stop-color="#F60D59"/>
<stop offset="1" stop-color="#F61B66"/>
</linearGradient>
<linearGradient id="paint86_linear_501_1927" x1="439.223" y1="239.94" x2="446.234" y2="239.94" gradientUnits="userSpaceOnUse">
<stop stop-color="#F60D59"/>
<stop offset="1" stop-color="#F60D59"/>
</linearGradient>
<linearGradient id="paint87_linear_501_1927" x1="456.849" y1="195.852" x2="475.375" y2="195.852" gradientUnits="userSpaceOnUse">
<stop stop-color="#F60D59"/>
<stop offset="1" stop-color="#F60D59"/>
</linearGradient>
<linearGradient id="paint88_linear_501_1927" x1="452.719" y1="201.992" x2="469.486" y2="201.992" gradientUnits="userSpaceOnUse">
<stop stop-color="#F60D59"/>
<stop offset="1" stop-color="#F60D59"/>
</linearGradient>
<linearGradient id="paint89_linear_501_1927" x1="354.542" y1="117.452" x2="347.669" y2="182.621" gradientUnits="userSpaceOnUse">
<stop stop-color="#F60D59"/>
<stop offset="1" stop-color="#F60D59"/>
</linearGradient>
<linearGradient id="paint90_linear_501_1927" x1="351.877" y1="129.116" x2="349.596" y2="150.753" gradientUnits="userSpaceOnUse">
<stop stop-color="#F60D59"/>
<stop offset="1" stop-color="#FFFEFF"/>
</linearGradient>
<linearGradient id="paint91_linear_501_1927" x1="355.975" y1="116.936" x2="349.908" y2="174.473" gradientUnits="userSpaceOnUse">
<stop stop-color="#F60D59"/>
<stop offset="1" stop-color="#FFFEFF"/>
</linearGradient>
<linearGradient id="paint92_linear_501_1927" x1="295" y1="365.998" x2="343.186" y2="19.6747" gradientUnits="userSpaceOnUse">
<stop stop-color="#191011"/>
<stop offset="0.336667" stop-color="#1F0D12" stop-opacity="0.898865"/>
<stop offset="1" stop-color="#3B0014" stop-opacity="0"/>
</linearGradient>
<clipPath id="clip0_501_1927">
<rect x="0.5" y="0.953125" width="594" height="321" rx="10" fill="white"/>
</clipPath>
</defs>
</svg>
