<svg width="337" height="370" viewBox="0 0 337 370" fill="none" xmlns="http://www.w3.org/2000/svg">
<g opacity="0.6">
<g opacity="0.3">
<path d="M320.594 351.479V346.131L319.121 345.31C318.699 347.833 315.729 349.499 313.242 349.85L296.339 359.75L288.95 362.418L265.359 350.248L265.902 349.934C263.886 348.992 262.811 346.831 261.713 344.863L260.131 345.817L259.189 346.083V351.576C259.248 352.198 259.47 352.793 259.832 353.302C260.195 353.811 260.685 354.215 261.254 354.474L284.894 368.116C286.449 368.903 288.167 369.312 289.91 369.312C291.653 369.312 293.371 368.903 294.926 368.116L318.566 354.474C319.124 354.213 319.606 353.815 319.968 353.317C320.329 352.818 320.557 352.236 320.631 351.624V351.479H320.594Z" fill="url(#paint0_linear_621_2288)"/>
<path opacity="0.3" d="M313.238 349.846L296.335 359.747L289.9 362.065V369.309C291.65 369.341 293.379 368.925 294.923 368.101L318.562 354.458C319.12 354.198 319.603 353.8 319.964 353.301C320.325 352.803 320.553 352.22 320.627 351.609V351.464V346.116L319.275 345.367H319.142C318.635 347.866 315.653 349.533 313.238 349.846Z" fill="#646363"/>
<path d="M284.856 362.671L261.216 349.028C258.451 347.435 258.451 344.827 261.216 343.233L284.856 329.59C286.411 328.804 288.129 328.395 289.872 328.395C291.615 328.395 293.333 328.804 294.889 329.59L318.528 343.233C321.293 344.827 321.293 347.435 318.528 349.028L294.889 362.671C293.333 363.458 291.615 363.867 289.872 363.867C288.129 363.867 286.411 363.458 284.856 362.671Z" fill="url(#paint1_linear_621_2288)"/>
<g opacity="0.3">
<path d="M284.858 362.671L261.218 349.028C258.453 347.435 258.453 344.827 261.218 343.233L284.858 329.59C286.413 328.804 288.131 328.395 289.874 328.395C291.617 328.395 293.335 328.804 294.891 329.59L318.53 343.233C321.295 344.827 321.295 347.435 318.53 349.028L294.891 362.671C293.335 363.458 291.617 363.867 289.874 363.867C288.131 363.867 286.413 363.458 284.858 362.671Z" fill="#646363"/>
</g>
</g>
<path d="M289.869 345.431C288.322 345.458 286.793 345.092 285.426 344.368L261.786 330.714C261.231 330.517 260.75 330.153 260.41 329.672C260.069 329.191 259.887 328.616 259.887 328.027C259.887 327.438 260.069 326.863 260.41 326.382C260.75 325.901 261.231 325.537 261.786 325.341L285.474 311.698C286.852 310.995 288.376 310.629 289.923 310.629C291.47 310.629 292.994 310.995 294.372 311.698L317.963 325.389C318.519 325.586 319 325.949 319.34 326.43C319.68 326.912 319.863 327.486 319.863 328.075C319.863 328.665 319.68 329.239 319.34 329.72C319 330.202 318.519 330.565 317.963 330.762L294.324 344.417C292.948 345.125 291.415 345.474 289.869 345.431ZM285.631 344.006C286.941 344.667 288.389 345.012 289.857 345.012C291.324 345.012 292.772 344.667 294.082 344.006L317.722 330.363C318.239 330.228 318.696 329.926 319.022 329.503C319.349 329.08 319.526 328.561 319.526 328.027C319.526 327.493 319.349 326.974 319.022 326.551C318.696 326.129 318.239 325.826 317.722 325.691L294.118 312.109C292.808 311.447 291.361 311.103 289.893 311.103C288.425 311.103 286.978 311.447 285.667 312.109L262.028 325.751C261.511 325.886 261.053 326.189 260.727 326.612C260.401 327.034 260.224 327.553 260.224 328.088C260.224 328.622 260.401 329.141 260.727 329.563C261.053 329.986 261.511 330.289 262.028 330.424L285.631 344.006Z" fill="#838283"/>
<path opacity="0.4" d="M320.592 322.794V314.693L319.119 313.872C318.697 316.408 315.727 318.062 313.24 318.412L296.337 328.312L288.948 330.98L265.357 318.81L265.9 318.496C263.884 317.555 262.809 315.405 261.711 313.438L260.129 314.379L259.188 314.645V322.879C259.244 323.502 259.465 324.098 259.827 324.607C260.19 325.116 260.682 325.52 261.252 325.776L284.892 339.419C286.447 340.205 288.165 340.615 289.908 340.615C291.651 340.615 293.369 340.205 294.925 339.419L318.564 325.776C319.128 325.524 319.615 325.128 319.977 324.628C320.34 324.128 320.564 323.541 320.629 322.927V322.794H320.592Z" fill="#FFFDFF"/>
<path d="M320.592 315.601V310.24L319.119 309.419C318.697 311.954 315.727 313.608 313.24 313.959L296.337 323.859L288.948 326.527L265.357 314.357L265.9 314.043C263.884 313.101 262.809 310.952 261.711 308.984L260.129 309.926L259.188 310.192V315.733C259.244 316.356 259.465 316.953 259.827 317.462C260.19 317.971 260.682 318.374 261.252 318.631L284.892 332.274C286.447 333.06 288.165 333.47 289.908 333.47C291.651 333.47 293.369 333.06 294.925 332.274L318.564 318.631C319.128 318.378 319.615 317.982 319.977 317.482C320.34 316.982 320.564 316.396 320.629 315.782V315.649L320.592 315.601Z" fill="url(#paint2_linear_621_2288)"/>
<path opacity="0.3" d="M313.242 313.955L296.339 323.856L289.904 326.186V333.43C291.654 333.462 293.383 333.046 294.927 332.222L318.566 318.579C319.13 318.327 319.617 317.931 319.98 317.431C320.342 316.931 320.566 316.344 320.631 315.73V315.597V310.237L319.279 309.488H319.146C318.639 311.975 315.657 313.617 313.242 313.955Z" fill="#646363"/>
<path d="M284.854 326.789L261.214 313.134C258.449 311.54 258.449 308.944 261.214 307.339L284.854 293.696C286.409 292.91 288.127 292.5 289.87 292.5C291.613 292.5 293.331 292.91 294.887 293.696L318.526 307.351C321.291 308.944 321.291 311.54 318.526 313.134L294.887 326.789C293.331 327.575 291.613 327.985 289.87 327.985C288.127 327.985 286.409 327.575 284.854 326.789Z" fill="#494949"/>
<path d="M318.53 313.134L294.89 326.789C293.335 327.575 291.617 327.985 289.874 327.985C288.131 327.985 286.413 327.575 284.857 326.789L261.218 313.134C260.701 312.897 260.246 312.542 259.892 312.098C259.537 311.653 259.293 311.131 259.177 310.574C259.146 311.257 259.324 311.934 259.689 312.513C260.054 313.091 260.588 313.544 261.218 313.81L284.857 327.453C286.413 328.239 288.131 328.649 289.874 328.649C291.617 328.649 293.335 328.239 294.89 327.453L318.53 313.81C319.16 313.544 319.693 313.091 320.058 312.513C320.423 311.934 320.602 311.257 320.57 310.574C320.449 311.129 320.202 311.648 319.848 312.091C319.494 312.535 319.043 312.892 318.53 313.134Z" fill="#5E5E5E"/>
<g opacity="0.3">
<path d="M61.4512 344.378V339.029L59.9662 338.196C59.5557 340.732 56.5736 342.386 54.0865 342.736L37.1839 352.636L29.795 355.304L6.17961 343.134L6.72289 342.82C4.70665 341.879 3.62005 339.73 2.53345 337.762L0.939764 338.703L-0.00195312 338.969V344.462C0.0542202 345.087 0.276433 345.685 0.641579 346.194C1.00672 346.704 1.5015 347.106 2.07466 347.36L25.7021 361.003C27.2579 361.795 28.9789 362.208 30.7246 362.208C32.4704 362.208 34.1914 361.795 35.7472 361.003L59.3746 347.36C59.939 347.107 60.4275 346.711 60.7917 346.211C61.156 345.712 61.3833 345.125 61.4512 344.511V344.378Z" fill="url(#paint3_linear_621_2288)"/>
<path opacity="0.3" d="M54.0865 342.741L37.1838 352.641L30.7246 354.971V362.215C32.4742 362.246 34.2027 361.83 35.7471 361.007L59.3746 347.365C59.9389 347.112 60.4274 346.716 60.7917 346.216C61.1559 345.716 61.3833 345.13 61.4512 344.515V344.383V339.034L60.099 338.273H59.9541C59.4953 340.761 56.5494 342.402 54.0865 342.741Z" fill="#646363"/>
<path d="M25.703 355.573L2.07554 341.918C-0.689244 340.324 -0.689244 337.728 2.07554 336.135L25.703 322.48C27.2608 321.694 28.981 321.285 30.7255 321.285C32.4701 321.285 34.1903 321.694 35.748 322.48L59.3755 336.135C62.1403 337.728 62.1403 340.324 59.3755 341.918L35.748 355.573C34.1903 356.358 32.4701 356.767 30.7255 356.767C28.981 356.767 27.2608 356.358 25.703 355.573Z" fill="url(#paint4_linear_621_2288)"/>
<g opacity="0.3">
<path d="M25.705 355.573L2.0775 341.918C-0.687291 340.324 -0.687291 337.728 2.0775 336.135L25.705 322.48C27.2627 321.694 28.9829 321.285 30.7275 321.285C32.472 321.285 34.1923 321.694 35.75 322.48L59.3775 336.135C62.1423 337.728 62.1423 340.324 59.3775 341.918L35.75 355.573C34.1923 356.358 32.472 356.767 30.7275 356.767C28.9829 356.767 27.2627 356.358 25.705 355.573Z" fill="#646363"/>
</g>
</g>
<path d="M30.7238 335.714C29.1723 335.747 27.6384 335.381 26.2688 334.651L2.64128 321.008C2.08158 320.815 1.59622 320.451 1.25271 319.969C0.909189 319.486 0.724609 318.908 0.724609 318.316C0.724609 317.724 0.909189 317.146 1.25271 316.664C1.59622 316.181 2.08158 315.818 2.64128 315.624L26.2688 301.981C27.6506 301.285 29.1764 300.922 30.7238 300.922C32.2712 300.922 33.797 301.285 35.1789 301.981L58.8064 315.636C59.3619 315.832 59.8428 316.196 60.183 316.677C60.5231 317.158 60.7058 317.733 60.7058 318.322C60.7058 318.911 60.5231 319.486 60.183 319.967C59.8428 320.448 59.3619 320.812 58.8064 321.008L35.1789 334.651C33.8092 335.381 32.2753 335.747 30.7238 335.714ZM30.7238 301.329C29.244 301.3 27.7814 301.649 26.474 302.343L2.84654 315.986C2.3298 316.121 1.87243 316.424 1.54599 316.846C1.21955 317.269 1.04247 317.788 1.04247 318.322C1.04247 318.856 1.21955 319.375 1.54599 319.798C1.87243 320.221 2.3298 320.523 2.84654 320.658L26.474 334.301C27.7853 334.96 29.2324 335.302 30.6997 335.302C32.167 335.302 33.614 334.96 34.9253 334.301L58.5528 320.658C59.0695 320.523 59.5269 320.221 59.8533 319.798C60.1798 319.375 60.3569 318.856 60.3569 318.322C60.3569 317.788 60.1798 317.269 59.8533 316.846C59.5269 316.424 59.0695 316.121 58.5528 315.986L34.9253 302.343C33.6324 301.657 32.1873 301.308 30.7238 301.329Z" fill="#838283"/>
<path opacity="0.4" d="M61.4505 313.087V304.986L59.9655 304.165C59.555 306.688 56.5729 308.355 54.0858 308.705L37.1831 318.605L29.7943 321.273L6.20302 309.103L6.74633 308.789C4.73009 307.847 3.64349 305.686 2.55689 303.73L0.963201 304.672L0.0214844 304.938V313.172C0.0788921 313.796 0.301531 314.393 0.666527 314.902C1.03152 315.412 1.52569 315.815 2.0981 316.069L25.7255 329.712C27.2833 330.498 29.0035 330.907 30.748 330.907C32.4926 330.907 34.2128 330.498 35.7705 329.712L59.398 316.069C59.9582 315.811 60.443 315.413 60.8064 314.914C61.1699 314.416 61.3999 313.833 61.4746 313.22V313.075L61.4505 313.087Z" fill="#FFFDFF"/>
<path d="M61.4505 305.89V300.529L59.9655 299.708C59.555 302.231 56.5729 303.898 54.0858 304.248L37.1831 314.148L29.7943 316.816L6.20302 304.646L6.74633 304.332C4.73009 303.39 3.64349 301.229 2.55689 299.273L0.963201 300.215L0.0214844 300.481V305.974C0.0776577 306.598 0.299834 307.196 0.664979 307.706C1.03012 308.215 1.52494 308.618 2.0981 308.872L25.7255 322.515C27.2833 323.3 29.0035 323.709 30.748 323.709C32.4926 323.709 34.2128 323.3 35.7705 322.515L59.398 308.872C59.9624 308.619 60.4509 308.223 60.8151 307.723C61.1794 307.223 61.4067 306.637 61.4746 306.022V305.89H61.4505Z" fill="url(#paint5_linear_621_2288)"/>
<path opacity="0.3" d="M54.0865 304.252L37.1838 314.152L30.7246 316.483V323.727C32.4742 323.757 34.2027 323.342 35.7471 322.519L59.3746 308.876C59.9389 308.623 60.4274 308.228 60.7917 307.728C61.1559 307.228 61.3833 306.642 61.4512 306.027V305.894V300.534L60.099 299.785H59.9541C59.4953 302.272 56.5494 303.914 54.0865 304.252Z" fill="#646363"/>
<path d="M25.705 317.072L2.0775 303.429C-0.687291 301.836 -0.687291 299.24 2.0775 297.634L25.705 283.991C27.2627 283.206 28.9829 282.797 30.7275 282.797C32.472 282.797 34.1923 283.206 35.75 283.991L59.3775 297.622C62.1423 299.228 62.1423 301.824 59.3775 303.417L35.75 317.06C34.1952 317.854 32.4747 318.269 30.7289 318.271C28.9832 318.273 27.2617 317.862 25.705 317.072Z" fill="#494949"/>
<path d="M30.722 314.594C29.3225 314.624 27.9385 314.295 26.7016 313.64L8.22942 302.979C7.72503 302.799 7.28862 302.468 6.98005 302.03C6.67148 301.592 6.50586 301.07 6.50586 300.534C6.50586 299.999 6.67148 299.476 6.98005 299.039C7.28862 298.601 7.72503 298.27 8.22942 298.09L26.7016 287.429C27.9478 286.798 29.3251 286.469 30.722 286.469C32.1189 286.469 33.4962 286.798 34.7424 287.429L53.2146 298.09C53.719 298.27 54.1554 298.601 54.464 299.039C54.7725 299.476 54.9382 299.999 54.9382 300.534C54.9382 301.07 54.7725 301.592 54.464 302.03C54.1554 302.468 53.719 302.799 53.2146 302.979L34.7424 313.64C33.5059 314.296 32.1217 314.625 30.722 314.594ZM26.9068 313.314C28.0896 313.912 29.3965 314.224 30.722 314.224C32.0475 314.224 33.3544 313.912 34.5372 313.314L52.9973 302.653C53.4394 302.513 53.8253 302.235 54.0992 301.861C54.3731 301.486 54.5208 301.035 54.5208 300.571C54.5208 300.107 54.3731 299.655 54.0992 299.28C53.8253 298.906 53.4394 298.628 52.9973 298.488L34.5372 287.827C33.3544 287.229 32.0475 286.917 30.722 286.917C29.3965 286.917 28.0896 287.229 26.9068 287.827L8.44673 298.488C8.00462 298.628 7.61871 298.906 7.34482 299.28C7.07093 299.655 6.92327 300.107 6.92327 300.571C6.92327 301.035 7.07093 301.486 7.34482 301.861C7.61871 302.235 8.00462 302.513 8.44673 302.653L26.9068 313.314Z" fill="#C2ADB8" fill-opacity="0.2"/>
<path d="M59.3766 303.427L35.7491 317.07C34.1933 317.862 32.4723 318.274 30.7266 318.274C28.9808 318.274 27.2598 317.862 25.7041 317.07L2.07658 303.427C1.56151 303.185 1.10865 302.829 0.752823 302.386C0.397001 301.942 0.147724 301.422 0.0241429 300.867C-0.00304207 301.551 0.178788 302.227 0.54546 302.805C0.912133 303.383 1.44622 303.836 2.07658 304.103L25.7041 317.746C27.2618 318.531 28.982 318.94 30.7266 318.94C32.4711 318.94 34.1913 318.531 35.7491 317.746L59.3766 304.103C60.0069 303.836 60.541 303.383 60.9077 302.805C61.2744 302.227 61.4562 301.551 61.429 300.867C61.3054 301.422 61.0561 301.942 60.7003 302.386C60.3445 302.829 59.8916 303.185 59.3766 303.427Z" fill="#ADADAD"/>
<g opacity="0.3">
<path d="M336.908 191.991V186.643L335.423 185.822C335.012 188.345 332.03 190.011 329.543 190.361L312.64 200.261L305.251 202.93L281.66 190.76L282.203 190.434C280.187 189.492 279.101 187.343 278.014 185.375L276.42 186.329L275.479 186.594V192.088C275.537 192.71 275.76 193.305 276.125 193.813C276.49 194.32 276.984 194.72 277.555 194.973L301.171 208.628C302.728 209.414 304.448 209.823 306.193 209.823C307.938 209.823 309.658 209.414 311.216 208.628L334.831 194.997C335.391 194.739 335.876 194.341 336.239 193.843C336.603 193.344 336.833 192.761 336.908 192.148V192.003V191.991Z" fill="url(#paint6_linear_621_2288)"/>
<path opacity="0.3" d="M329.541 190.361L312.638 200.261L306.203 202.579V209.823C307.953 209.854 309.681 209.439 311.226 208.616L334.829 194.997C335.389 194.739 335.874 194.341 336.237 193.843C336.601 193.344 336.831 192.761 336.906 192.148V192.003V186.655L335.553 185.906H335.408C334.974 188.381 332.004 190.011 329.541 190.361Z" fill="#646363"/>
<path d="M301.17 203.182L277.542 189.539C274.778 187.945 274.778 185.337 277.542 183.744L301.17 170.101C302.728 169.315 304.448 168.906 306.192 168.906C307.937 168.906 309.657 169.315 311.215 170.101L334.842 183.744C337.607 185.337 337.607 187.945 334.842 189.539L311.215 203.182C309.657 203.967 307.937 204.376 306.192 204.376C304.448 204.376 302.728 203.967 301.17 203.182Z" fill="url(#paint7_linear_621_2288)"/>
<g opacity="0.3">
<path d="M301.17 203.182L277.542 189.539C274.778 187.945 274.778 185.337 277.542 183.744L301.17 170.101C302.728 169.315 304.448 168.906 306.192 168.906C307.937 168.906 309.657 169.315 311.215 170.101L334.842 183.744C337.607 185.337 337.607 187.945 334.842 189.539L311.215 203.182C309.657 203.967 307.937 204.376 306.192 204.376C304.448 204.376 302.728 203.967 301.17 203.182Z" fill="#646363"/>
</g>
</g>
<path d="M306.179 185.979C304.627 186.012 303.094 185.646 301.724 184.917L278.096 171.274C277.537 171.08 277.051 170.717 276.708 170.234C276.364 169.752 276.18 169.174 276.18 168.582C276.18 167.989 276.364 167.412 276.708 166.929C277.051 166.447 277.537 166.083 278.096 165.889L301.724 152.247C303.106 151.55 304.632 151.188 306.179 151.188C307.726 151.188 309.252 151.55 310.634 152.247L334.273 165.889C334.828 166.089 335.307 166.454 335.646 166.936C335.984 167.418 336.166 167.993 336.166 168.582C336.166 169.171 335.984 169.745 335.646 170.227C335.307 170.709 334.828 171.075 334.273 171.274L310.634 184.917C309.264 185.646 307.73 186.012 306.179 185.979ZM301.929 184.567C303.24 185.225 304.687 185.568 306.155 185.568C307.622 185.568 309.069 185.225 310.38 184.567L334.008 170.924C334.525 170.789 334.982 170.486 335.308 170.064C335.635 169.641 335.812 169.122 335.812 168.588C335.812 168.054 335.635 167.535 335.308 167.112C334.982 166.689 334.525 166.387 334.008 166.252L310.38 152.609C309.069 151.95 307.622 151.607 306.155 151.607C304.687 151.607 303.24 151.95 301.929 152.609L278.302 166.252C277.79 166.391 277.339 166.694 277.017 167.115C276.695 167.536 276.52 168.052 276.52 168.582C276.52 169.112 276.695 169.627 277.017 170.048C277.339 170.469 277.79 170.773 278.302 170.912L301.929 184.567Z" fill="#838283"/>
<path opacity="0.4" d="M336.906 163.357V155.256L335.421 154.435C335.01 156.958 332.028 158.624 329.541 158.974L312.638 168.874L305.249 171.543L281.658 159.373L282.201 159.059C280.185 158.117 279.099 155.956 278.012 154L276.418 154.942L275.477 155.207V163.441C275.534 164.065 275.757 164.663 276.122 165.172C276.487 165.681 276.981 166.084 277.553 166.339L301.169 179.982C302.726 180.767 304.447 181.176 306.191 181.176C307.936 181.176 309.656 180.767 311.214 179.982L334.841 166.339C335.401 166.08 335.886 165.683 336.249 165.184C336.613 164.685 336.843 164.102 336.918 163.49V163.345L336.906 163.357Z" fill="#FFFDFF"/>
<path d="M336.902 156.159V150.799L335.417 149.978C335.007 152.501 332.025 154.167 329.538 154.517L312.635 164.417L305.246 167.085L281.631 154.916L282.174 154.602C280.158 153.66 279.071 151.499 277.985 149.543L276.391 150.485L275.449 150.75V156.244C275.505 156.868 275.728 157.466 276.093 157.975C276.458 158.485 276.953 158.887 277.526 159.141L301.165 172.784C302.723 173.57 304.443 173.979 306.188 173.979C307.932 173.979 309.653 173.57 311.21 172.784L334.838 159.141C335.402 158.888 335.891 158.492 336.255 157.993C336.619 157.493 336.846 156.907 336.914 156.292V156.159H336.902Z" fill="url(#paint8_linear_621_2288)"/>
<path opacity="0.3" d="M329.541 154.514L312.638 164.414L306.203 166.733V173.977C307.953 174.007 309.681 173.592 311.226 172.769L334.853 159.126C335.418 158.873 335.906 158.478 336.27 157.978C336.634 157.478 336.862 156.892 336.93 156.277V156.144V150.784L335.578 150.035H335.433C334.974 152.534 332.004 154.164 329.541 154.514Z" fill="#646363"/>
<path d="M301.17 167.338L277.542 153.695C274.778 152.101 274.778 149.506 277.542 147.9L301.17 134.257C302.728 133.472 304.448 133.062 306.192 133.062C307.937 133.063 309.657 133.472 311.215 134.257L334.83 147.912C337.595 149.518 337.595 152.113 334.83 153.707L311.203 167.35C309.648 168.138 307.928 168.548 306.185 168.546C304.441 168.544 302.723 168.13 301.17 167.338Z" fill="#494949"/>
<path d="M306.175 164.815C304.773 164.846 303.388 164.514 302.154 163.849L283.694 153.2C283.209 153.009 282.794 152.676 282.501 152.246C282.207 151.815 282.051 151.306 282.051 150.785C282.051 150.265 282.207 149.756 282.501 149.325C282.794 148.894 283.209 148.562 283.694 148.371L302.166 137.71C303.412 137.079 304.79 136.75 306.187 136.75C307.583 136.75 308.961 137.079 310.207 137.71L328.679 148.371C329.155 148.584 329.565 148.921 329.869 149.345C330.172 149.769 330.357 150.266 330.406 150.785C330.354 151.304 330.167 151.799 329.864 152.223C329.561 152.647 329.153 152.983 328.679 153.2L310.207 163.849C308.968 164.511 307.579 164.844 306.175 164.815ZM306.175 137.046C304.845 137.019 303.531 137.335 302.359 137.964L283.899 148.624C283.457 148.765 283.071 149.042 282.797 149.417C282.523 149.791 282.376 150.243 282.376 150.707C282.376 151.171 282.523 151.623 282.797 151.997C283.071 152.372 283.457 152.649 283.899 152.79L302.371 163.607C303.554 164.206 304.861 164.517 306.187 164.517C307.512 164.517 308.819 164.206 310.002 163.607L328.474 152.947C328.916 152.806 329.302 152.529 329.576 152.154C329.85 151.78 329.997 151.328 329.997 150.864C329.997 150.4 329.85 149.948 329.576 149.574C329.302 149.199 328.916 148.922 328.474 148.781L310.014 138.121C308.841 137.466 307.518 137.129 306.175 137.143V137.046Z" fill="#C2ADB8" fill-opacity="0.2"/>
<path d="M334.828 153.696L311.2 167.339C309.645 168.131 307.924 168.544 306.178 168.544C304.432 168.544 302.711 168.131 301.155 167.339L277.528 153.696C277.014 153.453 276.563 153.096 276.207 152.653C275.852 152.209 275.602 151.691 275.475 151.137C275.447 151.819 275.629 152.494 275.996 153.071C276.363 153.647 276.898 154.097 277.528 154.36L301.168 168.015C302.725 168.801 304.445 169.21 306.19 169.21C307.935 169.21 309.655 168.801 311.213 168.015L334.84 154.36C335.47 154.097 336.005 153.647 336.372 153.071C336.739 152.494 336.921 151.819 336.892 151.137C336.768 151.693 336.516 152.213 336.158 152.657C335.8 153.101 335.345 153.456 334.828 153.696Z" fill="#ADADAD"/>
<path d="M177.562 324.073C176.462 324.084 175.377 323.814 174.411 323.288L29.5188 239.668C29.128 239.498 28.7892 239.227 28.5368 238.884C28.2845 238.54 28.1276 238.136 28.082 237.712C28.0993 237.382 28.2061 237.062 28.3912 236.788C28.5762 236.514 28.8324 236.295 29.1324 236.155L115.589 186.232C116.477 185.832 117.445 185.645 118.418 185.685C119.39 185.725 120.34 185.991 121.191 186.461L266.071 270.105C266.464 270.276 266.804 270.549 267.056 270.895C267.308 271.24 267.464 271.647 267.508 272.073C267.489 272.401 267.381 272.718 267.196 272.991C267.011 273.263 266.756 273.48 266.458 273.618L180.001 323.542C179.245 323.921 178.406 324.103 177.562 324.073ZM118.052 186.135C117.285 186.114 116.525 186.289 115.843 186.642L29.386 236.553C29.1653 236.656 28.9755 236.815 28.8357 237.014C28.6958 237.213 28.6108 237.446 28.5891 237.688C28.643 238.026 28.7822 238.343 28.9935 238.612C29.2048 238.88 29.4812 239.09 29.7965 239.222L174.676 322.865C175.453 323.299 176.321 323.544 177.21 323.582C178.099 323.62 178.984 323.449 179.795 323.083L266.24 273.172C266.462 273.073 266.654 272.917 266.796 272.719C266.938 272.522 267.025 272.291 267.049 272.049C266.997 271.709 266.859 271.389 266.647 271.118C266.436 270.848 266.159 270.636 265.842 270.504L120.962 186.86C120.068 186.377 119.068 186.128 118.052 186.135Z" fill="#FFFDFF"/>
<path d="M259.238 256.545L259.258 256.557L259.281 256.56L267.145 257.692L267.122 264.285C267.122 264.285 267.122 264.286 267.122 264.286C267.113 264.554 267.031 264.814 266.884 265.038C266.736 265.263 266.529 265.442 266.286 265.555L266.286 265.555L266.276 265.56L179.825 315.468C178.993 315.836 178.087 316.008 177.178 315.969C176.267 315.93 175.377 315.681 174.579 315.241C174.578 315.241 174.578 315.241 174.578 315.241L29.6999 231.598L29.7002 231.597L29.6879 231.592C29.3608 231.449 29.0764 231.223 28.8625 230.937C28.6501 230.653 28.5144 230.32 28.4684 229.968V223.39L33.3893 224.095L33.4306 224.101L33.4668 224.08L115.778 176.526C116.607 176.149 117.513 175.971 118.424 176.008C119.336 176.045 120.226 176.296 121.023 176.741C121.023 176.741 121.024 176.741 121.024 176.741L259.238 256.545Z" fill="url(#paint9_linear_621_2288)" fill-opacity="0.1" stroke="white" stroke-width="0.241466"/>
<path d="M265.9 256.001L265.9 256.001C266.68 256.45 267.082 256.996 267.143 257.502C267.203 257.998 266.94 258.501 266.286 258.883L179.835 308.742C179.005 309.12 178.099 309.297 177.189 309.26C176.276 309.223 175.386 308.972 174.589 308.527C174.588 308.527 174.588 308.527 174.588 308.527L29.7101 224.884C28.9365 224.435 28.5343 223.886 28.4714 223.383C28.4098 222.89 28.6695 222.398 29.3212 222.04L29.3212 222.04L29.3235 222.039L115.775 172.131C116.607 171.763 117.513 171.591 118.422 171.63C119.333 171.669 120.223 171.918 121.021 172.358C121.022 172.358 121.022 172.358 121.022 172.358L265.9 256.001Z" fill="#323132" stroke="white" stroke-width="0.241466"/>
<path opacity="0.3" d="M42.1947 226.617L171.693 301.387C172.425 301.799 173.245 302.031 174.085 302.064C174.924 302.098 175.76 301.932 176.522 301.58L253.792 256.969C254.999 256.257 254.866 255.025 253.454 254.204L123.919 179.446C123.188 179.033 122.369 178.798 121.529 178.763C120.69 178.727 119.854 178.891 119.09 179.241L41.8205 223.912C40.6252 224.564 40.7822 225.808 42.1947 226.617Z" fill="black"/>
<path d="M266.349 258.217L179.892 308.129C179.042 308.508 178.116 308.686 177.186 308.648C176.256 308.61 175.348 308.358 174.531 307.911L29.6517 224.255C29.0926 223.962 28.6623 223.471 28.4443 222.879C28.227 223.579 28.6496 224.388 29.6517 224.992L174.531 308.636C175.345 309.09 176.255 309.346 177.186 309.384C178.117 309.422 179.044 309.24 179.892 308.853L266.349 258.99C266.669 258.852 266.93 258.606 267.087 258.295C267.243 257.983 267.286 257.627 267.206 257.288C267.038 257.688 266.735 258.017 266.349 258.217Z" fill="white"/>
<path d="M270.524 234.437L268.583 235.521L268.294 233.956H268.874L268.288 233.618L122.824 149.688C122.823 149.688 122.821 149.687 122.82 149.686C122.231 149.308 121.751 148.78 121.431 148.156C121.113 147.535 120.963 146.84 120.999 146.142L139.312 37.4925L139.336 37.3518L139.205 37.2958L138.075 36.8144L139.956 35.7865C139.956 35.7865 139.956 35.7864 139.957 35.7864C140.192 35.659 140.458 35.6005 140.725 35.6176C140.992 35.6346 141.249 35.7266 141.467 35.8829L141.474 35.8882L141.482 35.8928L287.851 120.401C287.852 120.402 287.854 120.403 287.855 120.404C288.442 120.784 288.919 121.312 289.237 121.935C289.554 122.557 289.701 123.251 289.664 123.948L271.206 233.455L271.206 233.455L271.204 233.469C271.186 233.674 271.115 233.87 270.997 234.039C270.88 234.208 270.72 234.344 270.534 234.432L270.534 234.432L270.524 234.437Z" stroke="white" stroke-width="0.362199"/>
<path d="M270.503 234.349L268.636 235.392L268.376 233.98H269.106L268.327 233.53L261.131 229.371L287.331 123.357L289.418 122.438C289.605 122.899 289.673 123.401 289.615 123.898L271.155 233.409L271.154 233.418L271.153 233.428C271.136 233.622 271.068 233.809 270.956 233.969C270.845 234.129 270.693 234.258 270.517 234.342L270.51 234.345L270.503 234.349Z" stroke="white" stroke-width="0.482933"/>
<path d="M120.417 151.158L266.794 235.672C267.917 236.324 268.883 235.949 269.088 234.778L287.548 125.261C287.588 124.528 287.433 123.797 287.098 123.144C286.762 122.49 286.26 121.938 285.64 121.543L139.276 37.0294C138.153 36.3774 137.175 36.7517 136.982 37.9228L118.522 147.44C118.482 148.172 118.637 148.901 118.97 149.554C119.303 150.207 119.802 150.76 120.417 151.158Z" fill="#8B8A89" fill-opacity="0.4"/>
<g opacity="0.51">
<path d="M138.779 39.0625L285.844 123.926L267.263 233.721L120.307 148.918L138.779 39.0625Z" fill="#1E1E1E"/>
</g>
<path d="M28.8462 203.431L36.3266 207.34L36.4148 207.386L36.501 207.337L116.588 161.1C117.387 160.74 118.26 160.571 119.137 160.608C120.016 160.644 120.875 160.886 121.643 161.314C121.644 161.314 121.644 161.314 121.645 161.314L259.773 241.033L259.862 241.085L259.952 241.034C260.61 240.663 262.442 239.761 264.117 238.948C264.953 238.542 265.747 238.159 266.332 237.878C266.486 237.804 266.625 237.738 266.747 237.679L264.139 241.99L264.132 242.002L264.126 242.016C263.985 242.366 263.724 242.654 263.39 242.829L263.39 242.828L263.383 242.832L179.022 291.423C178.223 291.784 177.35 291.953 176.473 291.917C175.594 291.88 174.735 291.638 173.967 291.209C173.966 291.209 173.966 291.209 173.965 291.209L32.6134 209.594L32.6072 209.591L32.6006 209.588C32.1089 209.354 31.7128 208.958 31.4791 208.466L31.4792 208.466L31.476 208.46L28.8462 203.431Z" stroke="white" stroke-width="0.362199"/>
<path d="M29.6495 204.319L174.529 287.963C175.345 288.412 176.253 288.666 177.183 288.706C178.113 288.746 179.039 288.57 179.89 288.192L266.347 238.269C267.711 237.484 267.554 236.096 265.96 235.178L121.081 151.534C120.267 151.08 119.358 150.824 118.426 150.786C117.495 150.748 116.568 150.93 115.72 151.317L29.2631 201.228C27.8989 202.025 28.0679 203.45 29.6495 204.319Z" fill="url(#paint10_linear_621_2288)"/>
<path d="M29.6495 204.319L174.529 287.963C175.345 288.412 176.253 288.666 177.183 288.706C178.113 288.746 179.039 288.57 179.89 288.192L266.347 238.269C267.711 237.484 267.554 236.096 265.96 235.178L121.081 151.534C120.267 151.08 119.358 150.824 118.426 150.786C117.495 150.748 116.568 150.93 115.72 151.317L29.2631 201.228C27.8989 202.025 28.0679 203.45 29.6495 204.319Z" fill="#8B8A89"/>
<path opacity="0.51" d="M29.74 204.162L29.74 204.162L29.7367 204.16C28.9751 203.742 28.5911 203.21 28.5313 202.724C28.4731 202.25 28.7167 201.757 29.354 201.385C29.3542 201.385 29.3543 201.385 29.3545 201.385L115.803 151.478C116.623 151.106 117.519 150.931 118.419 150.967C119.321 151.004 120.203 151.252 120.991 151.692C120.992 151.692 120.992 151.692 120.992 151.693L265.87 235.335L265.87 235.335C266.641 235.779 267.025 236.314 267.083 236.795C267.14 237.263 266.895 237.745 266.257 238.112L266.256 238.112L179.808 288.031C178.985 288.394 178.089 288.563 177.19 288.525C176.289 288.486 175.409 288.24 174.618 287.805C174.618 287.805 174.617 287.805 174.617 287.804L29.74 204.162Z" fill="#1E1E1E" stroke="white" stroke-width="0.362199"/>
<g opacity="0.3">
<mask id="mask0_621_2288" style="mask-type:luminance" maskUnits="userSpaceOnUse" x="28" y="147" width="240" height="139">
<path d="M29.6495 201.245L174.529 284.889C175.345 285.338 176.253 285.592 177.183 285.632C178.113 285.671 179.039 285.496 179.89 285.118L266.347 235.195C267.711 234.41 267.554 233.022 265.96 232.104L121.081 148.46C120.267 148.006 119.358 147.75 118.426 147.712C117.495 147.674 116.568 147.856 115.72 148.243L29.2631 198.154C27.8989 198.939 28.0679 200.327 29.6495 201.245Z" fill="white"/>
</mask>
<g mask="url(#mask0_621_2288)">
<path d="M107.836 293.207C107.836 261.031 126.996 234.953 150.636 234.953C174.275 234.953 193.424 261.031 193.424 293.207C193.424 325.382 174.263 335.053 150.636 335.053C127.008 335.053 107.836 325.394 107.836 293.207Z" fill="url(#paint11_radial_621_2288)"/>
</g>
</g>
<path d="M261.013 129.259C260.633 129.251 260.263 129.143 259.938 128.945C259.401 128.628 258.971 128.158 258.704 127.594C258.437 127.03 258.345 126.398 258.441 125.782C258.487 125.533 258.592 125.298 258.747 125.099C258.903 124.899 259.104 124.74 259.335 124.635C259.613 124.529 259.912 124.491 260.208 124.522C260.503 124.554 260.788 124.654 261.037 124.816C261.572 125.138 262 125.612 262.267 126.177C262.533 126.742 262.626 127.373 262.534 127.991C262.465 128.347 262.274 128.668 261.994 128.899C261.715 129.13 261.364 129.257 261.001 129.259H261.013ZM259.975 124.997C259.821 125.001 259.669 125.033 259.528 125.094C259.37 125.169 259.233 125.281 259.126 125.419C259.019 125.558 258.946 125.719 258.912 125.891C258.842 126.405 258.924 126.929 259.15 127.398C259.375 127.866 259.733 128.257 260.18 128.523C260.365 128.645 260.575 128.722 260.795 128.75C261.015 128.777 261.239 128.753 261.448 128.68C261.608 128.605 261.749 128.492 261.856 128.351C261.963 128.211 262.034 128.045 262.063 127.871C262.139 127.355 262.059 126.829 261.833 126.36C261.607 125.891 261.246 125.501 260.796 125.239C260.549 125.082 260.267 124.99 259.975 124.973V124.997Z" fill="#FFFDFF"/>
<path d="M266.867 132.639C266.487 132.631 266.116 132.523 265.792 132.325C265.254 132.009 264.824 131.538 264.557 130.974C264.29 130.41 264.199 129.779 264.295 129.162C264.343 128.914 264.449 128.681 264.604 128.482C264.76 128.282 264.96 128.122 265.188 128.015C265.467 127.911 265.765 127.874 266.061 127.905C266.356 127.937 266.64 128.036 266.891 128.196C267.428 128.517 267.858 128.99 268.127 129.555C268.396 130.12 268.491 130.752 268.4 131.371C268.318 131.716 268.122 132.023 267.844 132.242C267.565 132.462 267.221 132.58 266.867 132.579V132.639ZM265.828 128.377C265.678 128.378 265.53 128.411 265.394 128.474C265.233 128.545 265.093 128.656 264.985 128.795C264.878 128.934 264.807 129.097 264.778 129.271C264.696 129.78 264.768 130.301 264.983 130.77C265.198 131.238 265.546 131.632 265.985 131.903C266.17 132.025 266.381 132.103 266.601 132.13C266.821 132.157 267.044 132.133 267.253 132.06C267.414 131.985 267.554 131.873 267.661 131.732C267.769 131.591 267.84 131.425 267.869 131.251C267.95 130.742 267.879 130.22 267.664 129.752C267.449 129.283 267.1 128.889 266.661 128.619C266.41 128.467 266.122 128.383 265.828 128.377Z" fill="#FFFDFF"/>
<path d="M274.016 134.694C273.967 134.928 273.859 135.146 273.702 135.327C273.545 135.508 273.345 135.645 273.12 135.726C272.894 135.808 272.652 135.83 272.416 135.79C272.18 135.751 271.957 135.652 271.77 135.503C271.278 135.213 270.883 134.781 270.638 134.265C270.393 133.748 270.308 133.17 270.394 132.605C270.441 132.371 270.547 132.153 270.703 131.972C270.859 131.79 271.058 131.653 271.283 131.571C271.508 131.49 271.749 131.468 271.985 131.507C272.22 131.547 272.442 131.646 272.628 131.796C273.123 132.085 273.52 132.515 273.767 133.032C274.015 133.548 274.101 134.127 274.016 134.694Z" fill="#FFFDFF"/>
<path d="M161.719 70.0762L158.592 68.2652L158.833 66.8164L161.972 68.6274L161.719 70.0762Z" fill="#FFFDFF"/>
<path d="M166.284 72.693L163.145 70.8941L163.386 69.4453L166.525 71.2563L166.284 72.693Z" fill="#FFFDFF"/>
<path d="M157.219 67.4674L150.35 63.5074L150.591 62.0586L157.461 66.0186L157.219 67.4674Z" fill="#FFFDFF"/>
<g opacity="0.5">
<path opacity="0.67" d="M153.545 252.867C182.237 252.867 205.497 239.44 205.497 222.877C205.497 206.314 182.237 192.887 153.545 192.887C124.853 192.887 101.594 206.314 101.594 222.877C101.594 239.44 124.853 252.867 153.545 252.867Z" fill="#646363"/>
<path opacity="0.67" d="M153.546 247.663C177.25 247.663 196.466 236.566 196.466 222.876C196.466 209.187 177.25 198.09 153.546 198.09C129.841 198.09 110.625 209.187 110.625 222.876C110.625 236.566 129.841 247.663 153.546 247.663Z" fill="#646363"/>
<path opacity="0.9" d="M153.546 242.488C172.296 242.488 187.496 233.709 187.496 222.88C187.496 212.052 172.296 203.273 153.546 203.273C134.796 203.273 119.596 212.052 119.596 222.88C119.596 233.709 134.796 242.488 153.546 242.488Z" fill="#595757"/>
</g>
<path style="mix-blend-mode:lighten" opacity="0.5" d="M225.287 121.924C261.913 85.2985 279.441 43.4454 264.438 28.4425C249.436 13.4397 207.583 30.9683 170.957 67.5938C134.331 104.219 116.803 146.072 131.806 161.075C146.809 176.078 188.662 158.55 225.287 121.924Z" fill="url(#paint12_radial_621_2288)"/>
<path opacity="0.4" d="M201.359 109.361C201.719 109.025 201.972 108.59 202.084 108.11C202.197 107.63 202.164 107.128 201.991 106.666C201.817 106.205 201.511 105.806 201.11 105.519C200.709 105.232 200.233 105.071 199.74 105.056C199.247 105.041 198.762 105.172 198.344 105.433C197.926 105.695 197.595 106.074 197.394 106.524C197.192 106.973 197.128 107.473 197.211 107.959C197.294 108.444 197.519 108.895 197.857 109.252C198.076 109.497 198.341 109.695 198.638 109.833C198.935 109.972 199.257 110.049 199.585 110.059C199.912 110.069 200.239 110.012 200.544 109.892C200.849 109.772 201.126 109.592 201.359 109.361Z" fill="#FFFDFF"/>
<path d="M230.033 107.222C230.463 106.761 230.701 106.153 230.7 105.523C230.699 104.893 230.459 104.286 230.028 103.826C229.597 103.366 229.008 103.087 228.379 103.045C227.75 103.003 227.128 103.201 226.64 103.6C226.21 104.061 225.972 104.668 225.973 105.298C225.973 105.929 226.214 106.535 226.645 106.995C227.076 107.456 227.665 107.735 228.294 107.777C228.923 107.819 229.544 107.62 230.033 107.222Z" fill="#FFFDFF"/>
<path opacity="0.4" d="M222.957 68.7942C223.34 68.4327 223.608 67.9655 223.727 67.4518C223.846 66.938 223.809 66.4006 223.623 65.9075C223.436 65.4143 223.108 64.9875 222.679 64.681C222.25 64.3744 221.739 64.2018 221.212 64.185C220.685 64.1681 220.165 64.3078 219.718 64.5864C219.27 64.8649 218.915 65.2699 218.697 65.7501C218.479 66.2303 218.409 66.7643 218.494 67.2846C218.58 67.8049 218.818 68.2882 219.178 68.6734C219.417 68.9301 219.706 69.1369 220.025 69.2819C220.345 69.427 220.691 69.5074 221.042 69.5186C221.393 69.5299 221.743 69.4716 222.071 69.3473C222.4 69.223 222.701 69.035 222.957 68.7942Z" fill="#FFFDFF"/>
<path opacity="0.4" d="M219.961 76.3769C220.192 76.1617 220.354 75.8829 220.426 75.5756C220.499 75.2684 220.478 74.9466 220.367 74.6511C220.256 74.3556 220.06 74.0996 219.804 73.9157C219.547 73.7318 219.242 73.6282 218.926 73.618C218.611 73.6078 218.299 73.6916 218.032 73.8586C217.764 74.0256 217.552 74.2683 217.422 74.5561C217.292 74.8438 217.251 75.1636 217.303 75.4749C217.356 75.7861 217.499 76.0749 217.716 76.3044C217.858 76.4575 218.029 76.5809 218.219 76.6674C218.409 76.754 218.615 76.802 218.823 76.8087C219.032 76.8155 219.24 76.7808 219.436 76.7066C219.631 76.6325 219.81 76.5204 219.961 76.3769Z" fill="#FFFDFF"/>
<path opacity="0.8" d="M216.655 72.4406C216.799 72.2973 216.897 72.1144 216.937 71.9153C216.977 71.7161 216.957 71.5096 216.879 71.3218C216.801 71.1341 216.67 70.9736 216.501 70.8607C216.332 70.7478 216.134 70.6875 215.931 70.6875C215.727 70.6875 215.529 70.7478 215.36 70.8607C215.191 70.9736 215.06 71.1341 214.982 71.3218C214.904 71.5096 214.884 71.7161 214.924 71.9153C214.964 72.1144 215.062 72.2973 215.206 72.4406C215.301 72.537 215.413 72.6136 215.538 72.6658C215.662 72.7181 215.796 72.745 215.931 72.745C216.065 72.745 216.199 72.7181 216.323 72.6658C216.448 72.6136 216.56 72.537 216.655 72.4406Z" fill="#FFFDFF"/>
<path opacity="0.8" d="M223.503 95.1399C223.646 94.9965 223.745 94.8136 223.784 94.6145C223.824 94.4153 223.804 94.2088 223.727 94.021C223.649 93.8333 223.518 93.6728 223.349 93.5599C223.18 93.447 222.981 93.3867 222.778 93.3867C222.575 93.3867 222.377 93.447 222.208 93.5599C222.039 93.6728 221.907 93.8333 221.83 94.021C221.752 94.2088 221.732 94.4153 221.772 94.6145C221.812 94.8136 221.91 94.9965 222.054 95.1399C222.246 95.3315 222.507 95.4392 222.778 95.4392C223.05 95.4392 223.31 95.3315 223.503 95.1399Z" fill="#FFFDFF"/>
<path opacity="0.4" d="M209.047 65.8121C209.098 65.7538 209.125 65.6789 209.123 65.6019C209.122 65.5248 209.093 65.4509 209.041 65.3942C208.988 65.3375 208.917 65.302 208.84 65.2945C208.764 65.2869 208.687 65.3079 208.625 65.3533C208.595 65.3825 208.572 65.4173 208.556 65.4556C208.54 65.494 208.531 65.5351 208.531 65.5766C208.531 65.6182 208.54 65.6593 208.556 65.6977C208.572 65.736 208.595 65.7708 208.625 65.8C208.679 65.8569 208.754 65.8901 208.833 65.8924C208.912 65.8946 208.989 65.8658 209.047 65.8121Z" fill="#FFFDFF"/>
<path opacity="0.8" d="M210.918 78.6953C210.975 78.6349 211.006 78.555 211.006 78.472C211.006 78.389 210.975 78.3091 210.918 78.2486C210.89 78.2194 210.856 78.1962 210.818 78.1803C210.781 78.1644 210.741 78.1562 210.7 78.1562C210.66 78.1562 210.62 78.1644 210.582 78.1803C210.545 78.1962 210.511 78.2194 210.483 78.2486C210.426 78.3091 210.395 78.389 210.395 78.472C210.395 78.555 210.426 78.6349 210.483 78.6953C210.544 78.7464 210.621 78.7744 210.7 78.7744C210.78 78.7744 210.857 78.7464 210.918 78.6953Z" fill="#FFFDFF"/>
<path opacity="0.8" d="M214.928 103.238C214.978 103.18 215.006 103.105 215.004 103.028C215.003 102.951 214.974 102.877 214.921 102.82C214.869 102.763 214.798 102.728 214.721 102.72C214.645 102.713 214.568 102.734 214.505 102.779C214.476 102.808 214.452 102.843 214.436 102.881C214.42 102.92 214.412 102.961 214.412 103.002C214.412 103.044 214.42 103.085 214.436 103.123C214.452 103.162 214.476 103.197 214.505 103.226C214.56 103.283 214.635 103.316 214.714 103.318C214.793 103.32 214.87 103.292 214.928 103.238Z" fill="#FFFDFF"/>
<path opacity="0.8" d="M212.088 99.2954C212.118 99.2668 212.142 99.2327 212.159 99.1948C212.176 99.1569 212.185 99.116 212.187 99.0745C212.188 99.0331 212.181 98.9918 212.166 98.953C212.151 98.9142 212.129 98.8788 212.1 98.8487C212.072 98.8186 212.037 98.7943 211.999 98.7774C211.962 98.7605 211.921 98.7512 211.879 98.7501C211.838 98.749 211.796 98.7561 211.758 98.7709C211.719 98.7857 211.683 98.8081 211.653 98.8366C211.592 98.8942 211.557 98.9737 211.555 99.0575C211.553 99.1412 211.584 99.2225 211.641 99.2833C211.699 99.3442 211.778 99.3796 211.862 99.3819C211.946 99.3841 212.027 99.353 212.088 99.2954Z" fill="#FFFDFF"/>
<path opacity="0.4" d="M201.489 80.4334C202.028 79.9171 202.402 79.2528 202.564 78.5242C202.726 77.7957 202.668 77.0355 202.398 76.3396C202.129 75.6436 201.659 75.0431 201.049 74.6138C200.438 74.1844 199.714 73.9454 198.968 73.9269C198.222 73.9085 197.487 74.1113 196.856 74.5099C196.225 74.9085 195.727 75.485 195.423 76.1667C195.119 76.8485 195.024 77.6049 195.15 78.3405C195.275 79.0762 195.616 79.7583 196.128 80.3006C196.471 80.6628 196.881 80.9537 197.337 81.1566C197.792 81.3594 198.283 81.4702 198.781 81.4825C199.279 81.4949 199.775 81.4085 200.24 81.2285C200.705 81.0484 201.129 80.7782 201.489 80.4334Z" fill="#FFFDFF"/>
<path d="M181.123 87.7968C181.394 87.5415 181.583 87.2117 181.666 86.8491C181.75 86.4864 181.724 86.1071 181.592 85.7591C181.46 85.4111 181.228 85.11 180.925 84.8937C180.622 84.6774 180.262 84.5557 179.89 84.5439C179.518 84.5321 179.151 84.6308 178.835 84.8275C178.519 85.0242 178.269 85.31 178.115 85.649C177.962 85.988 177.912 86.3648 177.972 86.7321C178.033 87.0993 178.2 87.4404 178.455 87.7123C178.624 87.8935 178.827 88.0395 179.053 88.1419C179.279 88.2443 179.523 88.301 179.771 88.3089C180.019 88.3168 180.266 88.2756 180.498 88.1877C180.73 88.0998 180.942 87.967 181.123 87.7968Z" fill="#FFFDFF"/>
<path opacity="0.4" d="M213.862 88.2669C214.902 88.2669 215.745 87.4236 215.745 86.3834C215.745 85.3432 214.902 84.5 213.862 84.5C212.822 84.5 211.979 85.3432 211.979 86.3834C211.979 87.4236 212.822 88.2669 213.862 88.2669Z" fill="#FFFDFF"/>
<path opacity="0.4" d="M201.491 56.7013C201.764 56.4467 201.955 56.1171 202.04 55.754C202.125 55.3909 202.1 55.0108 201.969 54.6618C201.837 54.3128 201.605 54.0106 201.302 53.7935C200.999 53.5764 200.638 53.4542 200.266 53.4424C199.893 53.4305 199.525 53.5295 199.209 53.7269C198.892 53.9243 198.642 54.2111 198.489 54.5511C198.335 54.891 198.287 55.2688 198.348 55.6365C198.41 56.0043 198.579 56.3454 198.835 56.6167C199.003 56.7976 199.206 56.9434 199.431 57.0456C199.656 57.1478 199.899 57.2045 200.146 57.2123C200.393 57.2202 200.639 57.1791 200.87 57.0914C201.101 57.0036 201.312 56.8711 201.491 56.7013Z" fill="#FFFDFF"/>
<path opacity="0.4" d="M177.706 70.2208C177.979 69.9663 178.169 69.6366 178.254 69.2735C178.339 68.9105 178.315 68.5303 178.183 68.1813C178.052 67.8323 177.82 67.5301 177.517 67.313C177.214 67.096 176.853 66.9737 176.48 66.9619C176.108 66.95 175.74 67.0491 175.424 67.2464C175.107 67.4438 174.857 67.7307 174.703 68.0706C174.55 68.4106 174.501 68.7883 174.563 69.1561C174.625 69.5238 174.794 69.865 175.05 70.1363C175.218 70.3171 175.421 70.4629 175.646 70.5651C175.871 70.6673 176.114 70.724 176.361 70.7319C176.607 70.7397 176.853 70.6986 177.084 70.6109C177.315 70.5232 177.527 70.3906 177.706 70.2208Z" fill="#FFFDFF"/>
<path opacity="0.4" d="M242.31 76.0859C242.581 75.8306 242.77 75.5008 242.854 75.1381C242.937 74.7755 242.911 74.3962 242.779 74.0482C242.648 73.7002 242.416 73.399 242.113 73.1827C241.81 72.9665 241.45 72.8448 241.078 72.833C240.706 72.8212 240.339 72.9199 240.023 73.1166C239.707 73.3132 239.456 73.5991 239.303 73.9381C239.149 74.277 239.099 74.6539 239.16 75.0211C239.22 75.3883 239.388 75.7294 239.642 76.0014C239.811 76.1826 240.015 76.3286 240.241 76.431C240.467 76.5334 240.711 76.5901 240.959 76.598C241.206 76.6058 241.454 76.5646 241.685 76.4767C241.917 76.3889 242.13 76.256 242.31 76.0859Z" fill="#FFFDFF"/>
<path opacity="0.4" d="M228.726 43.1427C228.998 42.8882 229.189 42.5585 229.274 42.1954C229.359 41.8323 229.334 41.4522 229.203 41.1032C229.072 40.7542 228.84 40.452 228.537 40.2349C228.233 40.0178 227.873 39.8956 227.5 39.8838C227.127 39.8719 226.759 39.9709 226.443 40.1683C226.127 40.3657 225.876 40.6525 225.723 40.9925C225.57 41.3324 225.521 41.7102 225.583 42.0779C225.644 42.4457 225.814 42.7868 226.07 43.0582C226.411 43.4206 226.882 43.6329 227.38 43.6487C227.878 43.6646 228.362 43.4826 228.726 43.1427Z" fill="#FFFDFF"/>
<path d="M253.49 46.668C253.631 46.5002 253.707 46.2869 253.702 46.0677C253.698 45.8485 253.615 45.6383 253.467 45.4761C253.32 45.3139 253.118 45.2107 252.901 45.1856C252.683 45.1606 252.463 45.2154 252.283 45.3399C252.142 45.5077 252.066 45.721 252.07 45.9402C252.075 46.1594 252.158 46.3696 252.306 46.5319C252.453 46.6941 252.655 46.7973 252.872 46.8223C253.09 46.8474 253.31 46.7925 253.49 46.668Z" fill="#FFFDFF"/>
<path opacity="0.4" d="M206.997 103.012C207.148 102.858 207.251 102.662 207.291 102.449C207.332 102.237 207.309 102.017 207.225 101.818C207.141 101.618 207 101.448 206.82 101.328C206.64 101.208 206.428 101.145 206.212 101.145C205.996 101.145 205.784 101.208 205.604 101.328C205.424 101.448 205.283 101.618 205.199 101.818C205.115 102.017 205.092 102.237 205.133 102.449C205.173 102.662 205.276 102.858 205.427 103.012C205.635 103.22 205.918 103.337 206.212 103.337C206.506 103.337 206.788 103.22 206.997 103.012Z" fill="#FFFDFF"/>
<path d="M204.844 71.768C205.049 71.5603 205.163 71.2806 205.163 70.9893C205.163 70.698 205.049 70.4183 204.844 70.2106C204.691 70.0574 204.495 69.9533 204.282 69.9114C204.069 69.8694 203.848 69.8915 203.648 69.9748C203.447 70.0581 203.276 70.1989 203.156 70.3795C203.035 70.56 202.971 70.7722 202.971 70.9893C202.971 71.2064 203.035 71.4186 203.156 71.5991C203.276 71.7797 203.447 71.9205 203.648 72.0038C203.848 72.0871 204.069 72.1092 204.282 72.0672C204.495 72.0253 204.691 71.9212 204.844 71.768Z" fill="#FFFDFF"/>
<path d="M190.709 71.3405C190.815 71.2363 190.888 71.1029 190.917 70.9574C190.947 70.8119 190.933 70.6608 190.877 70.5234C190.82 70.3859 190.725 70.2683 190.601 70.1856C190.478 70.1028 190.333 70.0586 190.184 70.0586C190.036 70.0586 189.89 70.1028 189.767 70.1856C189.644 70.2683 189.548 70.3859 189.491 70.5234C189.435 70.6608 189.421 70.8119 189.451 70.9574C189.481 71.1029 189.553 71.2363 189.659 71.3405C189.799 71.4784 189.988 71.5557 190.184 71.5557C190.381 71.5557 190.569 71.4784 190.709 71.3405Z" fill="#FFFDFF"/>
<path d="M188.597 71.2788C188.747 71.1285 188.849 70.937 188.89 70.7286C188.932 70.5202 188.91 70.3043 188.829 70.1081C188.747 69.9119 188.61 69.7442 188.433 69.6262C188.256 69.5083 188.049 69.4453 187.836 69.4453C187.624 69.4453 187.416 69.5083 187.24 69.6262C187.063 69.7442 186.925 69.9119 186.844 70.1081C186.762 70.3043 186.741 70.5202 186.782 70.7286C186.823 70.937 186.926 71.1285 187.076 71.2788C187.175 71.3788 187.294 71.4582 187.425 71.5123C187.555 71.5665 187.695 71.5944 187.836 71.5944C187.978 71.5944 188.117 71.5665 188.248 71.5123C188.379 71.4582 188.497 71.3788 188.597 71.2788Z" fill="#FFFDFF"/>
<path d="M188.221 73.8647C188.277 73.8097 188.322 73.7439 188.352 73.6714C188.383 73.5988 188.398 73.5209 188.398 73.4422C188.398 73.3635 188.383 73.2856 188.352 73.213C188.322 73.1404 188.277 73.0747 188.221 73.0196C188.171 72.9492 188.106 72.8904 188.032 72.8471C187.957 72.8038 187.874 72.777 187.788 72.7685C187.702 72.7601 187.615 72.7701 187.533 72.7981C187.452 72.826 187.377 72.8711 187.314 72.9304C187.251 72.9897 187.202 73.0618 187.17 73.1417C187.137 73.2217 187.122 73.3077 187.126 73.394C187.129 73.4803 187.151 73.5648 187.19 73.6418C187.229 73.7189 187.284 73.7866 187.351 73.8406C187.464 73.9589 187.618 74.0278 187.781 74.0324C187.944 74.0369 188.102 73.9766 188.221 73.8647Z" fill="#FFFDFF"/>
<path opacity="0.4" d="M198.604 91.6494C198.755 91.5085 198.843 91.3136 198.85 91.1076C198.857 90.9016 198.781 90.7013 198.64 90.5508C198.5 90.4003 198.305 90.3119 198.099 90.3051C197.893 90.2983 197.692 90.3737 197.542 90.5146C197.469 90.5864 197.412 90.6719 197.372 90.7662C197.333 90.8605 197.312 90.9617 197.312 91.0639C197.312 91.1661 197.333 91.2672 197.372 91.3615C197.412 91.4558 197.469 91.5414 197.542 91.6132C197.682 91.7515 197.869 91.8319 198.066 91.8386C198.263 91.8453 198.455 91.7778 198.604 91.6494Z" fill="#FFFDFF"/>
<path opacity="0.4" d="M221.255 94.7861C221.329 94.7164 221.389 94.6326 221.431 94.5397C221.473 94.4467 221.497 94.3463 221.5 94.2443C221.504 94.1423 221.487 94.0406 221.451 93.9451C221.415 93.8495 221.361 93.762 221.291 93.6875C221.221 93.613 221.137 93.5529 221.044 93.5108C220.951 93.4686 220.851 93.4452 220.749 93.4418C220.647 93.4385 220.545 93.4552 220.45 93.4912C220.354 93.5271 220.267 93.5815 220.192 93.6513C220.12 93.7231 220.062 93.8087 220.023 93.903C219.983 93.9973 219.963 94.0984 219.963 94.2006C219.963 94.3028 219.983 94.4039 220.023 94.4982C220.062 94.5925 220.12 94.6781 220.192 94.7499C220.332 94.8882 220.52 94.9686 220.716 94.9753C220.913 94.9821 221.105 94.9145 221.255 94.7861Z" fill="#FFFDFF"/>
<path d="M203.374 92.8565C203.648 92.5977 203.839 92.2636 203.923 91.8963C204.007 91.5291 203.981 91.1451 203.847 90.7928C203.713 90.4406 203.478 90.1358 203.171 89.917C202.865 89.6982 202.5 89.5752 202.123 89.5634C201.747 89.5517 201.375 89.6517 201.055 89.8509C200.735 90.0501 200.482 90.3396 200.326 90.6828C200.171 91.026 200.12 91.4076 200.182 91.7794C200.243 92.1512 200.412 92.4966 200.67 92.772C200.841 92.9558 201.048 93.1039 201.277 93.2076C201.506 93.3114 201.753 93.3689 202.004 93.3767C202.256 93.3846 202.506 93.3427 202.741 93.2534C202.976 93.1641 203.191 93.0292 203.374 92.8565Z" fill="#FFFDFF"/>
<path d="M77.2545 167.928L77.2546 167.928C78.0782 165.195 79.9536 162.902 82.4682 161.552C84.9827 160.203 87.9305 159.907 90.6629 160.731C93.3954 161.554 95.6887 163.43 97.0385 165.944C98.3882 168.459 98.6838 171.407 97.8601 174.139L97.8498 174.173V174.185C96.9784 177.043 94.2265 181.273 90.9564 184.579C89.3173 186.236 87.5601 187.648 85.8605 188.537C84.1568 189.427 82.5449 189.773 81.174 189.359C79.8074 188.946 78.7552 187.8 77.9765 186.167C77.1987 184.536 76.7101 182.45 76.4559 180.222C75.9473 175.765 76.3844 170.807 77.2545 167.928Z" stroke="white" stroke-width="0.482933"/>
<g style="mix-blend-mode:lighten">
<path d="M98.0933 174.221C96.3426 180.04 86.9375 191.353 81.1061 189.59C75.2747 187.827 75.2626 173.69 77.0253 167.858C77.8675 165.064 79.785 162.72 82.3559 161.339C84.9269 159.959 87.9408 159.657 90.7346 160.499C93.5283 161.342 95.8732 163.259 97.2532 165.83C98.6332 168.401 98.9354 171.415 98.0933 174.209V174.221Z" fill="url(#paint13_linear_621_2288)" fill-opacity="0.4"/>
</g>
<path d="M86.89 160.573C88.5625 160.512 90.2257 160.847 91.7446 161.55C93.2635 162.252 94.5951 163.304 95.6311 164.618C97.3938 167.129 96.3435 169.387 93.2889 169.665C91.6161 169.719 89.9538 169.381 88.4357 168.676C86.9175 167.972 85.5859 166.921 84.5478 165.608C82.7851 163.097 83.8476 160.839 86.89 160.573Z" fill="#928D8E"/>
<path style="mix-blend-mode:lighten" opacity="0.5" d="M86.89 160.573C88.5625 160.512 90.2257 160.847 91.7446 161.55C93.2635 162.252 94.5951 163.304 95.6311 164.618C97.3938 167.129 96.3435 169.387 93.2889 169.665C91.6161 169.719 89.9538 169.381 88.4357 168.676C86.9175 167.972 85.5859 166.921 84.5478 165.608C82.7851 163.097 83.8476 160.839 86.89 160.573Z" fill="url(#paint14_radial_621_2288)"/>
<path d="M83.7055 163.423C84.3747 162.903 85.1889 162.603 86.0356 162.566C87.6992 162.515 89.3515 162.855 90.8593 163.56C92.3671 164.264 93.6883 165.313 94.7163 166.622C95.1993 167.257 95.4961 168.014 95.5735 168.807C96.6722 167.878 96.7809 166.308 95.5735 164.618C94.5375 163.304 93.2059 162.252 91.687 161.55C90.1682 160.847 88.5049 160.512 86.8325 160.573C84.78 160.755 83.621 161.902 83.7055 163.423Z" fill="#FFFDFF"/>
<path opacity="0.6" d="M97.1294 157.567C96.9576 157.562 96.7882 157.608 96.6427 157.7C96.4972 157.791 96.3821 157.924 96.312 158.081C96.2418 158.238 96.2198 158.412 96.2487 158.582C96.2775 158.751 96.356 158.908 96.4741 159.033C96.5922 159.158 96.7447 159.245 96.9123 159.283C97.0799 159.321 97.2551 159.309 97.4157 159.248C97.5763 159.186 97.7151 159.079 97.8145 158.939C97.914 158.799 97.9697 158.632 97.9746 158.46C97.9778 158.346 97.9584 158.232 97.9177 158.126C97.877 158.019 97.8156 157.921 97.7371 157.838C97.6586 157.755 97.5645 157.689 97.4603 157.642C97.356 157.595 97.2436 157.57 97.1294 157.567Z" fill="#FFFDFF"/>
<path d="M88.9654 151.532C88.5334 151.522 88.1082 151.641 87.7437 151.873C87.3792 152.106 87.0917 152.441 86.9176 152.836C86.7435 153.232 86.6906 153.67 86.7655 154.096C86.8405 154.521 87.0399 154.915 87.3387 155.227C87.6375 155.539 88.0221 155.756 88.444 155.85C88.8659 155.944 89.306 155.91 89.7089 155.754C90.1117 155.597 90.4592 155.325 90.7072 154.971C90.9552 154.617 91.0928 154.197 91.1024 153.765C91.1105 153.478 91.0614 153.192 90.958 152.923C90.8546 152.655 90.6991 152.41 90.5003 152.202C90.3016 151.995 90.0635 151.828 89.8001 151.713C89.5366 151.598 89.2529 151.536 88.9654 151.532Z" fill="#FFFDFF"/>
<path opacity="0.6" d="M101.498 146.621C101.26 146.621 101.026 146.692 100.828 146.825C100.629 146.957 100.474 147.146 100.383 147.366C100.292 147.587 100.268 147.83 100.314 148.064C100.361 148.298 100.476 148.513 100.645 148.682C100.813 148.851 101.029 148.966 101.263 149.013C101.497 149.059 101.74 149.035 101.96 148.944C102.181 148.852 102.37 148.698 102.502 148.499C102.635 148.301 102.706 148.067 102.706 147.828C102.706 147.508 102.578 147.201 102.352 146.975C102.126 146.748 101.819 146.621 101.498 146.621Z" fill="#FFFDFF"/>
<path d="M96.5958 147.598C96.4282 147.593 96.263 147.638 96.1211 147.728C95.9793 147.817 95.8673 147.947 95.7992 148.1C95.7312 148.253 95.7103 148.423 95.7392 148.588C95.768 148.753 95.8454 148.906 95.9614 149.027C96.0773 149.148 96.2266 149.232 96.3904 149.268C96.5541 149.304 96.7249 149.291 96.8809 149.229C97.0369 149.168 97.1712 149.062 97.2666 148.924C97.362 148.786 97.4143 148.623 97.4167 148.455C97.4199 148.345 97.4012 148.235 97.3615 148.132C97.3218 148.029 97.2621 147.935 97.1857 147.855C97.1093 147.775 97.0178 147.711 96.9165 147.667C96.8152 147.623 96.7062 147.6 96.5958 147.598Z" fill="#FFFDFF"/>
<path d="M97.5273 145.713C97.4523 145.71 97.3775 145.722 97.3074 145.748C97.2372 145.775 97.173 145.815 97.1189 145.867C97.0647 145.919 97.0217 145.981 96.9923 146.05C96.9628 146.119 96.9477 146.193 96.9478 146.268C96.9446 146.344 96.9564 146.419 96.9828 146.49C97.0091 146.561 97.0493 146.626 97.101 146.681C97.1527 146.736 97.215 146.78 97.284 146.811C97.3531 146.842 97.4276 146.859 97.5031 146.86C97.5854 146.872 97.6693 146.866 97.7492 146.843C97.829 146.819 97.9028 146.779 97.9657 146.725C98.0286 146.67 98.0791 146.603 98.1136 146.528C98.1482 146.452 98.1661 146.37 98.1661 146.287C98.1661 146.203 98.1482 146.121 98.1136 146.046C98.0791 145.97 98.0286 145.903 97.9657 145.848C97.9028 145.794 97.829 145.754 97.7492 145.73C97.6693 145.707 97.5854 145.701 97.5031 145.713H97.5273Z" fill="#FFFDFF"/>
<path opacity="0.6" d="M90.4664 161.856C90.3079 161.852 90.1501 161.879 90.0021 161.936C89.8541 161.993 89.7188 162.079 89.6039 162.188C89.4889 162.297 89.3967 162.428 89.3324 162.573C89.268 162.718 89.2329 162.874 89.2289 163.033C89.2249 163.192 89.2522 163.349 89.3093 163.497C89.3663 163.645 89.4519 163.781 89.5612 163.896C89.6705 164.01 89.8014 164.103 89.9463 164.167C90.0913 164.231 90.2475 164.267 90.406 164.271C90.5646 164.274 90.7224 164.247 90.8704 164.19C91.0184 164.133 91.1537 164.048 91.2686 163.938C91.3835 163.829 91.4758 163.698 91.5401 163.553C91.6045 163.408 91.6396 163.252 91.6436 163.093C91.6475 162.935 91.6202 162.777 91.5632 162.629C91.5062 162.481 91.4206 162.346 91.3113 162.231C91.202 162.116 91.0711 162.024 90.9261 161.959C90.7812 161.895 90.625 161.86 90.4664 161.856Z" fill="#FFFDFF"/>
<path d="M94.1444 161.462C93.7835 161.452 93.4279 161.55 93.1227 161.743C92.8175 161.936 92.5764 162.215 92.43 162.545C92.2836 162.875 92.2385 163.241 92.3004 163.597C92.3624 163.952 92.5285 164.282 92.7778 164.543C93.0271 164.804 93.3483 164.985 93.7007 165.064C94.0531 165.142 94.4209 165.114 94.7574 164.983C95.0939 164.852 95.3839 164.624 95.5908 164.328C95.7976 164.032 95.9119 163.682 95.9192 163.321C95.9289 162.839 95.7478 162.374 95.4152 162.025C95.0827 161.677 94.6258 161.474 94.1444 161.462Z" fill="#FFFDFF"/>
<path d="M130.065 139.991C131.399 130.933 125.138 122.509 116.081 121.175C107.024 119.841 98.5997 126.102 97.2655 135.159C95.9312 144.216 102.192 152.64 111.249 153.974C120.307 155.309 128.731 149.048 130.065 139.991Z" fill="url(#paint15_radial_621_2288)"/>
<g style="mix-blend-mode:lighten">
<path d="M128.407 130.468C132.318 138.598 128.898 148.359 120.768 152.269C112.638 156.18 102.877 152.76 98.9661 144.63C95.0552 136.5 98.4753 126.739 106.605 122.828C114.735 118.918 124.496 122.338 128.407 130.468Z" fill="url(#paint16_linear_621_2288)" fill-opacity="0.5" stroke="white" stroke-width="0.482933"/>
</g>
<g style="mix-blend-mode:lighten">
<path d="M196.044 167.689C196.044 183.719 191.271 198.218 183.568 208.703C175.864 219.187 165.247 225.641 153.546 225.641C141.845 225.641 131.228 219.187 123.524 208.703C115.821 198.218 111.048 183.719 111.048 167.689C111.048 151.663 115.817 141.308 123.474 134.95C131.142 128.584 141.759 126.181 153.546 126.181C165.333 126.181 175.95 128.584 183.618 134.95C191.275 141.308 196.044 151.663 196.044 167.689Z" fill="url(#paint17_linear_621_2288)" fill-opacity="0.4" stroke="white" stroke-width="0.603666"/>
</g>
<path d="M153.545 160.034C169.675 160.034 182.751 152.482 182.751 143.167C182.751 133.852 169.675 126.301 153.545 126.301C137.416 126.301 124.34 133.852 124.34 143.167C124.34 152.482 137.416 160.034 153.545 160.034Z" fill="#928D8E"/>
<path style="mix-blend-mode:lighten" opacity="0.5" d="M153.545 160.034C169.675 160.034 182.751 152.482 182.751 143.167C182.751 133.852 169.675 126.301 153.545 126.301C137.416 126.301 124.34 133.852 124.34 143.167C124.34 152.482 137.416 160.034 153.545 160.034Z" fill="url(#paint18_radial_621_2288)"/>
<path d="M132.887 135.744C144.297 129.152 162.793 129.152 174.202 135.744C178.911 138.461 181.664 141.877 182.485 145.403C183.692 140.38 180.891 135.104 174.202 131.241C162.793 124.649 144.297 124.649 132.887 131.241C126.199 135.104 123.434 140.38 124.605 145.403C125.426 141.877 128.179 138.461 132.887 135.744Z" fill="#FFFDFF"/>
<path d="M137.189 93.0123C142 84.6796 142 75.6733 137.19 72.8961C132.38 70.1189 124.58 74.6225 119.769 82.9553C114.959 91.288 114.958 100.294 119.768 103.072C124.578 105.849 132.378 101.345 137.189 93.0123Z" fill="#F8F6F8"/>
<path d="M198.594 102.93C198.594 126.868 179.188 146.273 155.251 146.273C131.313 146.273 111.907 126.868 111.907 102.93C111.907 78.9924 131.313 59.587 155.251 59.587C179.188 59.587 198.594 78.9924 198.594 102.93Z" fill="url(#paint19_radial_621_2288)" stroke="white" stroke-width="0.603666"/>
<g style="mix-blend-mode:lighten">
<path d="M155.252 146.575C179.357 146.575 198.898 127.035 198.898 102.93C198.898 78.8257 179.357 59.2852 155.252 59.2852C131.148 59.2852 111.607 78.8257 111.607 102.93C111.607 127.035 131.148 146.575 155.252 146.575Z" fill="url(#paint20_linear_621_2288)"/>
</g>
<path d="M141.632 123.598C140.509 132.182 134.038 134.875 127.144 129.635C120.25 124.395 115.602 113.155 116.713 104.571C117.824 95.9865 124.307 93.2942 131.201 98.534C138.095 103.774 142.743 115.014 141.632 123.598Z" fill="#928D8E"/>
<g style="mix-blend-mode:lighten" opacity="0.5">
<path d="M141.033 123.521C140.488 127.687 138.671 130.264 136.32 131.243C133.969 132.222 130.856 131.698 127.509 129.154C124.168 126.614 121.339 122.591 119.484 118.125C117.629 113.659 116.773 108.811 117.311 104.648C117.85 100.482 119.668 97.9048 122.02 96.9257C124.373 95.9463 127.489 96.4713 130.835 99.0146C134.177 101.555 137.006 105.577 138.861 110.044C140.716 114.509 141.572 119.358 141.033 123.521Z" fill="url(#paint21_radial_621_2288)" style="mix-blend-mode:lighten"/>
<path d="M141.033 123.521C140.488 127.687 138.671 130.264 136.32 131.243C133.969 132.222 130.856 131.698 127.509 129.154C124.168 126.614 121.339 122.591 119.484 118.125C117.629 113.659 116.773 108.811 117.311 104.648C117.85 100.482 119.668 97.9048 122.02 96.9257C124.373 95.9463 127.489 96.4713 130.835 99.0146C134.177 101.555 137.006 105.577 138.861 110.044C140.716 114.509 141.572 119.358 141.033 123.521Z" stroke="white" stroke-width="1.20733"/>
</g>
<path d="M135.943 116.16C135.544 119.287 133.19 120.265 130.691 118.357C129.384 117.245 128.359 115.839 127.7 114.255C127.041 112.671 126.767 110.953 126.9 109.242C127.298 106.127 129.652 105.149 132.152 107.057C133.457 108.168 134.48 109.571 135.139 111.154C135.798 112.736 136.073 114.451 135.943 116.16Z" fill="#FFFDFF"/>
<path d="M130.461 128.368C123.58 123.116 118.907 111.888 120.03 103.304C120.477 99.8145 121.829 97.267 123.724 95.8906C120.102 96.2287 117.41 99.2711 116.722 104.559C115.611 113.143 120.284 124.36 127.153 129.623C131.234 132.738 135.158 133.052 137.923 131.024C135.191 131.103 132.529 130.155 130.461 128.368Z" fill="#FFFDFF"/>
<path d="M127.745 129.344C120.875 124.08 116.203 112.864 117.314 104.28C117.833 100.308 119.499 97.5912 121.829 96.3477C119.197 97.4343 117.289 100.259 116.722 104.558C115.611 113.142 120.284 124.358 127.153 129.622C130.848 132.447 134.397 132.966 137.114 131.517C134.554 132.592 131.174 131.964 127.745 129.344Z" fill="#FFFDFF"/>
<g style="mix-blend-mode:lighten">
<path d="M216.275 174.279C218.768 182.949 213.76 191.999 205.09 194.492C196.419 196.984 187.37 191.976 184.877 183.306C182.384 174.636 187.392 165.586 196.063 163.093C204.733 160.6 213.783 165.608 216.275 174.279Z" fill="url(#paint22_linear_621_2288)" fill-opacity="0.5" stroke="white" stroke-width="0.482933"/>
</g>
<path d="M216.508 179.087C216.371 181.629 215.636 184.104 214.363 186.308C213.089 188.513 211.314 190.387 209.18 191.776C205.135 194.106 201.863 192.222 201.863 187.55C201.999 185.007 202.732 182.532 204.003 180.325C205.274 178.118 207.048 176.242 209.18 174.849C213.236 172.519 216.508 174.475 216.508 179.087Z" fill="#928D8E"/>
<path style="mix-blend-mode:lighten" opacity="0.5" d="M216.508 179.087C216.371 181.629 215.636 184.104 214.363 186.308C213.089 188.513 211.314 190.387 209.18 191.776C205.135 194.106 201.863 192.222 201.863 187.55C201.999 185.007 202.732 182.532 204.003 180.325C205.274 178.118 207.048 176.242 209.18 174.849C213.236 172.519 216.508 174.475 216.508 179.087Z" fill="url(#paint23_radial_621_2288)"/>
<path d="M212.622 173.859C213.307 174.94 213.648 176.203 213.599 177.481C213.465 180.024 212.73 182.499 211.457 184.705C210.183 186.91 208.406 188.783 206.271 190.17C205.24 190.819 204.048 191.162 202.83 191.16C204.098 192.971 206.452 193.322 209.181 191.752C211.315 190.363 213.09 188.49 214.364 186.285C215.637 184.08 216.372 181.606 216.509 179.063C216.509 175.851 214.94 173.944 212.622 173.859Z" fill="#FFFDFF"/>
<path d="M192.086 118.892L176.27 128.019V109.764L192.086 100.637V118.892Z" fill="#928D8E"/>
<path opacity="0.8" d="M189.731 101.989V117.624L176.27 125.387V128.019L192.086 118.892V100.637L189.731 101.989Z" fill="url(#paint24_radial_621_2288)"/>
<path d="M179.286 114.747L177.873 115.568V113.926L179.286 113.117V114.747Z" fill="#FFFDFF"/>
<path d="M182.293 110.923L180.881 111.744V110.102L182.293 109.281V110.923Z" fill="#FFFDFF"/>
<path d="M185.297 111.279L183.885 112.1V110.458L185.297 109.637V111.279Z" fill="#FFFDFF"/>
<path d="M185.297 115.568L183.885 116.389V114.747L185.297 113.926V115.568Z" fill="#FFFDFF"/>
<path d="M183.487 118.864L182.074 119.685V118.043L183.487 117.234V118.864Z" fill="#FFFDFF"/>
<path d="M188.401 113.779L186.988 114.6V112.958L188.401 112.137V113.779Z" fill="#FFFDFF"/>
<path d="M204.82 114.07L206.546 111.076L204.82 110.086L189.016 119.213V137.468L190.742 138.458L192.469 135.464L204.82 128.341V114.07Z" fill="url(#paint25_linear_621_2288)"/>
<path d="M206.546 129.333L190.742 138.46V120.206L206.546 111.078V129.333Z" fill="url(#paint26_linear_621_2288)"/>
<path style="mix-blend-mode:lighten" d="M206.546 129.333L190.742 138.46V120.206L206.546 111.078V129.333Z" fill="url(#paint27_linear_621_2288)"/>
<path d="M261.327 76.1813C261.045 76.1837 260.767 76.1018 260.531 75.9462C260.295 75.7906 260.111 75.5682 260.001 75.3074C259.892 75.0466 259.863 74.7592 259.917 74.4817C259.972 74.2042 260.108 73.9493 260.308 73.7493C260.508 73.5493 260.763 73.4134 261.04 73.3588C261.318 73.3042 261.605 73.3335 261.866 73.4428C262.127 73.5521 262.349 73.7366 262.505 73.9727C262.66 74.2088 262.742 74.4859 262.74 74.7687C262.74 75.1433 262.591 75.5026 262.326 75.7675C262.061 76.0325 261.702 76.1813 261.327 76.1813Z" fill="#FFFDFF"/>
<path d="M205.786 62.1948C205.589 62.213 205.39 62.1899 205.202 62.1269C205.014 62.0639 204.842 61.9624 204.695 61.8289C204.549 61.6954 204.432 61.5328 204.352 61.3516C204.272 61.1703 204.23 60.9743 204.23 60.7762C204.23 60.5781 204.272 60.3821 204.352 60.2009C204.432 60.0196 204.549 59.857 204.695 59.7235C204.842 59.59 205.014 59.4885 205.202 59.4255C205.39 59.3625 205.589 59.3394 205.786 59.3576C206.14 59.3903 206.468 59.5538 206.708 59.8163C206.947 60.0787 207.08 60.421 207.08 60.7762C207.08 61.1314 206.947 61.4737 206.708 61.7362C206.468 61.9986 206.14 62.1622 205.786 62.1948Z" fill="#FFFDFF"/>
<path d="M211.739 225.226L211.739 225.226L211.738 225.231C210.872 228.09 208.108 232.34 204.825 235.661C203.185 237.319 201.429 238.733 199.731 239.622C198.028 240.515 196.419 240.863 195.051 240.452C193.688 240.041 192.637 238.897 191.859 237.263C191.081 235.631 190.592 233.544 190.336 231.315C189.825 226.855 190.256 221.893 191.12 219.02L191.12 219.02L191.121 219.015C191.503 217.632 192.158 216.339 193.047 215.212C193.936 214.085 195.041 213.147 196.298 212.454C197.554 211.76 198.937 211.325 200.364 211.173C201.791 211.021 203.234 211.156 204.609 211.57C205.983 211.984 207.261 212.669 208.366 213.584C209.472 214.498 210.384 215.625 211.049 216.897C211.713 218.17 212.116 219.562 212.235 220.992C212.353 222.423 212.185 223.862 211.739 225.226Z" stroke="white" stroke-width="0.482933"/>
<g style="mix-blend-mode:lighten">
<path d="M211.969 225.301C210.206 231.121 200.801 242.433 194.981 240.683C189.162 238.932 189.138 224.77 190.889 218.951C191.279 217.536 191.949 216.214 192.858 215.062C193.766 213.91 194.896 212.951 196.181 212.242C197.466 211.533 198.879 211.088 200.339 210.933C201.798 210.778 203.273 210.916 204.678 211.339C206.083 211.762 207.39 212.462 208.52 213.398C209.651 214.333 210.583 215.485 211.263 216.786C211.942 218.086 212.354 219.51 212.475 220.972C212.597 222.435 212.424 223.907 211.969 225.301Z" fill="url(#paint28_linear_621_2288)" fill-opacity="0.1"/>
</g>
<path d="M200.766 211.659C202.437 211.598 204.099 211.933 205.616 212.636C207.132 213.339 208.462 214.39 209.495 215.704C211.258 218.215 210.208 220.473 207.153 220.751C205.485 220.814 203.825 220.482 202.308 219.784C200.792 219.085 199.461 218.039 198.424 216.73C196.661 214.183 197.7 211.901 200.766 211.659Z" fill="#928D8E"/>
<path style="mix-blend-mode:lighten" opacity="0.5" d="M200.766 211.659C202.437 211.598 204.099 211.933 205.616 212.636C207.132 213.339 208.462 214.39 209.495 215.704C211.258 218.215 210.208 220.473 207.153 220.751C205.485 220.814 203.825 220.482 202.308 219.784C200.792 219.085 199.461 218.039 198.424 216.73C196.661 214.183 197.7 211.901 200.766 211.659Z" fill="url(#paint29_radial_621_2288)"/>
<path d="M197.566 214.509C198.238 213.993 199.05 213.694 199.896 213.652C201.567 213.596 203.228 213.934 204.744 214.639C206.261 215.343 207.59 216.395 208.625 217.708C209.108 218.343 209.405 219.1 209.482 219.893C210.593 218.964 210.689 217.394 209.482 215.704C208.449 214.39 207.119 213.339 205.602 212.636C204.085 211.933 202.424 211.598 200.753 211.659C198.64 211.901 197.493 212.987 197.566 214.509Z" fill="#FFFDFF"/>
<path opacity="0.6" d="M209.412 204.659C209.492 204.58 209.556 204.486 209.6 204.383C209.643 204.279 209.666 204.168 209.666 204.055C209.666 203.943 209.643 203.832 209.6 203.728C209.556 203.624 209.492 203.53 209.412 203.452C209.252 203.292 209.035 203.203 208.808 203.203C208.582 203.203 208.365 203.292 208.205 203.452C208.048 203.614 207.961 203.83 207.961 204.055C207.961 204.281 208.048 204.497 208.205 204.659C208.365 204.818 208.582 204.908 208.808 204.908C209.035 204.908 209.252 204.818 209.412 204.659Z" fill="#FFFDFF"/>
<path d="M219.468 203.242C219.782 202.946 220.002 202.563 220.1 202.142C220.197 201.721 220.167 201.281 220.014 200.877C219.861 200.473 219.592 200.123 219.24 199.872C218.889 199.621 218.471 199.479 218.039 199.466C217.607 199.452 217.181 199.567 216.814 199.796C216.447 200.025 216.157 200.357 215.979 200.751C215.801 201.144 215.744 201.582 215.815 202.008C215.886 202.435 216.081 202.83 216.377 203.145C216.573 203.355 216.809 203.523 217.071 203.642C217.333 203.76 217.615 203.825 217.902 203.834C218.189 203.843 218.475 203.796 218.744 203.694C219.012 203.592 219.258 203.439 219.468 203.242Z" fill="#FFFDFF"/>
<path opacity="0.6" d="M213.987 215.521C214.104 215.411 214.198 215.279 214.265 215.132C214.331 214.986 214.368 214.827 214.373 214.666C214.378 214.506 214.351 214.345 214.294 214.195C214.237 214.044 214.151 213.906 214.041 213.789C213.931 213.672 213.799 213.577 213.652 213.511C213.505 213.445 213.347 213.408 213.186 213.403C213.025 213.398 212.865 213.425 212.714 213.481C212.564 213.538 212.426 213.624 212.308 213.735C212.072 213.957 211.933 214.265 211.922 214.59C211.912 214.915 212.032 215.23 212.254 215.467C212.477 215.704 212.784 215.843 213.109 215.853C213.434 215.863 213.75 215.744 213.987 215.521Z" fill="#FFFDFF"/>
<path d="M216.8 211.416C216.882 211.338 216.947 211.245 216.992 211.141C217.036 211.037 217.059 210.925 217.059 210.812C217.059 210.699 217.036 210.588 216.992 210.484C216.947 210.38 216.882 210.286 216.8 210.209C216.732 210.106 216.642 210.02 216.537 209.956C216.432 209.891 216.314 209.851 216.191 209.837C216.069 209.824 215.945 209.837 215.828 209.876C215.711 209.915 215.604 209.98 215.515 210.064C215.426 210.149 215.356 210.253 215.311 210.367C215.266 210.482 215.246 210.605 215.253 210.728C215.261 210.851 215.295 210.971 215.354 211.08C215.413 211.188 215.494 211.282 215.593 211.356C215.667 211.441 215.757 211.511 215.859 211.561C215.96 211.611 216.071 211.64 216.184 211.645C216.297 211.651 216.41 211.633 216.516 211.594C216.622 211.555 216.719 211.494 216.8 211.416Z" fill="#FFFDFF"/>
<path d="M217.464 213.411C217.543 213.331 217.596 213.23 217.617 213.12C217.638 213.01 217.626 212.897 217.583 212.793C217.54 212.69 217.467 212.602 217.374 212.54C217.281 212.478 217.171 212.445 217.06 212.445C216.948 212.445 216.838 212.478 216.745 212.54C216.652 212.602 216.579 212.69 216.536 212.793C216.493 212.897 216.481 213.01 216.502 213.12C216.524 213.23 216.577 213.331 216.655 213.411C216.708 213.464 216.771 213.507 216.84 213.536C216.91 213.565 216.984 213.58 217.06 213.58C217.135 213.58 217.209 213.565 217.279 213.536C217.348 213.507 217.411 213.464 217.464 213.411Z" fill="#FFFDFF"/>
<path opacity="0.6" d="M211.182 196.942C211.348 196.772 211.46 196.557 211.505 196.324C211.549 196.09 211.524 195.849 211.431 195.63C211.339 195.411 211.185 195.224 210.987 195.092C210.789 194.961 210.556 194.891 210.319 194.891C210.081 194.891 209.849 194.961 209.651 195.092C209.453 195.224 209.298 195.411 209.206 195.63C209.114 195.849 209.088 196.09 209.133 196.324C209.177 196.557 209.289 196.772 209.455 196.942C209.568 197.057 209.702 197.148 209.85 197.211C209.999 197.273 210.158 197.305 210.319 197.305C210.479 197.305 210.639 197.273 210.787 197.211C210.935 197.148 211.069 197.057 211.182 196.942Z" fill="#FFFDFF"/>
<path d="M208.84 199.824C209.19 199.492 209.394 199.035 209.407 198.553C209.421 198.071 209.243 197.604 208.913 197.252C208.666 196.994 208.348 196.814 207.999 196.736C207.65 196.657 207.286 196.684 206.953 196.812C206.619 196.94 206.331 197.164 206.124 197.456C205.917 197.748 205.802 198.094 205.792 198.451C205.782 198.809 205.878 199.161 206.067 199.464C206.257 199.767 206.532 200.007 206.858 200.154C207.184 200.3 207.547 200.348 207.899 200.289C208.252 200.23 208.579 200.068 208.84 199.824Z" fill="#FFFDFF"/>
<path d="M172.863 86.5935L82.7118 34.9318C82.1614 34.5313 81.5094 34.2939 80.8303 34.2469C80.1513 34.1999 79.4727 34.3453 78.8725 34.6662L73.3066 37.8898L76.9286 40.5097V43.4435L74.8762 44.3128L74.9848 154.325L81.0939 160.205L101.957 172.193L165.945 207.822H168.662C168.782 207.822 168.939 207.496 169.084 207.061L171.825 208.643L170.956 212.82L176.618 209.56C177.825 208.86 178.658 207.218 178.658 204.864V97.6406C178.646 93.3908 176.051 88.4408 172.863 86.5935ZM170.376 201.713L83.5327 151.946C83.1329 151.657 82.8059 151.278 82.5775 150.84C82.3491 150.402 82.2256 149.917 82.2168 149.423V43.6125L100.641 55.4685L167.466 94.8758L169.434 97.9304L170.521 145.849L170.376 201.713Z" fill="url(#paint30_linear_621_2288)"/>
<path opacity="0.6" d="M176.811 90.9609L168.166 95.9955L169.434 97.9755L170.52 145.895L170.375 201.758L168.782 200.828C168.782 202.555 170.955 211.078 170.955 212.901L175.555 210.257L176.617 209.642C177.825 208.941 178.658 207.299 178.658 204.945V97.6375C178.595 95.2947 177.961 93.0027 176.811 90.9609Z" fill="#646363"/>
<path d="M167.03 89.9597L76.8905 38.2859C73.6911 36.4387 71.1074 38.3946 71.1074 42.6564V149.88C71.1074 154.141 73.6911 159.091 76.8905 160.927L167.03 212.6C170.229 214.448 172.813 212.492 172.813 208.23V101.007C172.813 96.7449 170.229 91.7948 167.03 89.9597ZM167.537 205.03C167.537 205.996 166.945 206.443 166.209 206.033L77.7115 155.325C77.3067 155.039 76.9753 154.661 76.7444 154.222C76.5136 153.784 76.3899 153.297 76.3835 152.801V45.8559C76.3835 44.89 76.9751 44.4433 77.7115 44.8538L166.209 95.5617C166.614 95.8476 166.945 96.2253 167.176 96.6639C167.407 97.1025 167.531 97.5895 167.537 98.085V205.03Z" fill="url(#paint31_linear_621_2288)"/>
<path d="M167.03 89.9597L76.8905 38.2859C73.6911 36.4387 71.1074 38.3946 71.1074 42.6564V149.88C71.1074 154.141 73.6911 159.091 76.8905 160.927L167.03 212.6C170.229 214.448 172.813 212.492 172.813 208.23V101.007C172.813 96.7449 170.229 91.7948 167.03 89.9597ZM167.537 205.03C167.537 205.996 166.945 206.443 166.209 206.033L77.7115 155.325C77.3067 155.039 76.9753 154.661 76.7444 154.222C76.5136 153.784 76.3899 153.297 76.3835 152.801V45.8559C76.3835 44.89 76.9751 44.4433 77.7115 44.8538L166.209 95.5617C166.614 95.8476 166.945 96.2253 167.176 96.6639C167.407 97.1025 167.531 97.5895 167.537 98.085V205.03Z" fill="url(#paint32_linear_621_2288)" fill-opacity="0.4"/>
<path d="M83.5321 151.943C83.1323 151.653 82.8053 151.275 82.5769 150.837C82.3485 150.399 82.225 149.914 82.2162 149.42V47.4609L77.7128 44.853C76.9764 44.4425 76.3848 44.853 76.3848 45.8551V152.74C76.3912 153.236 76.5149 153.723 76.7457 154.161C76.9766 154.6 77.308 154.978 77.7128 155.263L166.21 205.971C166.947 206.382 167.538 205.971 167.538 204.969V200.068L83.5321 151.943Z" fill="#4E4D4D" fill-opacity="0.4"/>
<g opacity="0.4">
<path d="M103.695 92.5806L95.0742 87.6064V85.4453L103.695 90.4074V92.5806Z" fill="#FFFDFF"/>
<path d="M111.033 96.8201L106.723 94.333V92.1719L111.033 94.659V96.8201Z" fill="#FFFDFF"/>
<path d="M106.229 99.1259L102.559 97.013V94.8398L106.229 96.9648V99.1259Z" fill="#FFFDFF"/>
<path d="M112.377 102.676L108.066 100.188V98.0273L112.377 100.514V102.676Z" fill="#FFFDFF"/>
<path d="M119.473 111.858L102.559 102.091V99.918L119.473 109.685V111.858Z" fill="#FFFDFF"/>
<path d="M106.229 109.29L102.559 107.177V105.004L106.229 107.129V109.29Z" fill="#FFFDFF"/>
<path d="M112.377 112.84L108.066 110.353V108.191L112.377 110.679V112.84Z" fill="#FFFDFF"/>
<path d="M111.855 117.632L102.559 112.259V110.086L111.855 115.459V117.632Z" fill="#FFFDFF"/>
<path d="M118.084 121.219L113.773 118.731V116.57L118.084 119.057V121.219Z" fill="#FFFDFF"/>
<path d="M124.339 124.828L120.041 122.353V120.18L124.339 122.667V124.828Z" fill="#FFFDFF"/>
<path d="M134.444 130.663L126.295 125.966V123.793L134.444 128.502V130.663Z" fill="#FFFDFF"/>
<path d="M129.556 138.012L125.258 135.525V133.352L129.556 135.839V138.012Z" fill="#FFFDFF"/>
<path d="M139.661 143.842L131.512 139.134V136.973L139.661 141.669V143.842Z" fill="#FFFDFF"/>
<path d="M106.869 124.91L102.559 122.423V120.25L106.869 122.737V124.91Z" fill="#FFFDFF"/>
<path d="M113.123 128.519L108.812 126.032V123.871L113.123 126.346V128.519Z" fill="#FFFDFF"/>
<path d="M123.217 134.354L115.08 129.645V127.484L123.217 132.181V134.354Z" fill="#FFFDFF"/>
<path d="M135.675 136.453L131.365 133.966V131.805L135.675 134.292V136.453Z" fill="#FFFDFF"/>
<path d="M141.929 140.066L137.619 137.579V135.418L141.929 137.905V140.066Z" fill="#FFFDFF"/>
<path d="M152.024 145.893L143.887 141.197V139.023L152.024 143.732V145.893Z" fill="#FFFDFF"/>
<path d="M106.869 135.078L102.559 132.591V130.418L106.869 132.905V135.078Z" fill="#FFFDFF"/>
<path d="M116.962 140.897L108.812 136.201V134.027L116.962 138.736V140.897Z" fill="#FFFDFF"/>
<path d="M132.343 119.285L128.045 116.798V114.637L132.343 117.124V119.285Z" fill="#FFFDFF"/>
<path d="M125.838 115.531L121.527 113.044V110.883L125.838 113.358V115.531Z" fill="#FFFDFF"/>
<path d="M142.436 125.12L134.299 120.423V118.25L142.436 122.959V125.12Z" fill="#FFFDFF"/>
<path d="M106.446 119.591L102.559 117.345V115.172L106.446 117.418V119.591Z" fill="#FFFDFF"/>
<path d="M117.967 126.228L108.525 120.783V118.609L117.967 124.067V126.228Z" fill="#FFFDFF"/>
<path d="M129.482 132.88L120.041 127.435V125.262L129.482 130.707V132.88Z" fill="#FFFDFF"/>
<path d="M148.425 128.571L144.537 126.337V124.164L148.425 126.41V128.571Z" fill="#FFFDFF"/>
<path d="M112.086 133.001L102.645 127.556V125.383L112.086 130.84V133.001Z" fill="#FFFDFF"/>
<path d="M117.058 135.874L114.16 134.208V132.035L117.058 133.713V135.874Z" fill="#FFFDFF"/>
<path d="M122.048 138.761L119.15 137.083V134.922L122.048 136.588V138.761Z" fill="#FFFDFF"/>
<path d="M131.27 144.071L124.135 139.954V137.793L131.27 141.91V144.071Z" fill="#FFFDFF"/>
<path d="M133.201 145.196L126.078 141.079V138.918L133.201 143.035V145.196Z" fill="#FFFDFF"/>
<path d="M139.253 133.449L136.355 131.771V129.598L139.253 131.276V133.449Z" fill="#FFFDFF"/>
<path d="M148.475 138.775L141.34 134.645V132.484L148.475 136.601V138.775Z" fill="#FFFDFF"/>
<path d="M98.0558 135.082L95.1582 133.404V131.23L98.0558 132.909V135.082Z" fill="#FFFDFF"/>
<path d="M107.28 140.4L100.145 136.27V134.109L107.28 138.226V140.4Z" fill="#FFFDFF"/>
<path d="M116.699 145.833L109.576 141.716V139.543L116.699 143.66V145.833Z" fill="#FFFDFF"/>
</g>
</g>
<defs>
<linearGradient id="paint0_linear_621_2288" x1="265.262" y1="335.494" x2="314.014" y2="363.637" gradientUnits="userSpaceOnUse">
<stop stop-color="#F8F6F8"/>
<stop offset="0.7" stop-color="#E6E4E6"/>
<stop offset="1" stop-color="#DDDBDD"/>
</linearGradient>
<linearGradient id="paint1_linear_621_2288" x1="259.152" y1="346.131" x2="320.593" y2="346.131" gradientUnits="userSpaceOnUse">
<stop stop-color="#FDF3F7"/>
<stop offset="0.25" stop-color="#F0E9ED"/>
<stop offset="0.66" stop-color="#E2DFE1"/>
<stop offset="1" stop-color="#DDDBDD"/>
</linearGradient>
<linearGradient id="paint2_linear_621_2288" x1="265.26" y1="299.603" x2="314.012" y2="327.758" gradientUnits="userSpaceOnUse">
<stop stop-color="#595959"/>
<stop offset="1" stop-color="#232323"/>
</linearGradient>
<linearGradient id="paint3_linear_621_2288" x1="6.10715" y1="328.381" x2="54.8713" y2="356.536" gradientUnits="userSpaceOnUse">
<stop stop-color="#F8F6F8"/>
<stop offset="0.7" stop-color="#E6E4E6"/>
<stop offset="1" stop-color="#DDDBDD"/>
</linearGradient>
<linearGradient id="paint4_linear_621_2288" x1="-0.00106521" y1="339.032" x2="61.4521" y2="339.032" gradientUnits="userSpaceOnUse">
<stop stop-color="#FDF3F7"/>
<stop offset="0.25" stop-color="#F0E9ED"/>
<stop offset="0.66" stop-color="#E2DFE1"/>
<stop offset="1" stop-color="#DDDBDD"/>
</linearGradient>
<linearGradient id="paint5_linear_621_2288" x1="6.10643" y1="289.892" x2="54.8706" y2="318.047" gradientUnits="userSpaceOnUse">
<stop stop-color="#595959"/>
<stop offset="1" stop-color="#232323"/>
</linearGradient>
<linearGradient id="paint6_linear_621_2288" x1="281.576" y1="176.006" x2="330.328" y2="204.149" gradientUnits="userSpaceOnUse">
<stop stop-color="#F8F6F8"/>
<stop offset="0.7" stop-color="#E6E4E6"/>
<stop offset="1" stop-color="#DDDBDD"/>
</linearGradient>
<linearGradient id="paint7_linear_621_2288" x1="275.454" y1="186.641" x2="336.907" y2="186.641" gradientUnits="userSpaceOnUse">
<stop stop-color="#FDF3F7"/>
<stop offset="0.25" stop-color="#F0E9ED"/>
<stop offset="0.66" stop-color="#E2DFE1"/>
<stop offset="1" stop-color="#DDDBDD"/>
</linearGradient>
<linearGradient id="paint8_linear_621_2288" x1="281.57" y1="140.162" x2="330.322" y2="168.305" gradientUnits="userSpaceOnUse">
<stop stop-color="#979797"/>
<stop offset="0.7" stop-color="#888888"/>
<stop offset="1" stop-color="#1E1E1E"/>
</linearGradient>
<linearGradient id="paint9_linear_621_2288" x1="262.787" y1="245.973" x2="23.8564" y2="245.973" gradientUnits="userSpaceOnUse">
<stop stop-color="#DDDBDD"/>
<stop offset="0.38" stop-color="#E2E0E2"/>
<stop offset="0.82" stop-color="#F0EEF0"/>
<stop offset="1" stop-color="#F8F6F8"/>
</linearGradient>
<linearGradient id="paint10_linear_621_2288" x1="186.977" y1="219.749" x2="-51.942" y2="219.749" gradientUnits="userSpaceOnUse">
<stop stop-color="#DDDBDD"/>
<stop offset="0.34" stop-color="#E2DFE1"/>
<stop offset="0.75" stop-color="#F0E9ED"/>
<stop offset="1" stop-color="#FDF3F7"/>
</linearGradient>
<radialGradient id="paint11_radial_621_2288" cx="0" cy="0" r="1" gradientUnits="userSpaceOnUse" gradientTransform="translate(131.033 296.692) rotate(180) scale(73.7272 100.193)">
<stop stop-color="#DDDBDD"/>
<stop offset="1" stop-color="#B3B1B4"/>
</radialGradient>
<radialGradient id="paint12_radial_621_2288" cx="0" cy="0" r="1" gradientUnits="userSpaceOnUse" gradientTransform="translate(197.054 93.6903) rotate(52.7986) scale(29.422 71.7611)">
<stop stop-color="#FFFDFF" stop-opacity="0.5"/>
<stop offset="1" stop-color="#646363" stop-opacity="0"/>
</radialGradient>
<linearGradient id="paint13_linear_621_2288" x1="74.472" y1="180.716" x2="97.926" y2="166.937" gradientUnits="userSpaceOnUse">
<stop stop-color="#FFFDFF"/>
<stop offset="0.11" stop-color="#EEECEE"/>
<stop offset="0.32" stop-color="#D4D2D5"/>
<stop offset="0.53" stop-color="#C2C0C2"/>
<stop offset="0.76" stop-color="#B7B5B8"/>
<stop offset="1" stop-color="#B3B1B4"/>
</linearGradient>
<radialGradient id="paint14_radial_621_2288" cx="0" cy="0" r="1" gradientUnits="userSpaceOnUse" gradientTransform="translate(103.353 150.566) rotate(-95.1428) scale(20.3651 20.3652)">
<stop stop-color="#FFFDFF"/>
<stop offset="0.08" stop-color="#E5E3E5"/>
<stop offset="0.22" stop-color="#BEBCBD"/>
<stop offset="0.36" stop-color="#9D9C9C"/>
<stop offset="0.51" stop-color="#848383"/>
<stop offset="0.66" stop-color="#727171"/>
<stop offset="0.82" stop-color="#676666"/>
<stop offset="1" stop-color="#646363"/>
</radialGradient>
<radialGradient id="paint15_radial_621_2288" cx="0" cy="0" r="1" gradientUnits="userSpaceOnUse" gradientTransform="translate(192.969 84.6378) rotate(11.2) scale(95.6689)">
<stop stop-color="#8E8A8E"/>
<stop offset="1" stop-color="#242424"/>
</radialGradient>
<linearGradient id="paint16_linear_621_2288" x1="106.77" y1="152.04" x2="124.548" y2="123.989" gradientUnits="userSpaceOnUse">
<stop stop-color="#D5D1D3"/>
<stop offset="0.01" stop-color="#D4D0D2"/>
<stop offset="0.32" stop-color="#C2BFC1"/>
<stop offset="0.65" stop-color="#B7B4B7"/>
<stop offset="1" stop-color="#B3B1B4"/>
</linearGradient>
<linearGradient id="paint17_linear_621_2288" x1="155.858" y1="226.274" x2="155.858" y2="126.132" gradientUnits="userSpaceOnUse">
<stop stop-color="#FFFDFF"/>
<stop offset="0.11" stop-color="#EEECEE"/>
<stop offset="0.32" stop-color="#D4D2D5"/>
<stop offset="0.53" stop-color="#C2C0C2"/>
<stop offset="0.76" stop-color="#B7B5B8"/>
<stop offset="1" stop-color="#B3B1B4"/>
</linearGradient>
<radialGradient id="paint18_radial_621_2288" cx="0" cy="0" r="1" gradientUnits="userSpaceOnUse" gradientTransform="translate(152.41 159.37) scale(56.9257 56.9257)">
<stop stop-color="#FFFDFF"/>
<stop offset="0.08" stop-color="#E5E3E5"/>
<stop offset="0.22" stop-color="#BEBCBD"/>
<stop offset="0.36" stop-color="#9D9C9C"/>
<stop offset="0.51" stop-color="#848383"/>
<stop offset="0.66" stop-color="#727171"/>
<stop offset="0.82" stop-color="#676666"/>
<stop offset="1" stop-color="#646363"/>
</radialGradient>
<radialGradient id="paint19_radial_621_2288" cx="0" cy="0" r="1" gradientUnits="userSpaceOnUse" gradientTransform="translate(182.488 96.4589) scale(73.768 73.768)">
<stop stop-color="#999999"/>
<stop offset="1" stop-color="#828282"/>
</radialGradient>
<linearGradient id="paint20_linear_621_2288" x1="157.495" y1="151.538" x2="161.325" y2="59.6956" gradientUnits="userSpaceOnUse">
<stop offset="0.0316666" stop-color="#7C7C7C"/>
<stop offset="0.76" stop-color="#9A9A9A"/>
<stop offset="1" stop-color="#606060"/>
</linearGradient>
<radialGradient id="paint21_radial_621_2288" cx="0" cy="0" r="1" gradientUnits="userSpaceOnUse" gradientTransform="translate(141.656 106.949) scale(36.232 36.232)">
<stop stop-color="#FFFDFF"/>
<stop offset="0.04" stop-color="#F3F1F3"/>
<stop offset="0.18" stop-color="#C8C6C7"/>
<stop offset="0.32" stop-color="#A4A2A2"/>
<stop offset="0.47" stop-color="#898686"/>
<stop offset="0.61" stop-color="#757272"/>
<stop offset="0.76" stop-color="#696666"/>
<stop offset="0.9" stop-color="#656262"/>
<stop offset="1" stop-color="#646363"/>
</radialGradient>
<linearGradient id="paint22_linear_621_2288" x1="187.524" y1="188.328" x2="214.43" y2="168.847" gradientUnits="userSpaceOnUse">
<stop stop-color="#FFFDFF"/>
<stop offset="0.11" stop-color="#EEECEE"/>
<stop offset="0.32" stop-color="#D4D2D5"/>
<stop offset="0.53" stop-color="#C2C0C2"/>
<stop offset="0.76" stop-color="#B7B5B8"/>
<stop offset="1" stop-color="#B3B1B4"/>
</linearGradient>
<radialGradient id="paint23_radial_621_2288" cx="0" cy="0" r="1" gradientUnits="userSpaceOnUse" gradientTransform="translate(206.089 180.705) scale(30.8836 30.8835)">
<stop stop-color="#FFFDFF"/>
<stop offset="0.08" stop-color="#E5E3E5"/>
<stop offset="0.22" stop-color="#BEBCBD"/>
<stop offset="0.36" stop-color="#9D9C9C"/>
<stop offset="0.51" stop-color="#848383"/>
<stop offset="0.66" stop-color="#727171"/>
<stop offset="0.82" stop-color="#676666"/>
<stop offset="1" stop-color="#646363"/>
</radialGradient>
<radialGradient id="paint24_radial_621_2288" cx="0" cy="0" r="1" gradientUnits="userSpaceOnUse" gradientTransform="translate(181.232 92.6529) scale(29.1088 37.2592)">
<stop stop-color="#9B9596"/>
<stop offset="0.31" stop-color="#928D8E"/>
<stop offset="1" stop-color="#646363"/>
</radialGradient>
<linearGradient id="paint25_linear_621_2288" x1="204.119" y1="122.34" x2="162.732" y2="134.933" gradientUnits="userSpaceOnUse">
<stop stop-color="#F8F6F8"/>
<stop offset="0.18" stop-color="#F0EEF0"/>
<stop offset="0.62" stop-color="#E2E0E2"/>
<stop offset="1" stop-color="#DDDBDD"/>
</linearGradient>
<linearGradient id="paint26_linear_621_2288" x1="196.948" y1="124.975" x2="140.24" y2="131.736" gradientUnits="userSpaceOnUse">
<stop stop-color="#F8F6F8"/>
<stop offset="0.18" stop-color="#F0EEF0"/>
<stop offset="0.62" stop-color="#E2E0E2"/>
<stop offset="1" stop-color="#DDDBDD"/>
</linearGradient>
<linearGradient id="paint27_linear_621_2288" x1="188.448" y1="141.648" x2="217.992" y2="92.775" gradientUnits="userSpaceOnUse">
<stop stop-color="#FFFDFF"/>
<stop offset="0.2" stop-color="#F9F7FA"/>
<stop offset="0.46" stop-color="#EAE8EA"/>
<stop offset="0.75" stop-color="#D0CED0"/>
<stop offset="1" stop-color="#B3B1B4"/>
</linearGradient>
<linearGradient id="paint28_linear_621_2288" x1="188.352" y1="231.805" x2="211.795" y2="218.023" gradientUnits="userSpaceOnUse">
<stop stop-color="#FFFDFF"/>
<stop offset="0.11" stop-color="#EEECEE"/>
<stop offset="0.32" stop-color="#D4D2D5"/>
<stop offset="0.53" stop-color="#C2C0C2"/>
<stop offset="0.76" stop-color="#B7B5B8"/>
<stop offset="1" stop-color="#B3B1B4"/>
</linearGradient>
<radialGradient id="paint29_radial_621_2288" cx="0" cy="0" r="1" gradientUnits="userSpaceOnUse" gradientTransform="translate(217.722 201.789) rotate(-95.1428) scale(20.3651 20.3652)">
<stop stop-color="#FFFDFF"/>
<stop offset="0.08" stop-color="#E5E3E5"/>
<stop offset="0.22" stop-color="#BEBCBD"/>
<stop offset="0.36" stop-color="#9D9C9C"/>
<stop offset="0.51" stop-color="#848383"/>
<stop offset="0.66" stop-color="#727171"/>
<stop offset="0.82" stop-color="#676666"/>
<stop offset="1" stop-color="#646363"/>
</radialGradient>
<linearGradient id="paint30_linear_621_2288" x1="94.0486" y1="123.526" x2="179.455" y2="123.526" gradientUnits="userSpaceOnUse">
<stop stop-color="#5D5D5D"/>
<stop offset="1" stop-color="#292929"/>
</linearGradient>
<linearGradient id="paint31_linear_621_2288" x1="71.1074" y1="125.443" x2="172.813" y2="125.443" gradientUnits="userSpaceOnUse">
<stop stop-color="#F8F6F8"/>
<stop offset="0.39" stop-color="#F2F0F2"/>
<stop offset="0.93" stop-color="#E0DEE0"/>
<stop offset="1" stop-color="#DDDBDD"/>
</linearGradient>
<linearGradient id="paint32_linear_621_2288" x1="57.0541" y1="125.443" x2="240.556" y2="125.443" gradientUnits="userSpaceOnUse">
<stop offset="0.01" stop-color="#222222"/>
<stop offset="1" stop-color="#1D1D1D"/>
</linearGradient>
</defs>
</svg>
