<svg width="58" height="59" viewBox="0 0 58 59" fill="none" xmlns="http://www.w3.org/2000/svg">
<rect y="0.0175781" width="58" height="58" rx="5.91837" fill="#F80759" fill-opacity="0.1"/>
<mask id="mask0_595_5364" style="mask-type:alpha" maskUnits="userSpaceOnUse" x="8" y="9" width="41" height="41">
<rect x="8.28711" y="9.48828" width="40.2449" height="40.2449" fill="#D9D9D9"/>
</mask>
<g mask="url(#mask0_595_5364)">
<path d="M28.3778 43.8623C24.7468 43.8623 21.5823 42.6669 18.8842 40.2763C16.1861 37.8856 14.6329 34.8888 14.2246 31.2857H16.7915C17.2149 34.1817 18.5182 36.5826 20.7015 38.4883C22.8845 40.3941 25.4433 41.347 28.3778 41.347C31.6477 41.347 34.4215 40.2081 36.6993 37.9303C38.977 35.6526 40.1159 32.8788 40.1159 29.6089C40.1159 26.339 38.977 23.5651 36.6993 21.2874C34.4215 19.0096 31.6477 17.8708 28.3778 17.8708C26.5461 17.8708 24.8296 18.2777 23.2281 19.0915C21.6265 19.9051 20.2472 21.0245 19.0905 22.4499H23.4763V24.9652H14.9629V16.4517H17.4782V20.4246C18.8389 18.8188 20.4686 17.5724 22.3671 16.6856C24.2653 15.7989 26.2689 15.3555 28.3778 15.3555C30.3557 15.3555 32.2089 15.7296 33.9375 16.4777C35.6658 17.2259 37.1727 18.2428 38.4583 19.5284C39.7439 20.814 40.7608 22.3211 41.509 24.0496C42.2571 25.7779 42.6312 27.631 42.6312 29.6089C42.6312 31.5867 42.2571 33.4398 41.509 35.1681C40.7608 36.8967 39.7439 38.4038 38.4583 39.6894C37.1727 40.975 35.6658 41.9919 33.9375 42.74C32.2089 43.4882 30.3557 43.8623 28.3778 43.8623ZM33.4118 36.3616L27.1688 30.1182V21.2245H29.6837V29.0995L35.1788 34.5942L33.4118 36.3616Z" fill="#F80759"/>
</g>
</svg>
