<svg width="46" height="47" viewBox="0 0 46 47" fill="none" xmlns="http://www.w3.org/2000/svg">
<rect x="0.25" y="0.75" width="45.5" height="45.5" rx="22.75" fill="url(#paint0_linear_1481_2004)" fill-opacity="0.7"/>
<rect x="0.25" y="0.75" width="45.5" height="45.5" rx="22.75" stroke="#6D6C6B" stroke-width="0.5"/>
<mask id="mask0_1481_2004" style="mask-type:alpha" maskUnits="userSpaceOnUse" x="11" y="12" width="24" height="23">
<rect x="11.5" y="12" width="23" height="23" fill="#D9D9D9"/>
</mask>
<g mask="url(#mask0_1481_2004)">
<path d="M23.0008 34.0417C22.6334 34.0417 22.2661 34.0177 21.8987 33.9698C21.5314 33.9219 21.164 33.858 20.7966 33.7781C19.3911 34.8163 17.8458 35.1877 16.1607 34.8922C14.4756 34.5967 13.1859 33.6983 12.2914 32.1969C11.5727 31.0149 11.3411 29.7451 11.5966 28.3875C11.8522 27.0299 12.4671 25.8878 13.4414 24.9615V24.8896C12.4512 23.9792 11.8362 22.8571 11.5966 21.5234C11.3571 20.1898 11.5807 18.9319 12.2675 17.75C12.8584 16.7437 13.673 15.9811 14.7112 15.462C15.7494 14.9429 16.8435 14.7632 17.9935 14.9229C18.5046 14.0125 19.2034 13.2977 20.0899 12.7786C20.9763 12.2595 21.9466 12 23.0008 12C24.055 12 25.0253 12.2595 25.9117 12.7786C26.7982 13.2977 27.497 14.0125 28.0081 14.9229C29.1581 14.7632 30.2522 14.9429 31.2904 15.462C32.3286 15.9811 33.1432 16.7437 33.7341 17.75C34.4209 18.9319 34.6446 20.1898 34.405 21.5234C34.1654 22.8571 33.5505 23.9792 32.5602 24.8896V24.9615C33.5345 25.8878 34.1494 27.0299 34.405 28.3875C34.6605 29.7451 34.4289 31.0149 33.7102 32.1969C32.8157 33.6983 31.526 34.5967 29.8409 34.8922C28.1558 35.1877 26.6105 34.8163 25.205 33.7781C24.8376 33.858 24.4703 33.9219 24.1029 33.9698C23.7355 34.0177 23.3682 34.0417 23.0008 34.0417ZM23.0008 32.125C25.1411 32.125 26.9539 31.3823 28.4393 29.8969C29.9248 28.4115 30.6675 26.5986 30.6675 24.4583C30.6675 23.9951 30.6315 23.5519 30.5597 23.1286C30.4878 22.7054 30.38 22.2941 30.2362 21.8948C29.773 22.2142 29.2619 22.4618 28.7029 22.6375C28.1439 22.8132 27.5609 22.901 26.9539 22.901C25.3248 22.901 23.9392 22.33 22.7972 21.188C21.6551 20.046 21.0841 18.6604 21.0841 17.0312C19.423 17.4465 18.0494 18.341 16.9633 19.7146C15.8772 21.0882 15.3341 22.6694 15.3341 24.4583C15.3341 26.5986 16.0768 28.4115 17.5623 29.8969C19.0477 31.3823 20.8605 32.125 23.0008 32.125ZM20.1258 26.6146C19.7904 26.6146 19.5069 26.4988 19.2753 26.2672C19.0437 26.0356 18.9279 25.7521 18.9279 25.4167C18.9279 25.0812 19.0437 24.7977 19.2753 24.5661C19.5069 24.3345 19.7904 24.2187 20.1258 24.2187C20.4612 24.2187 20.7447 24.3345 20.9763 24.5661C21.2079 24.7977 21.3237 25.0812 21.3237 25.4167C21.3237 25.7521 21.2079 26.0356 20.9763 26.2672C20.7447 26.4988 20.4612 26.6146 20.1258 26.6146ZM25.8758 26.6146C25.5404 26.6146 25.2569 26.4988 25.0253 26.2672C24.7937 26.0356 24.6779 25.7521 24.6779 25.4167C24.6779 25.0812 24.7937 24.7977 25.0253 24.5661C25.2569 24.3345 25.5404 24.2187 25.8758 24.2187C26.2112 24.2187 26.4947 24.3345 26.7263 24.5661C26.9579 24.7977 27.0737 25.0812 27.0737 25.4167C27.0737 25.7521 26.9579 26.0356 26.7263 26.2672C26.4947 26.4988 26.2112 26.6146 25.8758 26.6146Z" fill="#C4C4C4"/>
</g>
<defs>
<linearGradient id="paint0_linear_1481_2004" x1="23" y1="0.5" x2="23" y2="46.5" gradientUnits="userSpaceOnUse">
<stop offset="0.13748" stop-color="#6D6C6B" stop-opacity="0"/>
<stop offset="0.639343" stop-color="#6D6C6B" stop-opacity="0.269847"/>
<stop offset="1" stop-color="#6D6C6B"/>
</linearGradient>
</defs>
</svg>
